<svg xmlns="http://www.w3.org/2000/svg" width="16" height="16.507" viewBox="0 0 16 16.507">
  <g id="Group_31526" data-name="Group 31526" transform="translate(-959 -698)">
    <rect id="Rectangle_17347" data-name="Rectangle 17347" width="16" height="16" transform="translate(959 698)" fill="none" opacity="0.358"/>
    <path id="Union_199" data-name="Union 199" d="M6.98,14.593,5.257,12.856H4.235A4.167,4.167,0,0,1,0,8.771V4.085A4.167,4.167,0,0,1,4.235,0h7.529A4.167,4.167,0,0,1,16,4.085V8.771a4.167,4.167,0,0,1-4.235,4.085H10.743L9.02,14.593a1.448,1.448,0,0,1-2.04,0Zm.68-.628a.483.483,0,0,0,.681,0l1.1-1.11H6.56ZM.941,4.085V8.771a3.241,3.241,0,0,0,3.294,3.177h7.529a3.241,3.241,0,0,0,3.294-3.177V4.085A3.241,3.241,0,0,0,11.765.908H4.235A3.241,3.241,0,0,0,.941,4.085ZM9.776,7.828H3.636a.576.576,0,0,1,0-1.151h6.14a.627.627,0,0,1,.585.268.552.552,0,0,1,0,.616.626.626,0,0,1-.521.271Q9.808,7.831,9.776,7.828Zm2.512-3.157H3.59a.581.581,0,0,1,0-1.151h8.7a.558.558,0,0,1,.536.268.6.6,0,0,1,0,.616.56.56,0,0,1-.476.271A.544.544,0,0,1,12.288,4.671Z" transform="translate(959 699.494)" fill="#d9f777"/>
  </g>
</svg>
