<svg id="camera-icone" xmlns="http://www.w3.org/2000/svg" width="20" height="20" viewBox="0 0 20 20">
  <rect id="Rectangle_14963" data-name="Rectangle 14963" width="20" height="20" fill="none" opacity="0.184"/>
  <g id="Video" transform="translate(0 2.999)">
    <path id="Stroke_1" data-name="Stroke 1" d="M9.381,13.25H3.374a4.277,4.277,0,0,1-3-1.072A3.688,3.688,0,0,1-.75,9.444V3.064A3.7,3.7,0,0,1,.38.327,4.287,4.287,0,0,1,3.385-.75h6a4.286,4.286,0,0,1,3,1.077,3.694,3.694,0,0,1,1.134,2.737V9.444a3.682,3.682,0,0,1-1.135,2.734A4.3,4.3,0,0,1,9.381,13.25ZM3.385.625A2.385,2.385,0,0,0,.7,3.064V9.444a2.376,2.376,0,0,0,2.675,2.43H9.381a2.381,2.381,0,0,0,2.686-2.43V3.064a2.336,2.336,0,0,0-.7-1.759A2.834,2.834,0,0,0,9.381.625Z" transform="translate(0.75 0.75)" fill="#fff"/>
    <path id="Stroke_3" data-name="Stroke 3" d="M4.559,8.362a1.794,1.794,0,0,1-1.071-.35L-.483,5.069a.617.617,0,0,1-.1-.926A.78.78,0,0,1,.438,4.05L4.41,6.994a.253.253,0,0,0,.259.028.214.214,0,0,0,.141-.2V.79a.215.215,0,0,0-.141-.2.252.252,0,0,0-.256.027L.438,3.561A.78.78,0,0,1-.586,3.469a.617.617,0,0,1,.1-.926L3.489-.4a1.823,1.823,0,0,1,1.8-.2A1.523,1.523,0,0,1,6.263.79V6.821A1.522,1.522,0,0,1,5.29,8.212,1.859,1.859,0,0,1,4.559,8.362Z" transform="translate(13.737 3.194)" fill="#fff"/>
  </g>
</svg>
