<svg id="camera-icone" xmlns="http://www.w3.org/2000/svg" width="20" height="20" viewBox="0 0 33 25">
  <path id="Video" d="M6.787,25A6.484,6.484,0,0,1,0,18.232V6.768A6.483,6.483,0,0,1,6.787,0h9.558a6.483,6.483,0,0,1,6.787,6.768V18.232A6.484,6.484,0,0,1,16.344,25Zm22.842-3.966-2.443-1.245a2.71,2.71,0,0,1-1.466-2.428V7.638a2.7,2.7,0,0,1,1.466-2.425l2.444-1.248a2.265,2.265,0,0,1,2.266.106A2.393,2.393,0,0,1,33,6.1V18.9a2.389,2.389,0,0,1-1.1,2.032,2.294,2.294,0,0,1-1.227.36A2.266,2.266,0,0,1,29.629,21.034Z" fill="#d9f777"/>
</svg>
