<svg xmlns="http://www.w3.org/2000/svg" width="20" height="18" viewBox="0 0 20 18">
  <path id="Union_206" data-name="Union 206" d="M1915.535-190h-9.1a5.219,5.219,0,0,1-3.953-1.743,6.124,6.124,0,0,1-1.486-4.1v-6.312a6.127,6.127,0,0,1,1.486-4.1,5.219,5.219,0,0,1,3.953-1.743h9.1a5.524,5.524,0,0,1,3.977,1.77,5.609,5.609,0,0,1,1.473,4.094v6.271a5.612,5.612,0,0,1-1.473,4.1,5.523,5.523,0,0,1-3.977,1.769Zm-13.087-5.844a4.68,4.68,0,0,0,1.117,3.135,3.744,3.744,0,0,0,2.874,1.259h9.092a4.074,4.074,0,0,0,2.928-1.305,4.149,4.149,0,0,0,1.087-3.046c0-.015,0-.029,0-.043v-3.723h-17.1Zm17.1-6.624a4.149,4.149,0,0,0-1.094-2.776,4.071,4.071,0,0,0-2.928-1.305h-9.092a3.741,3.741,0,0,0-2.874,1.259,4.6,4.6,0,0,0-1.109,2.822Z" transform="translate(-1901 208)" fill="#fff"/>
</svg>
