<svg xmlns="http://www.w3.org/2000/svg" width="80" height="80" viewBox="0 0 80 80">
  <g id="cercle-camera-icone" transform="translate(4 4)">
    <g id="Rectangle_15169" data-name="Rectangle 15169" fill="#020f11" stroke="rgba(255,255,255,0.1)" stroke-width="4">
      <rect width="72" height="72" rx="36" stroke="none"/>
      <rect x="-2" y="-2" width="76" height="76" rx="38" fill="none"/>
    </g>
    <g id="Camera" transform="translate(24 25)">
      <path id="Camera-2" data-name="Camera" d="M18.768,22H5.232A5.284,5.284,0,0,1,0,16.677V9.425A5.284,5.284,0,0,1,5.232,4.1a.237.237,0,0,0,.229-.146l.071-.146.1-.214c.314-.673.668-1.433.884-1.874A2.916,2.916,0,0,1,9.168,0H14.82a2.925,2.925,0,0,1,2.664,1.721c.189.384.476,1,.753,1.6l.17.367.121.268a.27.27,0,0,0,.24.146A5.284,5.284,0,0,1,24,9.425v7.252A5.284,5.284,0,0,1,18.768,22ZM12,7.825A4.663,4.663,0,0,0,8.652,9.242a4.772,4.772,0,0,0-1.368,3.381,4.857,4.857,0,0,0,1.38,3.395A4.691,4.691,0,0,0,12,17.422a4.632,4.632,0,0,0,3.324-1.4,4.848,4.848,0,0,0,.012-6.788A4.643,4.643,0,0,0,12,7.825Zm6.732-.293a1.105,1.105,0,1,0,1.093,1.111A1.1,1.1,0,0,0,18.732,7.533ZM12,15.59a2.871,2.871,0,0,1-2.064-.867,2.973,2.973,0,0,1-.852-2.1v-.012a2.909,2.909,0,0,1,4.98-2.088A2.981,2.981,0,0,1,12,15.59Z" transform="translate(0)" fill="#fff"/>
    </g>
  </g>
</svg>
