<svg id="Groupe_30036" data-name="Groupe 30036" xmlns="http://www.w3.org/2000/svg" width="29" height="29" viewBox="0 0 29 29">
  <rect id="Rectangle_15246" data-name="Rectangle 15246" width="29" height="29" fill="none"/>
  <g id="Groupe_29910" data-name="Groupe 29910" transform="translate(1.854 1.196)">
    <path id="Path" d="M12.475,25.451a12.944,12.944,0,0,1-6.4-1.7l-.012-.007a2.018,2.018,0,0,0-.818-.365.492.492,0,0,0-.154.027l-.026.008-2.416.719a1.884,1.884,0,0,1-.558.086,1.717,1.717,0,0,1-1.381-.674A1.758,1.758,0,0,1,.435,22l.005-.019.8-2.691q.007-.024.015-.047a.306.306,0,0,0,0-.24l-.026-.045A13.655,13.655,0,0,1-.5,12.493,13.172,13.172,0,0,1,3.171,3.437,12.835,12.835,0,0,1,12.5-.5,12.969,12.969,0,0,1,25.45,12.457a12.748,12.748,0,0,1-4.083,9.507A13.28,13.28,0,0,1,12.475,25.451Zm-5.4-3.384a10.929,10.929,0,0,0,5.4,1.422,11.3,11.3,0,0,0,7.563-2.967,10.647,10.647,0,0,0,3.45-8.064,11,11,0,0,0-10.989-11A10.89,10.89,0,0,0,4.583,4.8a11.193,11.193,0,0,0-3.121,7.695A11.685,11.685,0,0,0,2.952,18a2.231,2.231,0,0,1,.166,1.87l-.681,2.281L4.5,21.539a2.452,2.452,0,0,1,.751-.12A3.466,3.466,0,0,1,7.078,22.066Z" transform="translate(0.5 0.5)" fill="#fff"/>
    <g id="Chat" transform="translate(6.507 11.604)">
      <path id="Chat-2" data-name="Chat" d="M11.482,2.8a1.4,1.4,0,1,1,1.4-1.4A1.4,1.4,0,0,1,11.482,2.8Zm-5.041,0a1.4,1.4,0,0,1-1.4-1.412A1.386,1.386,0,0,1,6.42,0h.021a1.4,1.4,0,0,1,0,2.8ZM1.4,2.8A1.4,1.4,0,1,1,2.8,1.4,1.416,1.416,0,0,1,1.4,2.8Z" transform="translate(0 0)" fill="#fff"/>
    </g>
  </g>
</svg>
