<svg id="cours-video" xmlns="http://www.w3.org/2000/svg" width="20" height="20" viewBox="0 0 20 20">
  <rect id="Rectangle_17308" data-name="Rectangle 17308" width="20" height="20" fill="#fff" opacity="0"/>
  <path id="Union_193" data-name="Union 193" d="M5.074,20A5.08,5.08,0,0,1,0,14.926V5.074A5.08,5.08,0,0,1,5.074,0h9.852A5.079,5.079,0,0,1,20,5.074v9.852A5.079,5.079,0,0,1,14.926,20ZM1.281,14.926a3.8,3.8,0,0,0,3.793,3.793h9.852a3.8,3.8,0,0,0,3.793-3.793V6.7H1.281Zm0-9.852v.345H18.72V5.074A3.8,3.8,0,0,0,14.926,1.28H5.074A3.8,3.8,0,0,0,1.281,5.074Zm7.3,9.718a1.032,1.032,0,0,1-.9-.543l-.01-.02a4.067,4.067,0,0,1-.174-.646v-.007a12.611,12.611,0,0,1-.106-1.751,10.9,10.9,0,0,1,.121-1.807v-.005a4.681,4.681,0,0,1,.13-.517l.006-.015a1.054,1.054,0,0,1,.459-.495l.005,0a1.149,1.149,0,0,1,.5-.113l.027,0a2.546,2.546,0,0,1,.617.166l0,0a10.889,10.889,0,0,1,2.9,1.913l0,0c.055.055.112.115.157.162.03.032.061.064.071.073l.015.018a1,1,0,0,1,.213.626.96.96,0,0,1-.2.589c-.066.08-.136.157-.209.232l-.044.043a10.83,10.83,0,0,1-2.833,1.889,2.638,2.638,0,0,1-.691.2l-.015,0ZM8.507,4.631a.836.836,0,0,1-.835-.839.843.843,0,0,1,.717-.826H8.4l.1-.006h0a.837.837,0,0,1,.113,1.665H8.611l-.1.006Zm-2.356,0a.837.837,0,0,1-.12-1.665h.012l.1-.006h0a.837.837,0,0,1,.113,1.665H6.253l-.1.006Zm-2.358,0a.837.837,0,0,1-.12-1.665h.012l.1-.006h.005a.837.837,0,0,1,.113,1.665H3.9l-.1.006Z" transform="translate(0 0)" fill="#fff"/>
</svg>
