<svg id="CTA_Messgerie" data-name="CTA Messgerie" xmlns="http://www.w3.org/2000/svg" width="48" height="48" viewBox="0 0 48 48">
  <rect id="Rectangle_15217" data-name="Rectangle 15217" width="48" height="48" rx="24" fill="rgba(255,255,255,0.1)"/>
  <g id="bulle-message" transform="translate(13.999 13.999)">
    <g id="Chat" transform="translate(0 0)">
      <path id="Chat-2" data-name="Chat" d="M5.318,18.848l-.046-.016a.017.017,0,0,1-.01-.012l-.682-.387a.75.75,0,0,0-.275-.054.465.465,0,0,0-.112.012,17.683,17.683,0,0,1-2.171.627l-.135.016H1.846a1.118,1.118,0,0,1-.883-.355,1.376,1.376,0,0,1-.3-.92l.02-.164a18.425,18.425,0,0,1,.677-2.2.529.529,0,0,0-.043-.4l-.184-.358A10.005,10.005,0,0,1,10.02,0h.039a10,10,0,1,1-4.74,18.848Zm-.171-1.688c.092.044.209.107.37.2l.422.243.006,0,.287.146a8.632,8.632,0,0,0,9.226-1.1l.22-.187a8.606,8.606,0,0,0-5.63-15.064l-.281,0A8.6,8.6,0,0,0,2.377,13.988l.181.353a1.944,1.944,0,0,1,.126,1.5,17.739,17.739,0,0,0-.64,2.08l.094-.368.4-.1c.285-.079.553-.16.82-.248l.418-.144a2.045,2.045,0,0,1,.541-.073A2.184,2.184,0,0,1,5.147,17.159Zm8.2-7.16a1.141,1.141,0,1,1,1.141,1.141A1.141,1.141,0,0,1,13.349,10ZM8.912,10a1.141,1.141,0,1,1,1.141,1.141A1.141,1.141,0,0,1,8.912,10ZM4.475,10a1.141,1.141,0,1,1,1.141,1.141A1.141,1.141,0,0,1,4.475,10Z" transform="translate(0 0)" fill="#fff"/>
    </g>
  </g>
</svg>
