<svg id="CTA_Messgerie" data-name="CTA Messgerie" xmlns="http://www.w3.org/2000/svg" width="48" height="48" viewBox="0 0 48 48">
  <rect id="Rectangle_15217" data-name="Rectangle 15217" width="48" height="48" rx="24" fill="rgba(255,255,255,0.1)"/>
  <g id="bulle-message" transform="translate(14 13.999)">
    <path id="Chat" d="M10,20a9.955,9.955,0,0,1-4.92-1.3,2.2,2.2,0,0,0-1.107-.424,1.213,1.213,0,0,0-.383.063l-2.021.6a.754.754,0,0,1-.226.036.62.62,0,0,1-.5-.239.647.647,0,0,1-.094-.578l.671-2.244a1.046,1.046,0,0,0-.07-.9,10.567,10.567,0,0,1-1.35-5A10.158,10.158,0,0,1,2.831,3.032,9.89,9.89,0,0,1,10.02,0a9.865,9.865,0,0,1,7.12,2.994,10.058,10.058,0,0,1,2.1,3.182A9.89,9.89,0,0,1,20,9.985a10.138,10.138,0,0,1-.865,4.172A9.6,9.6,0,0,1,16.86,17.31,10.245,10.245,0,0,1,10,20ZM14.59,8.744a1.282,1.282,0,1,0,1.28,1.282A1.282,1.282,0,0,0,14.59,8.744Zm-4.629,0A1.268,1.268,0,0,0,8.7,10.015,1.28,1.28,0,1,0,9.98,8.744H9.961Zm-4.591,0a1.282,1.282,0,1,0,1.28,1.282A1.283,1.283,0,0,0,5.37,8.744Z" fill="#5e55f2"/>
  </g>
</svg>
