<svg id="CTA_Liste_participants" data-name="CTA Liste participants" xmlns="http://www.w3.org/2000/svg" width="48" height="48" viewBox="0 0 48 48">
  <rect id="Rectangle_15217" data-name="Rectangle 15217" width="48" height="48" rx="24" fill="rgba(255,255,255,0.1)"/>
  <g id="_2-utilisateurs" data-name="2-utilisateurs" transform="translate(14 14)">
    <g id="_2_User" data-name="2 User">
      <path id="_2_Friends" data-name="2 Friends" d="M0,15.2c0-2.67,3.695-3.339,8.021-3.339,4.35,0,8.021.691,8.021,3.364s-3.695,3.34-8.021,3.34C3.671,18.562,0,17.87,0,15.2Zm17.334.245a3.964,3.964,0,0,0-2.429-3.9.041.041,0,0,1-.026-.043.034.034,0,0,1,.03-.022,14.533,14.533,0,0,1,2.967.252,2.528,2.528,0,0,1,1.949,1.162,1.67,1.67,0,0,1,0,1.488c-.421.889-1.778,1.175-2.306,1.248l-.024,0A.164.164,0,0,1,17.334,15.441ZM2.487,5.408A5.447,5.447,0,0,1,8.009,0a5.446,5.446,0,0,1,5.522,5.408,5.447,5.447,0,0,1-5.522,5.409A5.448,5.448,0,0,1,2.487,5.408ZM14.678,8.822a3.709,3.709,0,0,1-.515-.048.163.163,0,0,1-.113-.253,5.913,5.913,0,0,0-.089-6.844.1.1,0,0,1-.017-.113.138.138,0,0,1,.087-.051,3.816,3.816,0,0,1,.752-.075,3.693,3.693,0,1,1,0,7.385Z" fill="#7971f5"/>
    </g>
  </g>
</svg>
