<svg id="favoris-menu" xmlns="http://www.w3.org/2000/svg" width="20" height="20" viewBox="0 0 20 20">
  <rect id="Rectangle_17308" data-name="Rectangle 17308" width="20" height="20" fill="#fff" opacity="0"/>
  <g id="Bookmark" transform="translate(2)">
    <path id="Bookmark-2" data-name="Bookmark" d="M14.36,20a1.716,1.716,0,0,1-.774-.2L7.974,16.663,2.384,19.8a1.592,1.592,0,0,1-.746.188A1.654,1.654,0,0,1,.384,19.4l-.1-.126-.094-.154A1.774,1.774,0,0,1,0,18.331V4.434A4.147,4.147,0,0,1,1.343,1.117,5.5,5.5,0,0,1,5.014,0h5.971C14.172,0,16,1.552,16,4.258V18.331a1.681,1.681,0,0,1-.477,1.18A1.61,1.61,0,0,1,14.36,20ZM7.974,15.216a1.389,1.389,0,0,1,.67.174l5.6,3.128a.3.3,0,0,0,.126.035.213.213,0,0,0,.153-.065.225.225,0,0,0,.063-.157V4.258c0-1.864-1.212-2.81-3.6-2.81H5.014c-2.424,0-3.6.977-3.6,2.986V18.319c0,.017,0,.034,0,.047s0,.026,0,.028l-.006,0,.038.061a.231.231,0,0,0,.184.1.185.185,0,0,0,.087-.021l5.587-3.138A1.379,1.379,0,0,1,7.974,15.216Z" fill="#fff"/>
  </g>
</svg>
