<svg id="favoris-menu" xmlns="http://www.w3.org/2000/svg" width="20" height="20" viewBox="0 0 20 20">
  <rect id="Rectangle_17308" data-name="Rectangle 17308" width="20" height="20" fill="#fff" opacity="0"/>
  <g id="Bookmark" transform="translate(2)">
    <path id="Bookmark-2" data-name="Bookmark" d="M10.986,0H5.014C1.909,0,0,1.5,0,4.434v13.9a1.778,1.778,0,0,0,.193.786l.094.155.1.126a1.612,1.612,0,0,0,2,.406l5.59-3.14L13.586,19.8a1.705,1.705,0,0,0,.774.2,1.614,1.614,0,0,0,1.162-.489A1.691,1.691,0,0,0,16,18.331V4.258C16,1.435,14.048,0,10.986,0Z" fill="#d9f777"/>
  </g>
</svg>
