<svg xmlns="http://www.w3.org/2000/svg" width="35" height="35" viewBox="0 0 35 35">
  <g id="filtre" transform="translate(-277 -369)">
    <rect id="Rectangle_14613" data-name="Rectangle 14613" width="35" height="35" rx="9" transform="translate(277 369)" fill="#020f11" opacity="0"/>
    <path id="Filter" d="M9.185,10.529A2.408,2.408,0,1,1,11.593,13,2.44,2.44,0,0,1,9.185,10.529Zm-8.13,1.113a1.084,1.084,0,0,1,0-2.167h4.6a1.084,1.084,0,0,1,0,2.167ZM0,2.471A2.44,2.44,0,0,1,2.407,0,2.439,2.439,0,0,1,4.815,2.471,2.44,2.44,0,0,1,2.407,4.942,2.44,2.44,0,0,1,0,2.471ZM8.343,3.554A1.07,1.07,0,0,1,7.287,2.471,1.07,1.07,0,0,1,8.343,1.388h4.6A1.07,1.07,0,0,1,14,2.471a1.07,1.07,0,0,1-1.055,1.083Z" transform="translate(288 380)" fill="#020f11"/>
  </g>
</svg>
