<svg xmlns="http://www.w3.org/2000/svg" width="35" height="35" viewBox="0 0 35 35">
  <g id="fleche-indication-bas" transform="translate(-277 -369)">
    <rect id="Rectangle_14613" data-name="Rectangle 14613" width="35" height="35" rx="9" transform="translate(277 369)" fill="#020f11" opacity="0"/>
    <path id="Union_117" data-name="Union 117" d="M19441.742,22254.666l-6.416-6.736a1.152,1.152,0,0,1-.246-1.227,1.05,1.05,0,0,1,1.758-.367l5.662,5.949,5.662-5.945a1.039,1.039,0,0,1,.74-.342h.025a1.065,1.065,0,0,1,.988.693,1.17,1.17,0,0,1-.238,1.238l-6.424,6.736a1.026,1.026,0,0,1-1.512,0Z" transform="translate(-19148 -21862.998)" fill="#020f11"/>
  </g>
</svg>
