<svg xmlns="http://www.w3.org/2000/svg" width="24" height="24" viewBox="0 0 24 24">
  <g id="Group_31778" data-name="Group 31778" transform="translate(-166.229 -929.229)">
    <g id="Ellipse_730" data-name="Ellipse 730" transform="translate(166.229 929.229)" fill="#0c181b" stroke="rgba(255,255,255,0.1)" stroke-width="0.5">
      <circle cx="12" cy="12" r="12" stroke="none"/>
      <circle cx="12" cy="12" r="11.75" fill="none"/>
    </g>
    <g id="Group_31777" data-name="Group 31777" transform="translate(169.397 932.397)">
      <rect id="Rectangle_14966" data-name="Rectangle 14966" width="18" height="18" transform="translate(-0.168 -0.168)" fill="#fff" opacity="0"/>
      <g id="Group_28467" data-name="Group 28467" transform="translate(5.609 4.438)">
        <path id="Path_27318" data-name="Path 27318" d="M2.928-4.766a.983.983,0,0,1-.624-.18.591.591,0,0,1-.229-.491,1.66,1.66,0,0,1,.245-.808,2.579,2.579,0,0,1,.549-.624q.328-.271.889-.646.458-.332.7-.53a2.077,2.077,0,0,0,.387-.419.823.823,0,0,0,.15-.473v-.087A.829.829,0,0,0,4.6-9.749a1.723,1.723,0,0,0-.984-.263,2.617,2.617,0,0,0-.936.155,2.64,2.64,0,0,0-.81.516Q1.83-9.3,1.7-9.2a1.228,1.228,0,0,1-.253.155.628.628,0,0,1-.257.054A.837.837,0,0,1,.6-9.215.73.73,0,0,1,.36-9.774.909.909,0,0,1,.424-10.1a.769.769,0,0,1,.205-.3,4.752,4.752,0,0,1,1.319-.913,4,4,0,0,1,1.738-.364,3.84,3.84,0,0,1,1.576.318,2.721,2.721,0,0,1,1.13.891,2.179,2.179,0,0,1,.415,1.31v.137a1.9,1.9,0,0,1-.249.971,3.017,3.017,0,0,1-.628.761q-.379.332-1.067.83a6.328,6.328,0,0,0-.715.6,2.1,2.1,0,0,0-.438.624,1.22,1.22,0,0,1-.316.339A.783.783,0,0,1,2.928-4.766ZM1.775-3a.9.9,0,0,1,.15-.5,1.071,1.071,0,0,1,.4-.364,1.127,1.127,0,0,1,.541-.134,1.127,1.127,0,0,1,.541.134,1.04,1.04,0,0,1,.4.364.914.914,0,0,1,.146.5A.9.9,0,0,1,3.8-2.5a1.079,1.079,0,0,1-.4.364A1.1,1.1,0,0,1,2.865-2a1.1,1.1,0,0,1-.541-.137,1.113,1.113,0,0,1-.4-.364A.879.879,0,0,1,1.775-3Z" transform="translate(-0.36 11.672)" fill="#fff"/>
      </g>
    </g>
  </g>
</svg>
