<svg id="menu-icone" xmlns="http://www.w3.org/2000/svg" width="20" height="20" viewBox="0 0 20 20">
  <g id="Category" transform="translate(0 0)">
    <path id="Category-2" data-name="Category" d="M14.081,20a2.549,2.549,0,0,1-2.541-2.56V14.031a2.543,2.543,0,0,1,2.541-2.561h3.38A2.549,2.549,0,0,1,20,14.031v3.408A2.554,2.554,0,0,1,17.46,20ZM2.54,20A2.555,2.555,0,0,1,0,17.439V14.031A2.549,2.549,0,0,1,2.54,11.47H5.92a2.543,2.543,0,0,1,2.54,2.561v3.408A2.548,2.548,0,0,1,5.92,20ZM14.081,8.53A2.542,2.542,0,0,1,11.54,5.97V2.561A2.549,2.549,0,0,1,14.081,0h3.38A2.554,2.554,0,0,1,20,2.561V5.97a2.548,2.548,0,0,1-2.54,2.56ZM2.54,8.53A2.548,2.548,0,0,1,0,5.97V2.561A2.555,2.555,0,0,1,2.54,0H5.92A2.549,2.549,0,0,1,8.46,2.561V5.97A2.542,2.542,0,0,1,5.92,8.53Z" transform="translate(0 0)" fill="#ccea6c"/>
  </g>
  <rect id="Rectangle_14964" data-name="Rectangle 14964" width="20" height="20" transform="translate(0 0)" fill="#ccea6c" opacity="0"/>
</svg>
