<svg id="Group_29222" data-name="Group 29222" xmlns="http://www.w3.org/2000/svg" width="11" height="11" viewBox="0 0 11 11">
  <g id="Play" transform="translate(0 0)">
    <path id="Play-2" data-name="Play" d="M5.5,11A5.5,5.5,0,1,1,11,5.5,5.5,5.5,0,0,1,5.5,11ZM4.874,3.317a.736.736,0,0,0-.335.08.688.688,0,0,0-.3.329,3.473,3.473,0,0,0-.1.388A8.465,8.465,0,0,0,4.056,5.5a9.745,9.745,0,0,0,.08,1.342.6.6,0,0,1,.013.06,2.151,2.151,0,0,0,.114.422.665.665,0,0,0,.59.361h.021a1.753,1.753,0,0,0,.494-.149A8.1,8.1,0,0,0,7.485,6.092l.032-.032a2.167,2.167,0,0,0,.149-.17A.639.639,0,0,0,7.793,5.5a.669.669,0,0,0-.138-.415L7.62,5.051c-.035-.039-.089-.1-.14-.148A8.127,8.127,0,0,0,5.314,3.438,1.846,1.846,0,0,0,4.874,3.317Z" fill="#fff"/>
  </g>
</svg>
