<svg xmlns="http://www.w3.org/2000/svg" width="27" height="27" viewBox="0 0 27 27">
  <g id="Group_31925" data-name="Group 31925" transform="translate(-0.347)">
    <g id="Play" transform="translate(0.347)">
      <path id="Play-2" data-name="Play" d="M13.5,27A13.5,13.5,0,1,1,27,13.509,13.511,13.511,0,0,1,13.5,27ZM11.963,8.141a1.807,1.807,0,0,0-.821.2,1.69,1.69,0,0,0-.73.807,8.523,8.523,0,0,0-.234.951,20.777,20.777,0,0,0-.221,3.4,23.919,23.919,0,0,0,.2,3.3,1.481,1.481,0,0,1,.032.148,5.28,5.28,0,0,0,.28,1.037,1.633,1.633,0,0,0,1.447.886h.052a4.3,4.3,0,0,0,1.211-.365,19.881,19.881,0,0,0,5.2-3.543l.079-.078a5.32,5.32,0,0,0,.365-.417,1.567,1.567,0,0,0,.312-.949,1.643,1.643,0,0,0-.339-1.018L18.7,12.4c-.087-.095-.218-.238-.343-.363a19.949,19.949,0,0,0-5.317-3.6A4.53,4.53,0,0,0,11.963,8.141Z" fill="#d9f777"/>
    </g>
  </g>
</svg>
