<svg id="preferences" xmlns="http://www.w3.org/2000/svg" width="20" height="20" viewBox="0 0 20 20">
  <rect id="Rectangle_17091" data-name="Rectangle 17091" width="20" height="20" fill="none"/>
  <g id="Setting" transform="translate(0.612 -0.261)">
    <path id="Setting-2" data-name="Setting" d="M8.414,19a2.5,2.5,0,0,1-1.787-.739,2.339,2.339,0,0,1-.7-1.66l-.009-.14a1,1,0,0,0-.14-.4,1.06,1.06,0,0,0-.651-.492,1.075,1.075,0,0,0-.27-.035,1.17,1.17,0,0,0-.582.162l-.168.083a2.527,2.527,0,0,1-1.7.121A2.473,2.473,0,0,1,.923,14.746l-.6-1.024-.08-.151a2.409,2.409,0,0,1,.974-3.133l.1-.062A1.061,1.061,0,0,0,1.782,9.5a1.081,1.081,0,0,0-.569-.939l-.147-.092A2.409,2.409,0,0,1,.342,5.232l.615-.994a2.509,2.509,0,0,1,2.16-1.227,2.462,2.462,0,0,1,1.206.315l.126.066a1.022,1.022,0,0,0,.4.091A1.078,1.078,0,0,0,5.938,2.415l.008-.184A2.422,2.422,0,0,1,6.658.716,2.515,2.515,0,0,1,8.414,0h1.17a2.522,2.522,0,0,1,1.783.74,2.377,2.377,0,0,1,.7,1.709l.008.14a.972.972,0,0,0,.136.394,1.079,1.079,0,0,0,.924.522,1.154,1.154,0,0,0,.583-.163l.155-.079a2.511,2.511,0,0,1,3.209.992l.581.99a.726.726,0,0,1,.041.081l.054.106a2.424,2.424,0,0,1-.837,3.044l-.244.15a1.048,1.048,0,0,0-.313.338,1.034,1.034,0,0,0-.111.805,1.082,1.082,0,0,0,.53.66l.158.1a2.433,2.433,0,0,1,.974,1.366,2.386,2.386,0,0,1-.257,1.86l-.625,1.023-.094.144a2.51,2.51,0,0,1-2.048,1.052,2.437,2.437,0,0,1-1.2-.314l-.13-.066a1.11,1.11,0,0,0-.412-.095h-.007a1.068,1.068,0,0,0-1.075,1.1l-.008.163A2.482,2.482,0,0,1,9.583,19ZM5.493,14.239a2.46,2.46,0,0,1,1.5,1.129,2.363,2.363,0,0,1,.325.97l.019.336a1.076,1.076,0,0,0,1.079.951h1.17a1.071,1.071,0,0,0,1.08-.952l.005-.1a2.43,2.43,0,0,1,.726-1.732,2.5,2.5,0,0,1,1.765-.712h.014a2.564,2.564,0,0,1,.992.229l.3.15a1.107,1.107,0,0,0,.44.091,1.06,1.06,0,0,0,.87-.434l.069-.105.61-1a1.049,1.049,0,0,0-.287-1.383l-.258-.161A2.432,2.432,0,0,1,14.9,10.125a2.407,2.407,0,0,1,.251-1.848,2.46,2.46,0,0,1,.751-.8l.152-.094A1.051,1.051,0,0,0,16.5,6.041l-.067-.127-.012-.027-.554-.946a1.1,1.1,0,0,0-.945-.539,1.032,1.032,0,0,0-.324.051l-.1.042-.1.049a2.521,2.521,0,0,1-1.879.258,2.486,2.486,0,0,1-1.512-1.121,2.363,2.363,0,0,1-.325-.97l-.012-.239a1.062,1.062,0,0,0-.307-.775,1.1,1.1,0,0,0-.776-.322H8.414a1.08,1.08,0,0,0-.763.311,1.049,1.049,0,0,0-.309.628l-.013.29a2.463,2.463,0,0,1-3.5,2.022L3.65,4.532a1.093,1.093,0,0,0-.536-.141,1.11,1.11,0,0,0-.952.548l-.615.993a1.046,1.046,0,0,0,.295,1.392l.247.154A2.424,2.424,0,0,1,3.181,9.5a2.454,2.454,0,0,1-1.095,2.023l-.147.091a1.041,1.041,0,0,0-.448,1.342l.053.1.6,1.011a1.077,1.077,0,0,0,.652.509,1.141,1.141,0,0,0,.3.041,1.028,1.028,0,0,0,.409-.081l.1-.05a2.5,2.5,0,0,1,1.882-.248ZM5.843,9.5A3.161,3.161,0,1,1,9,12.605,3.136,3.136,0,0,1,5.843,9.5Zm1.4,0A1.76,1.76,0,1,0,9,7.771,1.747,1.747,0,0,0,7.243,9.5Z" transform="translate(0.388 0.261)" fill="#fff"/>
  </g>
</svg>
