<svg xmlns="http://www.w3.org/2000/svg" width="13.004" height="13.004" viewBox="0 0 13.004 13.004">
  <g id="Group_31783" data-name="Group 31783" transform="translate(158.004 1211.809) rotate(90)">
    <rect id="Rectangle_17322" data-name="Rectangle 17322" width="13.004" height="12.589" transform="translate(-1211.809 145.207)" fill="none"/>
    <g id="Group_29993" data-name="Group 29993" transform="translate(-1210.898 145)">
      <path id="Union_204" data-name="Union 204" d="M2.5,6.659.17,4.4a.56.56,0,0,1,0-.8L2.448,1.384a.559.559,0,0,1,.778.8L1.986,3.39H6.972A2,2,0,0,0,8.959,1.376V.559a.552.552,0,1,1,1.1,0v.817A3.115,3.115,0,0,1,6.972,4.508H1.892L3.283,5.857a.559.559,0,1,1-.778.8Z" transform="translate(1.118 6.186)" fill="#fff"/>
      <path id="Union_203" data-name="Union 203" d="M0,6.258V5.441A3.115,3.115,0,0,1,3.092,2.31H8.731L7.34.961a.559.559,0,0,1,.778-.8l2.335,2.264a.559.559,0,0,1,0,.8L8.174,5.434a.559.559,0,0,1-.778-.8l1.24-1.2H3.092A2,2,0,0,0,1.1,5.441v.817a.556.556,0,0,1-.552.559A.556.556,0,0,1,0,6.258Z" transform="translate(0 0)" fill="#fff"/>
    </g>
  </g>
</svg>
