<svg xmlns="http://www.w3.org/2000/svg" width="11.579" height="11" viewBox="0 0 11.579 11">
  <path id="Path" d="M2.756,11a.878.878,0,0,1-.775-.463.864.864,0,0,1-.093-.55L2.4,7.1A.024.024,0,0,0,2.4,7.081L.255,5.019A.846.846,0,0,1,0,4.416a.892.892,0,0,1,.267-.637.953.953,0,0,1,.481-.232l2.924-.423c.012,0,.024-.005.024-.017L5,.486a.876.876,0,0,1,1.569,0L7.88,3.115c.006.006.012.012.017.012l2.931.423a.89.89,0,0,1,.579.336.865.865,0,0,1-.093,1.141L9.189,7.081s0,0,0,.006,0,0,0,.006l.509,2.9a.874.874,0,0,1-.724.99.988.988,0,0,1-.137.01.862.862,0,0,1-.412-.1L5.808,9.524a.041.041,0,0,0-.023.006L3.149,10.907A.867.867,0,0,1,2.756,11Z" fill="#020f11"/>
</svg>
