<svg xmlns="http://www.w3.org/2000/svg" width="175.002" height="68" viewBox="0 0 175.002 68">
  <g id="Aideprojet-logo-academy" transform="translate(23129 23776.051)">
    <rect id="Rectangle_17162" data-name="Rectangle 17162" width="175" height="68" transform="translate(-23129 -23776.051)" fill="none" opacity="0.17"/>
    <g id="Group_30839" data-name="Group 30839" transform="translate(-23129 -23766.607)">
      <g id="Group_30841" data-name="Group 30841">
        <path id="Path_29222" data-name="Path 29222" d="M20.679,6.642h0a1.714,1.714,0,0,1,1.714-1.714h1.162a1.714,1.714,0,1,1,0,3.427H22.393a1.714,1.714,0,0,1-1.714-1.714m.089,18.849V10.62H25.21l.028,14.87Z" transform="translate(17.742 4.563)" fill="#fff"/>
        <path id="Path_29223" data-name="Path 29223" d="M33.186,26.268a12.661,12.661,0,0,1-3.231-.387,6.407,6.407,0,0,1-2.548-1.3A6.021,6.021,0,0,1,25.723,22.1a10.975,10.975,0,0,1-.613-3.935,8.627,8.627,0,0,1,1.8-5.779,6.709,6.709,0,0,1,5.409-2.116q.478,0,1.252.075a6.785,6.785,0,0,1,1.611.371,3.735,3.735,0,0,1,1.488,1.013L35.78,13.1V4.544h4.41V21.886a3.184,3.184,0,0,1-.6,1.924A4.647,4.647,0,0,1,38,25.166a8.873,8.873,0,0,1-2.25.82,11.6,11.6,0,0,1-2.563.283m.181-3.725a4.552,4.552,0,0,0,1.743-.283.917.917,0,0,0,.671-.849V14.467a5.154,5.154,0,0,0-1.147-.462,4.522,4.522,0,0,0-1.177-.164,4.834,4.834,0,0,0-2.118.417,2.68,2.68,0,0,0-1.294,1.4,6.7,6.7,0,0,0-.434,2.652,6.327,6.327,0,0,0,.359,2.25,2.912,2.912,0,0,0,1.177,1.46,4.109,4.109,0,0,0,2.22.522" transform="translate(21.536 4.049)" fill="#fff"/>
        <path id="Path_29224" data-name="Path 29224" d="M42.863,23.633a8.313,8.313,0,0,1-4.006-.939,6.644,6.644,0,0,1-2.712-2.682,8.431,8.431,0,0,1-.97-4.157,8.779,8.779,0,0,1,1.952-6.094A7.141,7.141,0,0,1,42.714,7.6a6.908,6.908,0,0,1,4.038,1.073A6.132,6.132,0,0,1,49,11.8a14.824,14.824,0,0,1,.685,5.008H38.215l-.477-2.833h8.284l-.654,1.4a6.608,6.608,0,0,0-.685-3.4A2.4,2.4,0,0,0,42.536,11a2.782,2.782,0,0,0-1.5.415A2.7,2.7,0,0,0,39.988,12.8a7.667,7.667,0,0,0-.373,2.667,4.824,4.824,0,0,0,1.03,3.308,4.184,4.184,0,0,0,3.291,1.162,7.193,7.193,0,0,0,1.654-.194,12.494,12.494,0,0,0,1.535-.462q.715-.271,1.222-.477v3.814a13.685,13.685,0,0,1-2.4.73,14.926,14.926,0,0,1-3.084.283" transform="translate(30.169 6.798)" fill="#fff"/>
        <path id="Path_29225" data-name="Path 29225" d="M53.085,23.633c-.3,0-.734-.032-1.311-.089a8.1,8.1,0,0,1-1.788-.4,4.025,4.025,0,0,1-1.579-.967l.894-1.4v7.808H44.95V11.3a2.53,2.53,0,0,1,.568-1.671,4.221,4.221,0,0,1,1.55-1.131,9.3,9.3,0,0,1,2.278-.671A16.415,16.415,0,0,1,52.132,7.6a9.7,9.7,0,0,1,3.978.76,5.584,5.584,0,0,1,2.684,2.548,10.349,10.349,0,0,1,.967,4.887,9.8,9.8,0,0,1-.8,4.1,6.392,6.392,0,0,1-2.28,2.757,6.324,6.324,0,0,1-3.591.983m-1.311-3.576a4.122,4.122,0,0,0,1.969-.419,2.641,2.641,0,0,0,1.175-1.386,6.913,6.913,0,0,0,.4-2.606,7.861,7.861,0,0,0-.3-2.324,2.747,2.747,0,0,0-1.028-1.475,3.459,3.459,0,0,0-2.039-.522,5.249,5.249,0,0,0-2.043.283q-.612.282-.611.728v7.094a4.364,4.364,0,0,0,1.253.477,5.735,5.735,0,0,0,1.22.149" transform="translate(38.552 7.063)" fill="#fff"/>
        <path id="Path_29226" data-name="Path 29226" d="M54.887,23.158V9.658a6.265,6.265,0,0,1,1.492-.82A17.886,17.886,0,0,1,58.836,8a10.641,10.641,0,0,1,2.786-.373,9.166,9.166,0,0,1,2.207.209,3.339,3.339,0,0,1,1.22.536v3.248a8.727,8.727,0,0,0-1.28-.179c-.518-.041-1.054-.063-1.611-.075s-1.082,0-1.578.015a9.312,9.312,0,0,0-1.252.119V23.158Z" transform="translate(47.082 6.944)" fill="#fff"/>
        <path id="Path_29227" data-name="Path 29227" d="M68.978,23.632q-3.813,0-5.737-2.041t-1.922-6q0-4.26,1.952-6.124A7.967,7.967,0,0,1,68.978,7.6a9.52,9.52,0,0,1,4.247.849,5.63,5.63,0,0,1,2.593,2.608,10.149,10.149,0,0,1,.879,4.53q0,3.964-2,6a7.642,7.642,0,0,1-5.722,2.041m0-3.546a3.067,3.067,0,0,0,1.833-.522,3.169,3.169,0,0,0,1.1-1.52,7.093,7.093,0,0,0,.373-2.459,7.561,7.561,0,0,0-.373-2.637,2.649,2.649,0,0,0-1.118-1.4,3.582,3.582,0,0,0-1.818-.432,3.44,3.44,0,0,0-1.848.447,2.646,2.646,0,0,0-1.06,1.416,8.087,8.087,0,0,0-.341,2.608,5.877,5.877,0,0,0,.79,3.382,2.8,2.8,0,0,0,2.459,1.118" transform="translate(52.59 6.797)" fill="#fff"/>
        <path id="Path_29228" data-name="Path 29228" d="M70.583,31.338V27.732a2.883,2.883,0,0,0,1.356-.119,1.453,1.453,0,0,0,.775-.685,2.614,2.614,0,0,0,.253-1.222v-15.2h4.44l.06,15.2a5.66,5.66,0,0,1-.9,3.382,4.729,4.729,0,0,1-2.442,1.743,11.429,11.429,0,0,1-3.546.507M72.878,6.53h0a1.714,1.714,0,0,1,1.714-1.714h1.19a1.714,1.714,0,0,1,0,3.427h-1.19A1.714,1.714,0,0,1,72.878,6.53" transform="translate(60.553 4.662)" fill="#fff"/>
        <path id="Path_29229" data-name="Path 29229" d="M83.951,23.633a8.313,8.313,0,0,1-4.006-.939,6.644,6.644,0,0,1-2.712-2.682,8.431,8.431,0,0,1-.97-4.157,8.779,8.779,0,0,1,1.952-6.094A7.141,7.141,0,0,1,83.8,7.6,6.908,6.908,0,0,1,87.84,8.673,6.132,6.132,0,0,1,90.09,11.8a14.824,14.824,0,0,1,.685,5.008H79.3l-.477-2.833H87.11l-.654,1.4a6.608,6.608,0,0,0-.685-3.4A2.4,2.4,0,0,0,83.624,11a2.782,2.782,0,0,0-1.5.415A2.7,2.7,0,0,0,81.076,12.8a7.667,7.667,0,0,0-.372,2.667,4.824,4.824,0,0,0,1.03,3.308,4.184,4.184,0,0,0,3.291,1.162,7.193,7.193,0,0,0,1.654-.194,12.5,12.5,0,0,0,1.535-.462q.715-.271,1.222-.477v3.814a13.684,13.684,0,0,1-2.4.73,14.926,14.926,0,0,1-3.084.283" transform="translate(65.36 6.798)" fill="#fff"/>
        <path id="Path_29230" data-name="Path 29230" d="M1.546,19.086H8.6l2.621-6.338H4.372Z" transform="translate(1.334 11.409)" fill="#d9f777"/>
        <path id="Path_29231" data-name="Path 29231" d="M0,15.185H5.7l2.33-5.263H2.347Z" transform="translate(0 8.868)" fill="#5e55f2"/>
        <path id="Path_29232" data-name="Path 29232" d="M16.916,0h-2.87a3.033,3.033,0,0,0-2.768,1.8L4.322,18.48H8.429a2.984,2.984,0,0,0,2.757-1.842l4.252-9.881,4.746,11.41-2.65-.019a1.991,1.991,0,0,0-1.883,1.339L14.3,23.376l7.709.019,1.749,3.855a4.044,4.044,0,0,0,3.738,2.5h3.975L19.682,1.794A3.029,3.029,0,0,0,16.916,0" transform="translate(3.728)" fill="#d9f777"/>
        <path id="Path_29233" data-name="Path 29233" d="M90.839,15.827h4.423l1.8-4.081H92.659Z" transform="translate(77.932 10.485)" fill="#5e55f2"/>
        <path id="Path_29234" data-name="Path 29234" d="M92.773,25.466a5.437,5.437,0,0,1-3.9-1.237,4.635,4.635,0,0,1-1.281-3.5V13.186H85.383v-3.4h2.205V5.647h1.781a2.87,2.87,0,0,1,2.868,2.868V9.791h3.308v3.4H92.237V20.16a1.707,1.707,0,0,0,.328,1.149,1.4,1.4,0,0,0,1.1.373,3.533,3.533,0,0,0,1.879-.626V24.87a4.78,4.78,0,0,1-1.356.462,7.847,7.847,0,0,1-1.416.134" transform="translate(73.226 5.379)" fill="#fff"/>
      </g>
    </g>
    <path id="Path_29241" data-name="Path 29241" d="M6.943-3.224h-4L1.83-.755H.448L5-10.542h.086L9.636-.755H8.023ZM6.468-4.316,4.984-7.747,3.443-4.316Zm13.638,2.86A6.507,6.507,0,0,1,18.831-.9a5.34,5.34,0,0,1-1.678.253,5.985,5.985,0,0,1-2.815-.637A4.658,4.658,0,0,1,12.465-3a4.494,4.494,0,0,1-.655-2.379,4.792,4.792,0,0,1,.662-2.5,4.657,4.657,0,0,1,1.836-1.742,5.525,5.525,0,0,1,2.657-.63,6.224,6.224,0,0,1,1.642.208,6.062,6.062,0,0,1,1.368.546l-.562,1.183a4.585,4.585,0,0,0-2.4-.728,3.747,3.747,0,0,0-1.865.481A3.728,3.728,0,0,0,13.776-7.26a3.377,3.377,0,0,0-.511,1.813,3.627,3.627,0,0,0,.468,1.833,3.263,3.263,0,0,0,1.339,1.28,4.228,4.228,0,0,0,2.009.461,4.181,4.181,0,0,0,2.434-.715ZM29.35-3.224h-4L24.238-.755H22.856l4.551-9.787h.086L32.043-.755H30.43Zm-.475-1.092L27.392-7.747,25.851-4.316Zm6.552-5.836h2.851a6.667,6.667,0,0,1,3.219.7,4.419,4.419,0,0,1,1.858,1.794,4.878,4.878,0,0,1,.583,2.32,4.21,4.21,0,0,1-.706,2.411A4.649,4.649,0,0,1,41.346-1.32a5.858,5.858,0,0,1-2.563.565H35.427Zm3.082,8.176a4.955,4.955,0,0,0,2.059-.409,3.249,3.249,0,0,0,1.418-1.189A3.314,3.314,0,0,0,42.5-5.434a3.322,3.322,0,0,0-.533-1.9,3.386,3.386,0,0,0-1.418-1.2,4.492,4.492,0,0,0-1.908-.409H36.824v6.967Zm15.985-8.176v1.209H49.123v2.86h4.8v1.209h-4.8v2.9H54.7V-.755h-6.97v-9.4Zm14.43-.3v9.7H67.541V-6.838l-3.831,4.9h-.029L59.923-6.669V-.755H58.569v-9.7h.014L63.71-3.9l5.2-6.551Zm12.5.3-3.9,6.265V-.755h-1.4V-3.887l-3.859-6.265h1.728l2.866,4.835,2.851-4.835Z" transform="translate(-23035.422 -23716.844)" fill="#d9f777"/>
    <path id="Path_29242" data-name="Path 29242" d="M0,10.967H9.985l1.148-1.045H1.156Z" transform="translate(-23039.803 -23731.055)" fill="#d9f777"/>
  </g>
</svg>
