<svg xmlns="http://www.w3.org/2000/svg" width="35.557" height="40.001" viewBox="0 0 35.557 40.001">
  <path id="cadnas-icone-noir" d="M64.594,21.334H58.668V16.889a8.889,8.889,0,0,0-17.778,0v4.445H34.963A2.963,2.963,0,0,0,32,24.3V45.038A2.963,2.963,0,0,0,34.963,48H64.594a2.963,2.963,0,0,0,2.963-2.963V24.3A2.963,2.963,0,0,0,64.594,21.334ZM43.852,16.889a5.926,5.926,0,1,1,11.852,0v4.445H43.852ZM64.594,45.038H34.963V24.3H64.594ZM52,34.668a2.222,2.222,0,1,1-2.222-2.222A2.222,2.222,0,0,1,52,34.668Z" transform="translate(-32 -8)" fill="#020f11"/>
</svg>
