<svg xmlns="http://www.w3.org/2000/svg" width="80" height="80" viewBox="0 0 80 80">
  <g id="cercle-telephone" transform="translate(-330 -2399)">
    <circle id="Ellipse_695" data-name="Ellipse 695" cx="40" cy="40" r="40" transform="translate(330 2399)" fill="#7971f5" opacity="0.2"/>
    <path id="phone-call" d="M52.446,26.369a1.36,1.36,0,0,1,1.666-.962A14.658,14.658,0,0,1,64.595,35.889a1.36,1.36,0,0,1-.962,1.666,1.4,1.4,0,0,1-.352.046,1.36,1.36,0,0,1-1.314-1.01,11.96,11.96,0,0,0-8.556-8.556,1.36,1.36,0,0,1-.964-1.666Zm-.4,7.106a5.951,5.951,0,0,1,4.476,4.476,1.36,1.36,0,0,0,1.314,1.01,1.4,1.4,0,0,0,.352-.046,1.36,1.36,0,0,0,.962-1.666,8.728,8.728,0,0,0-6.4-6.4,1.36,1.36,0,0,0-.7,2.628Zm13.93,16.21A9.564,9.564,0,0,1,56.48,58,24.509,24.509,0,0,1,32,33.521a9.564,9.564,0,0,1,8.317-9.5,2.72,2.72,0,0,1,2.825,1.618l3.59,8.016v.02a2.72,2.72,0,0,1-.216,2.565c-.031.046-.063.088-.1.131l-3.539,4.2a15.678,15.678,0,0,0,6.6,6.547l4.138-3.521a1.381,1.381,0,0,1,.127-.1,2.72,2.72,0,0,1,2.579-.238l.022.01,8.009,3.589A2.72,2.72,0,0,1,65.98,49.685Zm-2.7-.34h-.019l-7.99-3.579-4.14,3.521a1.435,1.435,0,0,1-.126.1,2.72,2.72,0,0,1-2.678.194,18.363,18.363,0,0,1-7.9-7.839,2.72,2.72,0,0,1,.17-2.669,1.042,1.042,0,0,1,.1-.131l3.543-4.2-3.57-7.99a.1.1,0,0,1,0-.02,6.834,6.834,0,0,0-5.95,6.8,21.784,21.784,0,0,0,21.76,21.76,6.836,6.836,0,0,0,6.8-5.938Z" transform="translate(321 2397.998)"/>
  </g>
</svg>
