<svg xmlns="http://www.w3.org/2000/svg" xmlns:xlink="http://www.w3.org/1999/xlink" width="80" height="80" viewBox="0 0 80 80">
  <defs>
    <clipPath id="clip-path">
      <rect id="Rectangle_17032" data-name="Rectangle 17032" width="32" height="34" fill="#020f11"/>
    </clipPath>
  </defs>
  <g id="cercle-personnalisation" transform="translate(-330 -1937)">
    <circle id="Ellipse_715" data-name="Ellipse 715" cx="40" cy="40" r="40" transform="translate(330 1937)" fill="#7971f5" opacity="0.2"/>
    <g id="Group_31200" data-name="Group 31200" transform="translate(354 1960)">
      <g id="Group_30427" data-name="Group 30427" transform="translate(0 0)" clip-path="url(#clip-path)">
        <path id="Path_28675" data-name="Path 28675" d="M15.258.007a16.646,16.646,0,0,1,11.795,5l.122.124a17.358,17.358,0,0,1-.122,24.147C22.113,34.3,14.919,35.4,8.271,32.173a5.318,5.318,0,0,1-2.444-7.044,5.265,5.265,0,0,1,1.012-1.453,2.671,2.671,0,0,0,0-3.734L1.531,14.551A5.312,5.312,0,0,1,.806,8.007a17.157,17.157,0,0,1,2.456-3.1A16.639,16.639,0,0,1,15.257,0ZM3,9.422a2.656,2.656,0,0,0,.363,3.262l5.308,5.393a5.343,5.343,0,0,1,0,7.469,2.669,2.669,0,0,0,0,3.733,2.575,2.575,0,0,0,.712.511c5.624,2.734,11.688,1.823,15.823-2.378a14.688,14.688,0,0,0,.1-20.433l-.1-.1A14.151,14.151,0,0,0,4.978,6.9,14.521,14.521,0,0,0,3,9.418Zm16.7.254a2,2,0,0,0,0,2.8,1.929,1.929,0,0,0,2.758,0,2,2,0,0,0,0-2.8h0a1.928,1.928,0,0,0-2.757,0M22,17.611a2,2,0,0,0,0,2.8,1.929,1.929,0,0,0,2.758,0,2,2,0,0,0,0-2.8,1.928,1.928,0,0,0-2.757,0Zm-6.432,6.535a2,2,0,0,0,0,2.8,1.929,1.929,0,0,0,2.758,0,2,2,0,0,0,0-2.8,1.927,1.927,0,0,0-2.756,0h0Zm-3.675-16.8a2,2,0,0,0,0,2.8,1.929,1.929,0,0,0,2.758,0,2,2,0,0,0,0-2.8,1.928,1.928,0,0,0-2.757,0h0" transform="translate(0 0)" fill="#020f11"/>
      </g>
    </g>
  </g>
</svg>
