<svg xmlns="http://www.w3.org/2000/svg" width="80" height="80" viewBox="0 0 80 80">
  <g id="cercle-savoir-faire" transform="translate(-330 -2104)">
    <circle id="Ellipse_681" data-name="Ellipse 681" cx="40" cy="40" r="40" transform="translate(330 2104)" fill="#7971f5" opacity="0.2"/>
    <path id="medal" d="M71.5,23.7a15.751,15.751,0,1,0-25.774,12.14V49.474A1.432,1.432,0,0,0,47.8,50.756l7.95-3.966L63.7,50.765a1.447,1.447,0,0,0,2.071-1.29V35.841A15.724,15.724,0,0,0,71.5,23.7Zm-28.637,0A12.887,12.887,0,1,1,55.746,36.587,12.887,12.887,0,0,1,42.86,23.7ZM62.906,47.158,56.385,43.9a1.432,1.432,0,0,0-1.282,0l-6.517,3.259V37.727a15.731,15.731,0,0,0,14.319,0ZM55.746,33.724A10.023,10.023,0,1,0,45.723,23.7,10.023,10.023,0,0,0,55.746,33.724Zm0-17.182A7.159,7.159,0,1,1,48.587,23.7,7.159,7.159,0,0,1,55.746,16.541Z" transform="translate(314.049 2114.393)" fill="#020f11"/>
  </g>
</svg>
