<svg xmlns="http://www.w3.org/2000/svg" width="80" height="80" viewBox="0 0 80 80">
  <g id="cercle-lien" transform="translate(-330 -2075)">
    <circle id="Ellipse_696" data-name="Ellipse 696" cx="40" cy="40" r="40" transform="translate(330 2075)" fill="#ccea6c" opacity="0.2"/>
    <path id="link" d="M48.448,56.09a1.249,1.249,0,0,1,0,1.766L46.9,59.418a8.752,8.752,0,1,1-12.375-12.38l3.768-3.767a8.749,8.749,0,0,1,12-.356,1.252,1.252,0,1,1-1.662,1.874,6.249,6.249,0,0,0-8.568.255l-3.768,3.762a6.249,6.249,0,1,0,8.838,8.836L46.68,56.09a1.25,1.25,0,0,1,1.768,0ZM59.395,34.537a8.761,8.761,0,0,0-12.375,0l-1.553,1.554a1.25,1.25,0,0,0,1.768,1.766l1.553-1.552a6.249,6.249,0,1,1,8.838,8.836l-3.768,3.77a6.249,6.249,0,0,1-8.568.25,1.252,1.252,0,1,0-1.662,1.874,8.749,8.749,0,0,0,12-.353l3.768-3.767a8.757,8.757,0,0,0,0-12.375Z" transform="translate(323.045 2068.02)" fill="#020f11"/>
  </g>
</svg>
