<svg xmlns="http://www.w3.org/2000/svg" width="80" height="80" viewBox="0 0 80 80">
  <g id="cercle-retour-investissement" transform="translate(-330 -2271)">
    <circle id="Ellipse_682" data-name="Ellipse 682" cx="40" cy="40" r="40" transform="translate(330 2271)" fill="#7971f5" opacity="0.2"/>
    <path id="arrows-clockwise" d="M59.406,57.537a1.323,1.323,0,0,1,0,1.868,17.129,17.129,0,0,1-11.525,4.357c-6.185,0-10.675-3.706-13.234-6.592v3.945a1.323,1.323,0,1,1-2.647,0v-7.94a1.323,1.323,0,0,1,1.323-1.323h7.94a1.323,1.323,0,1,1,0,2.647H35.878c2.038,2.539,6.213,6.617,12,6.617a14.672,14.672,0,0,0,9.654-3.586A1.323,1.323,0,0,1,59.406,57.537Zm3.032-24.213a1.323,1.323,0,0,0-1.323,1.323v3.945C58.556,35.706,54.066,32,47.881,32a17.118,17.118,0,0,0-11.524,4.357,1.324,1.324,0,1,0,1.869,1.876,14.672,14.672,0,0,1,9.654-3.586c5.79,0,9.965,4.078,12,6.617H54.5a1.323,1.323,0,1,0,0,2.647h7.94a1.323,1.323,0,0,0,1.323-1.323v-7.94A1.323,1.323,0,0,0,62.438,33.323Z" transform="translate(322.119 2263.119)" fill="#020f11"/>
  </g>
</svg>
