<svg xmlns="http://www.w3.org/2000/svg" width="80" height="80" viewBox="0 0 80 80">
  <g id="cercle-page" transform="translate(-330 -1876)">
    <circle id="Ellipse_693" data-name="Ellipse 693" cx="40" cy="40" r="40" transform="translate(330 1876)" fill="#ccea6c" opacity="0.2"/>
    <path id="file" d="M67.628,33.536l-8.909-9.154a1.256,1.256,0,0,0-.9-.382H42.545A2.581,2.581,0,0,0,40,26.615V55.385A2.581,2.581,0,0,0,42.545,58H65.455A2.581,2.581,0,0,0,68,55.385V34.462A1.326,1.326,0,0,0,67.628,33.536Zm-8.537-5.072,4.564,4.69H59.091Zm6.364,26.92H42.545V26.615h14v7.846a1.291,1.291,0,0,0,1.273,1.308h7.636Z" transform="translate(316 1875)"/>
  </g>
</svg>
