<svg xmlns="http://www.w3.org/2000/svg" width="80" height="80" viewBox="0 0 80 80">
  <g id="cercle-fleche-haut" transform="translate(-330 -1936)">
    <circle id="Ellipse_693" data-name="Ellipse 693" cx="40" cy="40" r="40" transform="translate(330 1936)" fill="#ccea6c" opacity="0.2"/>
    <path id="arrow-fat-lines-up" d="M57.611,32.069,41.919,16.377a1.308,1.308,0,0,0-1.85,0L24.377,32.069A1.308,1.308,0,0,0,25.3,34.3h6.538v3.923a1.308,1.308,0,0,0,1.308,1.308H48.84a1.308,1.308,0,0,0,1.308-1.308V34.3h6.538a1.308,1.308,0,0,0,.925-2.233Zm-8.771-.382a1.308,1.308,0,0,0-1.308,1.308v3.923H34.456V32.994a1.308,1.308,0,0,0-1.308-1.308h-4.69L40.994,19.151,53.53,31.687Zm1.308,17a1.308,1.308,0,0,1-1.308,1.308H33.148a1.308,1.308,0,1,1,0-2.615H48.84A1.308,1.308,0,0,1,50.148,48.686Zm0-5.231a1.308,1.308,0,0,1-1.308,1.308H33.148a1.308,1.308,0,1,1,0-2.615H48.84A1.308,1.308,0,0,1,50.148,43.456Z" transform="translate(329.006 1943.006)"/>
  </g>
</svg>
