<svg xmlns="http://www.w3.org/2000/svg" width="80" height="80" viewBox="0 0 80 80">
  <g id="cercle-tranquilite" transform="translate(-330 -2168)">
    <circle id="Ellipse_694" data-name="Ellipse 694" cx="40" cy="40" r="40" transform="translate(330 2168)" fill="#7971f5" opacity="0.2"/>
    <path id="anchor-simple" d="M64.385,48.264H59.538a1.625,1.625,0,0,0,0,3.25H62.7A17.854,17.854,0,0,1,46.615,67.691V44.811a6.466,6.466,0,1,0-3.231,0v22.88A17.854,17.854,0,0,1,27.3,51.514h3.158a1.625,1.625,0,0,0,0-3.25H25.615A1.62,1.62,0,0,0,24,49.889a21,21,0,1,0,42,0A1.62,1.62,0,0,0,64.385,48.264ZM41.769,38.513A3.231,3.231,0,1,1,45,41.764,3.241,3.241,0,0,1,41.769,38.513Z" transform="translate(325 2157.983)"/>
  </g>
</svg>
