<svg id="Group_29202" data-name="Group 29202" xmlns="http://www.w3.org/2000/svg" width="187" height="187" viewBox="0 0 187 187">
  <g id="Group_29197" data-name="Group 29197">
    <path id="Union_187" data-name="Union 187" d="M0,91.994a91.992,91.992,0,1,1,91.99,91.989A92.1,92.1,0,0,1,0,91.994ZM63.526,24.609A72.632,72.632,0,0,0,51.107,31.35a73.411,73.411,0,0,0-26.5,32.174A73.137,73.137,0,0,0,143.7,143.7a73.528,73.528,0,0,0,8.929-10.825,73.028,73.028,0,0,0,0-81.773,73.339,73.339,0,0,0-32.173-26.5,73.384,73.384,0,0,0-56.934,0Z" transform="translate(1.508 1.508)" fill="#ccea6c" opacity="0.099"/>
    <path id="Path_27344" data-name="Path 27344" d="M81.5,175A93.606,93.606,0,0,1-12,81.5a12.007,12.007,0,1,1,24.014,0A69.486,69.486,0,1,0,81.5,12.014,12.007,12.007,0,0,1,81.5-12a93.5,93.5,0,0,1,0,187Z" transform="translate(12 12)" fill="#ccea6c"/>
  </g>
  <text id="_75_" data-name="75%" transform="translate(94 105)" fill="#fff" font-size="32" font-family="Degular-Bold, Degular" font-weight="700"><tspan x="-29.584" y="0">75%</tspan></text>
</svg>
