<svg xmlns="http://www.w3.org/2000/svg" width="80" height="80" viewBox="0 0 80 80">
  <g id="Group_31334" data-name="Group 31334" transform="translate(-330 -2175.709)">
    <circle id="Ellipse_696" data-name="Ellipse 696" cx="40" cy="40" r="40" transform="translate(330 2175.709)" fill="#7971f5" opacity="0.2"/>
    <path id="intersect-three" d="M49.451,34.982c.011-.2.018-.4.018-.61a10.372,10.372,0,1,0-20.743,0c0,.2,0,.4.018.61A10.372,10.372,0,1,0,39.1,52.926,10.372,10.372,0,1,0,49.451,34.982ZM39.1,49.848a7.914,7.914,0,0,1-2.44-5.4,10.3,10.3,0,0,0,4.865,0A7.914,7.914,0,0,1,39.1,49.848Zm0-7.545a7.921,7.921,0,0,1-2.148-.3A7.94,7.94,0,0,1,39.1,38.418a7.94,7.94,0,0,1,2.148,3.587A7.92,7.92,0,0,1,39.1,42.3ZM34.71,40.974a7.96,7.96,0,0,1-3.25-4.467,7.913,7.913,0,0,1,5.611.5,10.4,10.4,0,0,0-2.361,3.967ZM41.125,37a7.913,7.913,0,0,1,5.611-.493,7.96,7.96,0,0,1-3.25,4.475A10.4,10.4,0,0,0,41.125,37ZM39.1,26.44a7.94,7.94,0,0,1,7.931,7.612A10.329,10.329,0,0,0,39.1,35.34a10.329,10.329,0,0,0-7.924-1.287A7.94,7.94,0,0,1,39.1,26.44ZM25.676,44.133a7.931,7.931,0,0,1,3.543-6.6,10.426,10.426,0,0,0,5.016,5.993c-.011.2-.018.4-.018.61a10.332,10.332,0,0,0,2.854,7.133,7.931,7.931,0,0,1-11.395-7.133Zm18.913,7.931a7.878,7.878,0,0,1-3.464-.8,10.332,10.332,0,0,0,2.854-7.133c0-.2-.008-.4-.018-.61a10.426,10.426,0,0,0,5.016-6,7.931,7.931,0,0,1-4.388,14.54Z" transform="translate(330.902 2176.416)"/>
  </g>
</svg>
