<svg xmlns="http://www.w3.org/2000/svg" width="44" height="44" viewBox="0 0 44 44">
  <path id="etoiles-icone" d="M50.437,30.956l-9.788-3.6-3.6-9.794a3.019,3.019,0,0,0-5.667,0l-3.607,9.783-9.8,3.6a3.019,3.019,0,0,0,0,5.666l9.782,3.626,3.6,9.788a3.019,3.019,0,0,0,5.667,0l3.6-9.786,9.8-3.6a3.019,3.019,0,0,0,0-5.666ZM39.591,37.391A3.01,3.01,0,0,0,37.8,39.18l-3.6,9.758-3.6-9.766a3.01,3.01,0,0,0-1.781-1.781h0l-9.76-3.6,9.76-3.6A3.01,3.01,0,0,0,30.6,28.405l3.6-9.758,3.6,9.758A3.01,3.01,0,0,0,39.6,30.193l9.76,3.6Zm.685-23.324a1.517,1.517,0,0,1,1.517-1.517h3.034V9.517a1.517,1.517,0,0,1,3.034,0v3.034H50.9a1.517,1.517,0,1,1,0,3.034H47.861v3.034a1.517,1.517,0,0,1-3.034,0V15.585H41.792A1.517,1.517,0,0,1,40.275,14.068ZM60,23.17a1.517,1.517,0,0,1-1.517,1.517H56.965V26.2a1.517,1.517,0,0,1-3.034,0V24.687H52.413a1.517,1.517,0,1,1,0-3.034H53.93V20.136a1.517,1.517,0,0,1,3.034,0v1.517h1.517A1.517,1.517,0,0,1,60,23.17Z" transform="translate(-15.999 -8)" fill="#1a2628"/>
</svg>
