<svg xmlns="http://www.w3.org/2000/svg" width="28" height="18" viewBox="0 0 28 18">
  <g id="fleche-alongee" transform="translate(28 18) rotate(180)">
    <path id="fleche-gauche-16x16" d="M9,0,.257,8.588a.843.843,0,0,0-.233.8.829.829,0,0,0,.569.6.79.79,0,0,0,.8-.206L8.182,3.121V27.152a.846.846,0,0,0,.406.735.809.809,0,0,0,.824,0,.846.846,0,0,0,.406-.735V3.121L16.612,9.79a.79.79,0,0,0,.8.206.829.829,0,0,0,.569-.6.843.843,0,0,0-.233-.8Z" transform="translate(28) rotate(90)" fill="#020f11"/>
  </g>
</svg>
