<svg xmlns="http://www.w3.org/2000/svg" width="1335" height="767" viewBox="0 0 1335 767">
  <g id="fond-organique-formations" transform="translate(0 -329)">
    <path id="forme-formations" d="M0-149.845V369.721a60.153,60.153,0,0,0,60.152,60.154H609.88a60.153,60.153,0,0,1,60.152,60.154v6.817A60.153,60.153,0,0,0,730.184,557h544.664A60.153,60.153,0,0,0,1335,496.847v-184.9a60.153,60.153,0,0,0-60.152-60.154H1029.679a60.154,60.154,0,0,1-60.152-60.154V-149.845A60.153,60.153,0,0,0,909.376-210H60.152A60.153,60.153,0,0,0,0-149.845" transform="translate(0 538.999)" fill="#7971f5"/>
  </g>
</svg>
