<svg xmlns="http://www.w3.org/2000/svg" xmlns:xlink="http://www.w3.org/1999/xlink" width="544" height="727" viewBox="0 0 544 727">
  <defs>
    <clipPath id="clip-path">
      <rect id="Rectangle_17184" data-name="Rectangle 17184" width="544" height="727" rx="40" transform="translate(688 4273)" fill="#fff" stroke="#fff" stroke-width="1" opacity="0.5"/>
    </clipPath>
  </defs>
  <g id="forme-services-bleu-cyan" transform="translate(-688 -4273)" clip-path="url(#clip-path)">
    <path id="Path_29180" data-name="Path 29180" d="M28.5,102.841H195.766a28.5,28.5,0,0,0,28.5-28.513V48.512A28.5,28.5,0,0,1,252.758,20H358.8a28.5,28.5,0,0,1,28.5,28.513V74.328a28.5,28.5,0,0,0,28.5,28.513H435.5A28.5,28.5,0,0,1,464,131.354V565.486A28.5,28.5,0,0,1,435.5,594H350.728a28.5,28.5,0,0,1-28.5-28.513V542.721a28.5,28.5,0,0,0-28.5-28.513H154.821a28.5,28.5,0,0,1-28.5-28.513,28.5,28.5,0,0,0-28.5-28.513H28.5A28.5,28.5,0,0,1,0,428.67V131.354a28.5,28.5,0,0,1,28.5-28.513" transform="translate(728 4355.996)" fill="#c7e9e6"/>
    <rect id="Rectangle_17134" data-name="Rectangle 17134" width="464" height="594" transform="translate(728 4312.996)" fill="none"/>
  </g>
</svg>
