<svg xmlns="http://www.w3.org/2000/svg" width="390" height="536.999" viewBox="0 0 390 536.999">
  <path id="Path_29379" data-name="Path 29379" d="M0,26.615V454.151a26.607,26.607,0,0,0,26.6,26.616H66c14.69,0,26.6,14.916,26.6,29.616A26.607,26.607,0,0,0,119.2,537H363.4c14.69,0,26.6-14.916,26.6-29.616v-196.1a26.607,26.607,0,0,0-26.6-26.616H326.793a26.607,26.607,0,0,1-26.6-26.616V26.615A26.607,26.607,0,0,0,273.6,0H26.6A26.607,26.607,0,0,0,0,26.615" transform="translate(0 0.001)" fill="#7971f5"/>
</svg>
