<svg xmlns="http://www.w3.org/2000/svg" width="1791" height="2151" viewBox="0 0 1791 2151">
  <path id="forme-toutes-formations" d="M17673,25872a60,60,0,0,1-60-60V24696.691h1017V24738a60,60,0,0,0,60,60h99a60,60,0,0,1,60,60v706a60,60,0,0,1-60,60h-99a60,60,0,0,0-60,60v128a60,60,0,0,1-60,60Zm-60-1175.309V24662a60,60,0,0,0-60-60h-434a60,60,0,0,1-60-60v-760a60,60,0,0,1,60-60h1046a60,60,0,0,1,60,60v759a60,60,0,0,0,60,60h285a60,60,0,0,1,60,60v35.691Z" transform="translate(-17058.502 -23721.5)" fill="#7971f5" stroke="rgba(0,0,0,0)" stroke-miterlimit="10" stroke-width="1"/>
</svg>
