<svg xmlns="http://www.w3.org/2000/svg" width="1696" height="995" viewBox="0 0 1696 995">
  <path id="forme-service-accompagnement" d="M0,182.6v769.79A42.631,42.631,0,0,0,42.652,995h765.32a42.631,42.631,0,0,0,42.652-42.611V915.954a42.632,42.632,0,0,1,42.652-42.611h760.071A42.632,42.632,0,0,0,1696,830.732V42.608A42.632,42.632,0,0,0,1653.348,0H689.176a42.632,42.632,0,0,0-42.652,42.611V97.374a42.632,42.632,0,0,1-42.652,42.611H42.652A42.632,42.632,0,0,0,0,182.6" transform="translate(0 0.003)" fill="#7971f5"/>
</svg>
