<svg xmlns="http://www.w3.org/2000/svg" width="455.885" height="343.552" viewBox="0 0 455.885 343.552">
  <path id="forme-formation-a-venir" d="M453.885,152.758V351.176a26.206,26.206,0,0,1-26.206,26.206H357.691a32.768,32.768,0,0,0-32.455,28.295c0,24.632-.106,26.122-.3,27.58a32.768,32.768,0,0,1-32.455,28.295H32.758A32.758,32.758,0,0,1,0,428.794V384.147a32.758,32.758,0,0,1,32.758-32.758H46.172A32.758,32.758,0,0,0,78.93,318.631V152.758A32.758,32.758,0,0,1,111.688,120H421.127a32.758,32.758,0,0,1,32.758,32.758" transform="translate(1 -119)" fill="#020f11" stroke="#d9f777" stroke-width="2"/>
</svg>
