<svg xmlns="http://www.w3.org/2000/svg" width="463.344" height="644.371" viewBox="0 0 463.344 644.371">
  <path id="forme-chiffres" d="M0,263.632V378.739a49.511,49.511,0,0,0,49.508,49.508H159.652a49.511,49.511,0,0,1,49.508,49.508V592.863a49.5,49.5,0,0,0,49.508,49.508H411.835a49.511,49.511,0,0,0,49.508-49.508V477.756a49.511,49.511,0,0,0-49.508-49.508H258.656a49.513,49.513,0,0,1-49.508-48.865V263a49.507,49.507,0,0,1,49.508-48.877H411.835a49.511,49.511,0,0,0,49.508-49.508V49.508A49.511,49.511,0,0,0,411.835,0H258.669a49.52,49.52,0,0,0-49.5,48.073c.012.47.025.953.025,1.436V164.615c0,.483-.012.965-.025,1.436a49.509,49.509,0,0,1-49.484,48.073H49.508A49.5,49.5,0,0,0,0,263.632" transform="translate(1 1)" fill="#020f11" stroke="#d9f777" stroke-width="2"/>
</svg>
