<svg xmlns="http://www.w3.org/2000/svg" width="1791.004" height="1951.004" viewBox="0 0 1791.004 1951.004">
  <path id="forme-tous-formateurs" d="M13745,25672a60.006,60.006,0,0,1-60-60v-915.312h1017V24738a60.005,60.005,0,0,0,60,60h99a60,60,0,0,1,60,60v506a60,60,0,0,1-60,60h-99a60.007,60.007,0,0,0-60,60v128a60,60,0,0,1-60,60Zm-60-975.314V24662a60,60,0,0,0-60-60h-434a60,60,0,0,1-60-59.994v-760a60.005,60.005,0,0,1,60-60h1126a60,60,0,0,1,60,60v759a59.994,59.994,0,0,0,60,60h205a60,60,0,0,1,60,60v35.688Z" transform="translate(-13130.498 -23721.498)" fill="#d9f777" stroke="rgba(0,0,0,0)" stroke-miterlimit="10" stroke-width="1"/>
</svg>
