<svg xmlns="http://www.w3.org/2000/svg" width="43.999" height="37.052" viewBox="0 0 43.999 37.052">
  <path id="graphique-icone" d="M68,75.368a1.688,1.688,0,0,1-1.692,1.684H25.692A1.688,1.688,0,0,1,24,75.368V41.684a1.692,1.692,0,0,1,3.385,0V64.566l10.649-10.6a1.7,1.7,0,0,1,2.395,0L46,59.513,57.145,48.421H52.769a1.684,1.684,0,1,1,0-3.368H61.23a1.688,1.688,0,0,1,1.692,1.684v8.421a1.692,1.692,0,0,1-3.385,0V50.8L47.2,63.086a1.7,1.7,0,0,1-2.395,0L39.23,57.539,27.385,69.328v4.356H66.307A1.688,1.688,0,0,1,68,75.368Z" transform="translate(-24 -40)" fill="#020f11"/>
</svg>
