<svg xmlns="http://www.w3.org/2000/svg" width="80" height="80" viewBox="0 0 80 80">
  <g id="Group_31335" data-name="Group 31335" transform="translate(-330 -2374)">
    <circle id="Ellipse_697" data-name="Ellipse 697" cx="40" cy="40" r="40" transform="translate(330 2374)" fill="#7971f5" opacity="0.2"/>
    <path id="devices" d="M44.69,44.414H42.483v-1.1A3.31,3.31,0,0,0,39.172,40H19.31A3.31,3.31,0,0,0,16,43.31V56.552a3.31,3.31,0,0,0,3.31,3.31H34.759v1.1a3.31,3.31,0,0,0,3.31,3.31H44.69A3.31,3.31,0,0,0,48,60.966V47.724a3.31,3.31,0,0,0-3.31-3.31ZM19.31,57.655a1.1,1.1,0,0,1-1.1-1.1V43.31a1.1,1.1,0,0,1,1.1-1.1H39.172a1.1,1.1,0,0,1,1.1,1.1v1.1H38.069a3.31,3.31,0,0,0-3.31,3.31v9.931Zm26.483,3.31a1.1,1.1,0,0,1-1.1,1.1H38.069a1.1,1.1,0,0,1-1.1-1.1V47.724a1.1,1.1,0,0,1,1.1-1.1H44.69a1.1,1.1,0,0,1,1.1,1.1ZM32.552,63.172a1.1,1.1,0,0,1-1.1,1.1H25.931a1.1,1.1,0,1,1,0-2.207h5.517A1.1,1.1,0,0,1,32.552,63.172ZM43.586,49.931a1.1,1.1,0,0,1-1.1,1.1H40.276a1.1,1.1,0,1,1,0-2.207h2.207A1.1,1.1,0,0,1,43.586,49.931Z" transform="translate(338 2361.862)"/>
  </g>
</svg>
