<svg xmlns="http://www.w3.org/2000/svg" width="775.001" height="1083.001" viewBox="0 0 775.001 1083.001">
  <g id="Group_30940" data-name="Group 30940" transform="translate(155.501 -40.5)" opacity="0.4">
    <path id="happy-young-european-lady-suit-sit-table-with-laptop-calling-by-smartphone-office" d="M696,196.694V735.078a31.922,31.922,0,0,1-31.939,31.9H391.25a31.921,31.921,0,0,0-31.938,31.9h0a31.922,31.922,0,0,1-31.939,31.9H31.938A31.921,31.921,0,0,1,0,798.886V548.97a31.921,31.921,0,0,1,31.938-31.9H151.709a31.922,31.922,0,0,0,31.939-31.9V196.694a31.922,31.922,0,0,1,31.939-31.9H664.061A31.922,31.922,0,0,1,696,196.694" transform="translate(-77 292.211)" fill="none" stroke="#7971f5" stroke-width="1"/>
    <path id="happy-young-european-lady-suit-sit-table-with-laptop-calling-by-smartphone-office-2" data-name="happy-young-european-lady-suit-sit-table-with-laptop-calling-by-smartphone-office" d="M696,196.694V735.078a31.922,31.922,0,0,1-31.939,31.9H391.25a31.921,31.921,0,0,0-31.938,31.9h0a31.922,31.922,0,0,1-31.939,31.9H31.938A31.921,31.921,0,0,1,0,798.886V548.97a31.921,31.921,0,0,1,31.938-31.9H151.709a31.922,31.922,0,0,0,31.939-31.9V196.694a31.922,31.922,0,0,1,31.939-31.9H664.061A31.922,31.922,0,0,1,696,196.694" transform="translate(675.789 41) rotate(90)" fill="none" stroke="#7971f5" stroke-width="1"/>
  </g>
</svg>
