<svg xmlns="http://www.w3.org/2000/svg" width="40.003" height="40.001" viewBox="0 0 40.003 40.001">
  <path id="magnetic-icone" d="M51.361,28.861A16.2,16.2,0,0,0,39.805,24h-.061a16.2,16.2,0,0,0-11.532,4.78L16.843,40.3a2.963,2.963,0,0,0,.011,4.178l5.308,5.308a2.948,2.948,0,0,0,2.1.869h.017a2.963,2.963,0,0,0,2.1-.893L37.657,38.2a2.978,2.978,0,0,1,4.15-.039,2.889,2.889,0,0,1,.876,2.072,3.128,3.128,0,0,1-.9,2.222L30.249,53.608a2.963,2.963,0,0,0-.031,4.221l5.308,5.308a2.974,2.974,0,0,0,4.17.022L51.141,51.964A16.449,16.449,0,0,0,51.361,28.861Zm-27.1,18.823-5.306-5.306,4.408-4.467,5.282,5.282Zm13.36,13.354-5.311-5.306,4.515-4.365,5.28,5.285ZM49.055,49.845l-4.835,4.73-5.267-5.263,4.9-4.735.019-.017a6.111,6.111,0,0,0,1.772-4.352,5.822,5.822,0,0,0-1.785-4.17,5.963,5.963,0,0,0-8.315.093l-4.83,4.941L25.434,35.8l4.88-4.935a13.243,13.243,0,0,1,9.43-3.906h.05a13.25,13.25,0,0,1,9.454,3.978,13.461,13.461,0,0,1-.193,18.908Z" transform="translate(55.991 64.001) rotate(180)" fill="#020f11"/>
</svg>
