<svg xmlns="http://www.w3.org/2000/svg" width="43.333" height="40" viewBox="0 0 43.333 40">
  <path id="megaphone-icone" d="M24,43.208a9.625,9.625,0,0,1,9.63-9.6h7.985a38.03,38.03,0,0,0,20.445-8.848,3.211,3.211,0,0,1,5.274,2.448v32a3.211,3.211,0,0,1-5.274,2.45A39.143,39.143,0,0,0,43.259,53v6.344a3.2,3.2,0,0,1-1.428,2.666l-2.207,1.466a3.213,3.213,0,0,1-4.891-1.866l-2.361-8.871A9.624,9.624,0,0,1,24,43.208ZM64.123,59.194V27.209h0a41.682,41.682,0,0,1-20.864,9.447v13.1A41.86,41.86,0,0,1,64.123,59.194Zm-26.281,1.6v.022l2.207-1.466V52.808H35.716ZM33.63,49.608h6.42v-12.8H33.63a6.4,6.4,0,1,0,0,12.8Z" transform="translate(-24 -24.012)" fill="#1a2628"/>
</svg>
