<svg xmlns="http://www.w3.org/2000/svg" xmlns:xlink="http://www.w3.org/1999/xlink" width="329" height="215" viewBox="0 0 329 215">
  <defs>
    <clipPath id="clip-path">
      <rect id="Rectangle_17263" data-name="Rectangle 17263" width="329" height="215" transform="translate(455 3866)" fill="none"/>
    </clipPath>
    <clipPath id="clip-path-2">
      <rect id="Rectangle_17063" data-name="Rectangle 17063" width="3.973" height="0.967" fill="none"/>
    </clipPath>
    <clipPath id="clip-path-3">
      <rect id="Rectangle_17064" data-name="Rectangle 17064" width="3.413" height="3.351" fill="none"/>
    </clipPath>
    <clipPath id="clip-path-4">
      <rect id="Rectangle_17066" data-name="Rectangle 17066" width="4.539" height="7.432" fill="#e9e2d8"/>
    </clipPath>
    <clipPath id="clip-path-5">
      <path id="Path_28697" data-name="Path 28697" d="M137.778,42.212l1.388-.476a7.236,7.236,0,0,1,3.078,6.956l-1.388.476a7.237,7.237,0,0,0-3.078-6.956" transform="translate(-137.778 -41.736)" fill="none"/>
    </clipPath>
    <linearGradient id="linear-gradient" x1="-26.179" y1="17.474" x2="-25.988" y2="17.474" gradientUnits="objectBoundingBox">
      <stop offset="0" stop-color="#02293f"/>
      <stop offset="0.101" stop-color="#02293f"/>
      <stop offset="1" stop-color="#dabeca"/>
    </linearGradient>
    <clipPath id="clip-path-6">
      <rect id="Rectangle_17069" data-name="Rectangle 17069" width="92.086" height="112.393" fill="none"/>
    </clipPath>
    <clipPath id="clip-path-7">
      <rect id="Rectangle_17070" data-name="Rectangle 17070" width="92.086" height="112.392" fill="none"/>
    </clipPath>
    <clipPath id="clip-path-8">
      <rect id="Rectangle_17071" data-name="Rectangle 17071" width="78.943" height="90.537" fill="none"/>
    </clipPath>
    <clipPath id="clip-path-9">
      <rect id="Rectangle_17072" data-name="Rectangle 17072" width="79.673" height="90.537" fill="none"/>
    </clipPath>
  </defs>
  <g id="ordinateur-site-web" transform="translate(-455 -3866)" clip-path="url(#clip-path)">
    <g id="Group_30549" data-name="Group 30549" transform="translate(534 3866)">
      <g id="Group_30586" data-name="Group 30586">
        <path id="Path_28690" data-name="Path 28690" d="M152.183,123.461v5.382a2.67,2.67,0,0,1-1.566,2.21L77.929,173.3V160.217L79.2,85.42l64.355,37.156Z" transform="translate(37.67 41.291)" fill="#02293f"/>
        <path id="Path_28691" data-name="Path 28691" d="M6.45,111.5,74.255,72.1a8.4,8.4,0,0,1,7.623,0l33.081,19.1-6.985,88.978L1.592,118.757a2.715,2.715,0,0,1-1.586-2.182H0v-5.733Z" transform="translate(0 34.409)" fill="#02293f"/>
        <path id="Path_28692" data-name="Path 28692" d="M80.412,136.153V149.23a8.4,8.4,0,0,1-7.623,0l0-14.028Z" transform="translate(35.185 65.355)" fill="#02293f"/>
        <g id="Group_30570" data-name="Group 30570" transform="translate(95.42)">
          <g id="Group_30569" data-name="Group 30569">
            <g id="Group_30587" data-name="Group 30587">
              <g id="Group_30567" data-name="Group 30567" style="isolation: isolate">
                <g id="Group_30566" data-name="Group 30566">
                  <g id="Group_30588" data-name="Group 30588">
                    <g id="Group_30556" data-name="Group 30556">
                      <g id="Group_30555" data-name="Group 30555">
                        <g id="Group_30554" data-name="Group 30554" clip-path="url(#clip-path-2)">
                          <path id="Path_28693" data-name="Path 28693" d="M64.326.656l1.433-.51A3.011,3.011,0,0,1,68.3.49L66.9.967A3.07,3.07,0,0,0,64.326.656" transform="translate(-64.326 0)" fill="#dabeca"/>
                        </g>
                      </g>
                    </g>
                    <g id="Group_30559" data-name="Group 30559" transform="translate(95.785 159.486)" opacity="0.1">
                      <g id="Group_30558" data-name="Group 30558">
                        <g id="Group_30557" data-name="Group 30557" clip-path="url(#clip-path-3)">
                          <path id="Path_28694" data-name="Path 28694" d="M130.286,110.388l-1.388.476a3.394,3.394,0,0,0,2.025-2.873l1.388-.476a3.394,3.394,0,0,1-2.025,2.873" transform="translate(-128.898 -107.515)" fill="#02293f"/>
                        </g>
                      </g>
                    </g>
                    <path id="Path_28695" data-name="Path 28695" d="M66.061.807l1.39-.476L173.834,61.75l-1.39.478Z" transform="translate(-63.487 0.16)" fill="#e9e2d8"/>
                    <path id="Path_28696" data-name="Path 28696" d="M144.489,46.9l1.388-.476-14.226,90.618-1.388.478Z" transform="translate(-32.453 22.441)" fill="#02293f"/>
                    <g id="Group_30564" data-name="Group 30564" transform="translate(108.958 61.911)">
                      <g id="Group_30563" data-name="Group 30563">
                        <g id="Group_30562" data-name="Group 30562" clip-path="url(#clip-path-4)">
                          <g id="Group_30561" data-name="Group 30561" transform="translate(0 0)">
                            <g id="Group_30560" data-name="Group 30560" clip-path="url(#clip-path-5)">
                              <rect id="Rectangle_17065" data-name="Rectangle 17065" width="7.752" height="8.844" transform="translate(-3.035 1.573) rotate(-27.387)" fill="url(#linear-gradient)"/>
                            </g>
                          </g>
                        </g>
                      </g>
                    </g>
                  </g>
                </g>
              </g>
            </g>
          </g>
        </g>
        <path id="Path_28698" data-name="Path 28698" d="M95.115,123.8,46.509,96.523,19.8,114.635,68.138,143.07Z" transform="translate(9.569 46.658)" fill="#ede6e0"/>
        <path id="Path_28699" data-name="Path 28699" d="M188.072,130.178,81.688,68.758a8.4,8.4,0,0,0-7.623,0L1.376,111c-2.1,1.219-.255,3.08,1.856,4.3l104.886,59.484c2.112,1.218,1.353-.6,3.45-1.82L183.2,133.968c2.1-1.219,6.978-2.571,4.867-3.79m-87.859,10.231L77.444,153.64a4.961,4.961,0,0,1-4.5,0L34.089,131.2c-1.252-.721-1.258-1.89-.024-2.606l22.768-13.232a4.966,4.966,0,0,1,4.511,0L100.2,137.8c1.25.722,1.258,1.89.015,2.612" transform="translate(0.218 32.794)" fill="#625760"/>
        <path id="Path_28700" data-name="Path 28700" d="M188.262,129.759,81.878,68.339a8.4,8.4,0,0,0-7.623,0L1.566,110.58c-2.1,1.221-2.086,3.2.025,4.416l106.382,61.421a8.4,8.4,0,0,0,7.625,0l72.687-42.242c2.1-1.219,2.087-3.2-.024-4.416M100.4,139.989,77.634,153.221a4.961,4.961,0,0,1-4.5,0L34.279,130.785c-1.252-.722-1.258-1.891-.024-2.608l22.768-13.232a4.97,4.97,0,0,1,4.511,0l38.853,22.433c1.25.722,1.258,1.89.015,2.612" transform="translate(0 32.592)" fill="#e9e2d8"/>
        <path id="Path_28701" data-name="Path 28701" d="M35.2,81.672l8.544,4.934,5.545-3.223L40.741,78.45Z" transform="translate(17.013 37.922)" fill="#032433"/>
        <path id="Path_28702" data-name="Path 28702" d="M30.351,84.491l10.1,5.836L45.995,87.1,35.9,81.269Z" transform="translate(14.671 39.284)" fill="#032433"/>
        <path id="Path_28703" data-name="Path 28703" d="M40.034,78.861l6.985,4.027,5.554-3.226-6.994-4.023Z" transform="translate(19.352 36.563)" fill="#032433"/>
        <path id="Path_28704" data-name="Path 28704" d="M44.866,76.05l5.612,3.219,5.552-3.228-5.619-3.213Z" transform="translate(21.688 35.204)" fill="#032433"/>
        <path id="Path_28705" data-name="Path 28705" d="M49.575,78.756l5.612,3.219,5.552-3.228L55.12,75.534Z" transform="translate(23.964 36.512)" fill="#032433"/>
        <path id="Path_28706" data-name="Path 28706" d="M54.285,81.453l5.61,3.219,5.554-3.228L59.83,78.231Z" transform="translate(26.241 37.816)" fill="#032433"/>
        <path id="Path_28707" data-name="Path 28707" d="M59.1,84.3l5.61,3.217,5.554-3.226-5.619-3.213Z" transform="translate(28.57 39.191)" fill="#032433"/>
        <path id="Path_28708" data-name="Path 28708" d="M63.812,87.01l5.61,3.219L74.976,87l-5.619-3.213Z" transform="translate(30.846 40.502)" fill="#032433"/>
        <path id="Path_28709" data-name="Path 28709" d="M68.629,89.771l5.612,3.219,5.552-3.228-5.619-3.213Z" transform="translate(33.174 41.836)" fill="#032433"/>
        <path id="Path_28710" data-name="Path 28710" d="M73.393,92.522,79,95.741l5.552-3.228L78.938,89.3Z" transform="translate(35.477 43.166)" fill="#032433"/>
        <path id="Path_28711" data-name="Path 28711" d="M78.159,95.274l5.612,3.219,5.552-3.228L83.7,92.052Z" transform="translate(37.781 44.497)" fill="#032433"/>
        <path id="Path_28712" data-name="Path 28712" d="M82.923,98.026l5.612,3.219,5.552-3.228L88.467,94.8Z" transform="translate(40.083 45.827)" fill="#032433"/>
        <path id="Path_28713" data-name="Path 28713" d="M87.689,100.786,93.3,104l5.554-3.228-5.619-3.213Z" transform="translate(42.388 47.161)" fill="#032433"/>
        <path id="Path_28714" data-name="Path 28714" d="M92.449,103.535l5.612,3.219,5.552-3.228-5.619-3.213Z" transform="translate(44.689 48.49)" fill="#032433"/>
        <path id="Path_28715" data-name="Path 28715" d="M97.217,106.283l5.612,3.219,5.552-3.228-5.619-3.213Z" transform="translate(46.993 49.818)" fill="#032433"/>
        <path id="Path_28716" data-name="Path 28716" d="M45.79,82.183,51.4,85.4l5.554-3.228-5.619-3.213Z" transform="translate(22.134 38.169)" fill="#032433"/>
        <path id="Path_28717" data-name="Path 28717" d="M50.5,84.89l5.61,3.219,5.554-3.228-5.619-3.213Z" transform="translate(24.412 39.477)" fill="#032433"/>
        <path id="Path_28718" data-name="Path 28718" d="M55.324,87.735l5.612,3.217,5.552-3.226-5.619-3.213Z" transform="translate(26.743 40.852)" fill="#032433"/>
        <path id="Path_28719" data-name="Path 28719" d="M60.035,90.45l5.612,3.219L71.2,90.441,65.58,87.228Z" transform="translate(29.02 42.165)" fill="#032433"/>
        <path id="Path_28720" data-name="Path 28720" d="M64.851,93.2l5.61,3.219,5.554-3.228L70.4,89.98Z" transform="translate(31.348 43.495)" fill="#032433"/>
        <path id="Path_28721" data-name="Path 28721" d="M69.614,95.956l5.61,3.219,5.554-3.228-5.619-3.213Z" transform="translate(33.65 44.826)" fill="#032433"/>
        <path id="Path_28722" data-name="Path 28722" d="M74.378,98.725l5.612,3.219,5.552-3.228L79.923,95.5Z" transform="translate(35.953 46.165)" fill="#032433"/>
        <path id="Path_28723" data-name="Path 28723" d="M79.142,101.454l5.61,3.219,5.554-3.228-5.619-3.213Z" transform="translate(38.256 47.484)" fill="#032433"/>
        <path id="Path_28724" data-name="Path 28724" d="M83.905,104.218l5.61,3.219,5.554-3.228L89.45,101Z" transform="translate(40.559 48.82)" fill="#032433"/>
        <path id="Path_28725" data-name="Path 28725" d="M88.669,106.969l5.61,3.219,5.554-3.228-5.619-3.213Z" transform="translate(42.861 50.15)" fill="#032433"/>
        <path id="Path_28726" data-name="Path 28726" d="M93.434,109.717l5.61,3.219,5.554-3.228-5.619-3.213Z" transform="translate(45.164 51.478)" fill="#032433"/>
        <path id="Path_28727" data-name="Path 28727" d="M98.269,112.48l10.267,5.922,5.554-3.228-10.275-5.916Z" transform="translate(47.502 52.814)" fill="#032433"/>
        <path id="Path_28728" data-name="Path 28728" d="M42.027,85.6l5.61,3.219,5.554-3.228-5.619-3.213Z" transform="translate(20.315 39.82)" fill="#032433"/>
        <path id="Path_28729" data-name="Path 28729" d="M46.74,88.306l5.61,3.219L57.9,88.3l-5.619-3.213Z" transform="translate(22.593 41.128)" fill="#032433"/>
        <path id="Path_28730" data-name="Path 28730" d="M51.554,91.153l5.61,3.219,5.554-3.228L57.1,87.931Z" transform="translate(24.921 42.504)" fill="#032433"/>
        <path id="Path_28731" data-name="Path 28731" d="M56.271,93.86l5.61,3.219,5.554-3.228-5.619-3.213Z" transform="translate(27.201 43.813)" fill="#032433"/>
        <path id="Path_28732" data-name="Path 28732" d="M61.085,96.612l5.61,3.219L72.249,96.6,66.63,93.39Z" transform="translate(29.528 45.143)" fill="#032433"/>
        <path id="Path_28733" data-name="Path 28733" d="M65.85,99.367l5.612,3.219,5.552-3.228L71.4,96.145Z" transform="translate(31.831 46.475)" fill="#032433"/>
        <path id="Path_28734" data-name="Path 28734" d="M70.615,102.121l5.612,3.219,5.552-3.228L76.16,98.9Z" transform="translate(34.134 47.806)" fill="#032433"/>
        <path id="Path_28735" data-name="Path 28735" d="M75.376,104.892l5.612,3.219,5.552-3.228-5.619-3.213Z" transform="translate(36.436 49.146)" fill="#032433"/>
        <path id="Path_28736" data-name="Path 28736" d="M80.14,107.639l5.612,3.217L91.3,107.63l-5.619-3.213Z" transform="translate(38.738 50.474)" fill="#032433"/>
        <path id="Path_28737" data-name="Path 28737" d="M84.9,110.385l5.612,3.219,5.552-3.228-5.619-3.213Z" transform="translate(41.042 51.801)" fill="#032433"/>
        <path id="Path_28738" data-name="Path 28738" d="M89.668,113.134l5.61,3.219,5.554-3.228-5.619-3.213Z" transform="translate(43.344 53.13)" fill="#032433"/>
        <path id="Path_28739" data-name="Path 28739" d="M94.526,116l8.537,4.934,5.554-3.226-8.546-4.929Z" transform="translate(45.692 54.514)" fill="#032433"/>
        <path id="Path_28740" data-name="Path 28740" d="M38.237,89.024l5.612,3.219L49.4,89.015,43.782,85.8Z" transform="translate(18.483 41.476)" fill="#032433"/>
        <path id="Path_28741" data-name="Path 28741" d="M25.564,87.267l5.61,3.219,5.554-3.228-5.619-3.213Z" transform="translate(12.357 40.626)" fill="#032433"/>
        <path id="Path_28742" data-name="Path 28742" d="M30.279,89.989l5.612,3.219,5.552-3.228-5.619-3.213Z" transform="translate(14.636 41.942)" fill="#032433"/>
        <path id="Path_28743" data-name="Path 28743" d="M34.994,92.713l5.612,3.219L46.158,92.7l-5.619-3.213Z" transform="translate(16.916 43.259)" fill="#032433"/>
        <path id="Path_28744" data-name="Path 28744" d="M39.708,95.408l5.61,3.219L50.872,95.4l-5.619-3.213Z" transform="translate(19.194 44.561)" fill="#032433"/>
        <path id="Path_28745" data-name="Path 28745" d="M44.393,98.147l39.333,22.69,5.554-3.228L49.938,94.925Z" transform="translate(21.459 45.885)" fill="#032433"/>
        <path id="Path_28746" data-name="Path 28746" d="M42.951,91.731l5.61,3.219,5.554-3.228L48.5,88.509Z" transform="translate(20.762 42.784)" fill="#032433"/>
        <path id="Path_28747" data-name="Path 28747" d="M47.766,94.575l5.612,3.219,5.552-3.228L53.31,91.354Z" transform="translate(23.089 44.159)" fill="#032433"/>
        <path id="Path_28748" data-name="Path 28748" d="M52.478,97.286l5.612,3.219,5.552-3.228-5.619-3.213Z" transform="translate(25.367 45.469)" fill="#032433"/>
        <path id="Path_28749" data-name="Path 28749" d="M57.3,100.035l5.612,3.219,5.552-3.228-5.619-3.213Z" transform="translate(27.696 46.798)" fill="#032433"/>
        <path id="Path_28750" data-name="Path 28750" d="M62.058,102.8l5.612,3.219,5.552-3.228L67.6,99.574Z" transform="translate(29.998 48.133)" fill="#032433"/>
        <path id="Path_28751" data-name="Path 28751" d="M66.824,105.547l5.612,3.219,5.552-3.228-5.619-3.213Z" transform="translate(32.302 49.462)" fill="#032433"/>
        <path id="Path_28752" data-name="Path 28752" d="M71.587,108.293l5.61,3.219,5.554-3.228-5.619-3.213Z" transform="translate(34.604 50.79)" fill="#032433"/>
        <path id="Path_28753" data-name="Path 28753" d="M76.351,111.049l5.612,3.219,5.552-3.228L81.9,107.827Z" transform="translate(36.907 52.122)" fill="#032433"/>
        <path id="Path_28754" data-name="Path 28754" d="M72.152,114.176l5.61,3.219,5.554-3.228L77.7,110.954Z" transform="translate(34.877 53.634)" fill="#032433"/>
        <path id="Path_28755" data-name="Path 28755" d="M81.115,113.806l5.61,3.219,5.554-3.228-5.619-3.213Z" transform="translate(39.21 53.455)" fill="#032433"/>
        <path id="Path_28756" data-name="Path 28756" d="M77.1,117l5.612,3.219,5.552-3.228-5.619-3.213Z" transform="translate(37.27 55)" fill="#032433"/>
        <path id="Path_28757" data-name="Path 28757" d="M85.873,116.558l6.966,4.01,5.545-3.223-6.966-4.008Z" transform="translate(41.51 54.785)" fill="#032433"/>
        <path id="Path_28758" data-name="Path 28758" d="M86.954,122.7l5.61,3.219,5.554-3.228L92.5,119.475Z" transform="translate(42.032 57.752)" fill="#032433"/>
        <path id="Path_28759" data-name="Path 28759" d="M91.9,125.552l5.61,3.219,5.554-3.228-5.619-3.213Z" transform="translate(44.424 59.132)" fill="#032433"/>
        <path id="Path_28760" data-name="Path 28760" d="M96.659,122.785l5.61,3.219,5.554-3.228-5.619-3.213Z" transform="translate(46.723 57.795)" fill="#032433"/>
        <path id="Path_28761" data-name="Path 28761" d="M101.455,120l5.612,3.219,5.552-3.228L107,116.778Z" transform="translate(49.042 56.449)" fill="#032433"/>
        <path id="Path_28762" data-name="Path 28762" d="M91.723,119.928l5.61,3.219,5.554-3.228-5.619-3.213Z" transform="translate(44.337 56.414)" fill="#032433"/>
        <path id="Path_28763" data-name="Path 28763" d="M82.035,119.869l5.613,3.22L93.2,119.86l-5.61-3.229Z" transform="translate(39.654 56.377)" fill="#032433"/>
        <path id="Path_28764" data-name="Path 28764" d="M111.269,114.294l5.612,3.219,5.552-3.228-5.619-3.213Z" transform="translate(53.786 53.691)" fill="#032433"/>
        <path id="Path_28765" data-name="Path 28765" d="M106.362,117.143l5.612,3.219,5.552-3.228-5.619-3.213Z" transform="translate(51.413 55.068)" fill="#032433"/>
        <path id="Path_28766" data-name="Path 28766" d="M102.126,109l11.834,6.84,5.545-3.222-11.834-6.84Z" transform="translate(49.366 51.134)" fill="#032433"/>
        <path id="Path_28767" data-name="Path 28767" d="M49.575,72.789l5.589,3.228,2.768-1.609-5.589-3.226Z" transform="translate(23.964 34.408)" fill="#032433"/>
        <path id="Path_28768" data-name="Path 28768" d="M57.052,73.9l5.589,3.226L59.873,78.74l-5.589-3.228Z" transform="translate(26.24 35.724)" fill="#032433"/>
        <path id="Path_28769" data-name="Path 28769" d="M61.816,76.651l5.589,3.228-2.768,1.608-5.589-3.228Z" transform="translate(28.543 37.052)" fill="#032433"/>
        <path id="Path_28770" data-name="Path 28770" d="M66.581,79.409l5.589,3.226L69.4,84.245l-5.589-3.228Z" transform="translate(30.846 38.385)" fill="#032433"/>
        <path id="Path_28771" data-name="Path 28771" d="M71.345,82.158l5.589,3.228-2.768,1.608-5.589-3.228Z" transform="translate(33.149 39.714)" fill="#032433"/>
        <path id="Path_28772" data-name="Path 28772" d="M76.11,84.911,81.7,88.139l-2.768,1.608-5.589-3.228Z" transform="translate(35.452 41.045)" fill="#032433"/>
        <path id="Path_28773" data-name="Path 28773" d="M80.876,87.666l5.589,3.228L83.7,92.5l-5.589-3.228Z" transform="translate(37.756 42.376)" fill="#032433"/>
        <path id="Path_28774" data-name="Path 28774" d="M85.637,90.418l5.589,3.228-2.768,1.608-5.589-3.228Z" transform="translate(40.058 43.707)" fill="#032433"/>
        <path id="Path_28775" data-name="Path 28775" d="M90.4,93.168,95.99,96.4,93.222,98l-5.589-3.228Z" transform="translate(42.36 45.036)" fill="#032433"/>
        <path id="Path_28776" data-name="Path 28776" d="M95.17,95.924l5.589,3.226-2.768,1.609L92.4,97.534Z" transform="translate(44.665 46.368)" fill="#032433"/>
        <path id="Path_28777" data-name="Path 28777" d="M99.932,98.676l5.589,3.228-2.768,1.608-5.589-3.228Z" transform="translate(46.967 47.699)" fill="#032433"/>
        <path id="Path_28778" data-name="Path 28778" d="M104.694,101.428l5.589,3.228-2.768,1.608-5.589-3.228Z" transform="translate(49.269 49.029)" fill="#032433"/>
        <path id="Path_28779" data-name="Path 28779" d="M109.456,104.18l5.589,3.228-2.768,1.608-5.589-3.226Z" transform="translate(51.571 50.359)" fill="#032433"/>
        <path id="Path_28780" data-name="Path 28780" d="M114.335,106.961l4.687,2.719-2.768,1.608-4.687-2.719Z" transform="translate(53.93 51.703)" fill="#032433"/>
        <path id="Path_28781" data-name="Path 28781" d="M118.688,109.465l5.542,3.226-2.768,1.609-5.542-3.226Z" transform="translate(56.034 52.913)" fill="#032433"/>
        <path id="Path_28782" data-name="Path 28782" d="M122.43,111.643v.694l-2.769,1.609v-.694Z" transform="translate(57.842 53.967)" fill="#02293f"/>
        <path id="Path_28783" data-name="Path 28783" d="M121.468,113.78l-5.545-3.228v.694l5.545,3.228Z" transform="translate(56.035 53.439)" fill="#02293f"/>
        <path id="Path_28784" data-name="Path 28784" d="M117.5,108.8v.694L114.73,111.1v-.694Z" transform="translate(55.459 52.591)" fill="#02293f"/>
        <path id="Path_28785" data-name="Path 28785" d="M111.57,108.048v.694l4.689,2.721v-.694Z" transform="translate(53.931 52.229)" fill="#02293f"/>
        <path id="Path_28786" data-name="Path 28786" d="M113.227,106.357v.694l-2.769,1.609v-.694Z" transform="translate(53.394 51.411)" fill="#02293f"/>
        <path id="Path_28787" data-name="Path 28787" d="M112.28,109.188l-5.592-3.228v-.694l5.592,3.228Z" transform="translate(51.571 50.884)" fill="#02293f"/>
        <path id="Path_28788" data-name="Path 28788" d="M108.463,103.6v.694l-2.769,1.609v-.694Z" transform="translate(51.091 50.081)" fill="#02293f"/>
        <path id="Path_28789" data-name="Path 28789" d="M107.516,106.435l-5.592-3.228v-.694l5.592,3.228Z" transform="translate(49.268 49.553)" fill="#02293f"/>
        <path id="Path_28790" data-name="Path 28790" d="M103.7,100.851v.694l-2.769,1.609v-.694Z" transform="translate(48.788 48.75)" fill="#02293f"/>
        <path id="Path_28791" data-name="Path 28791" d="M102.752,103.682l-5.591-3.228V99.76l5.591,3.228Z" transform="translate(46.966 48.222)" fill="#02293f"/>
        <path id="Path_28792" data-name="Path 28792" d="M98.935,98.1v.694L96.166,100.4v-.693Z" transform="translate(46.485 47.419)" fill="#02293f"/>
        <path id="Path_28793" data-name="Path 28793" d="M97.988,100.929,92.4,97.7v-.694l5.592,3.228Z" transform="translate(44.663 46.892)" fill="#02293f"/>
        <path id="Path_28794" data-name="Path 28794" d="M94.171,95.346v.694L91.4,97.649v-.694Z" transform="translate(44.182 46.089)" fill="#02293f"/>
        <path id="Path_28795" data-name="Path 28795" d="M93.224,98.176l-5.592-3.228v-.694l5.592,3.228Z" transform="translate(42.36 45.561)" fill="#02293f"/>
        <path id="Path_28796" data-name="Path 28796" d="M89.407,92.593v.693L86.638,94.9V94.2Z" transform="translate(41.879 44.758)" fill="#02293f"/>
        <path id="Path_28797" data-name="Path 28797" d="M88.46,95.423,82.868,92.2V91.5l5.592,3.228Z" transform="translate(40.057 44.23)" fill="#02293f"/>
        <path id="Path_28798" data-name="Path 28798" d="M84.643,89.84v.694l-2.769,1.609v-.694Z" transform="translate(39.576 43.427)" fill="#02293f"/>
        <path id="Path_28799" data-name="Path 28799" d="M83.7,92.671,78.1,89.443v-.694L83.7,91.976Z" transform="translate(37.754 42.9)" fill="#02293f"/>
        <path id="Path_28800" data-name="Path 28800" d="M79.879,87.087v.694L77.11,89.391V88.7Z" transform="translate(37.274 42.097)" fill="#02293f"/>
        <path id="Path_28801" data-name="Path 28801" d="M78.932,89.918,73.34,86.69V86l5.592,3.228Z" transform="translate(35.451 41.569)" fill="#02293f"/>
        <path id="Path_28802" data-name="Path 28802" d="M75.115,84.334v.694l-2.769,1.609v-.694Z" transform="translate(34.971 40.766)" fill="#02293f"/>
        <path id="Path_28803" data-name="Path 28803" d="M74.168,87.165l-5.592-3.228v-.694l5.592,3.228Z" transform="translate(33.148 40.238)" fill="#02293f"/>
        <path id="Path_28804" data-name="Path 28804" d="M70.351,81.581v.694l-2.769,1.608v-.693Z" transform="translate(32.668 39.435)" fill="#02293f"/>
        <path id="Path_28805" data-name="Path 28805" d="M69.4,84.412l-5.592-3.228V80.49L69.4,83.718Z" transform="translate(30.846 38.908)" fill="#02293f"/>
        <path id="Path_28806" data-name="Path 28806" d="M65.587,78.828v.694l-2.769,1.609v-.694Z" transform="translate(30.365 38.104)" fill="#02293f"/>
        <path id="Path_28807" data-name="Path 28807" d="M64.64,81.659l-5.591-3.228v-.694l5.591,3.228Z" transform="translate(28.543 37.577)" fill="#02293f"/>
        <path id="Path_28808" data-name="Path 28808" d="M60.823,76.076v.694l-2.769,1.609v-.694Z" transform="translate(28.062 36.774)" fill="#02293f"/>
        <path id="Path_28809" data-name="Path 28809" d="M59.876,78.906l-5.592-3.228v-.694l5.592,3.228Z" transform="translate(26.24 36.246)" fill="#02293f"/>
        <path id="Path_28810" data-name="Path 28810" d="M56.114,73.357v.694l-2.769,1.609v-.694Z" transform="translate(25.786 35.46)" fill="#02293f"/>
        <path id="Path_28811" data-name="Path 28811" d="M55.167,76.187,49.575,72.96v-.694l5.592,3.228Z" transform="translate(23.964 34.932)" fill="#02293f"/>
        <path id="Path_28812" data-name="Path 28812" d="M120.61,113.243v.694l-5.555,3.228v-.693Z" transform="translate(55.616 54.74)" fill="#02293f"/>
        <path id="Path_28813" data-name="Path 28813" d="M116.884,117.162l-5.613-3.22v-.693l5.613,3.219Z" transform="translate(53.787 54.743)" fill="#02293f"/>
        <path id="Path_28814" data-name="Path 28814" d="M115.655,110.393v.694l-5.555,3.228v-.694Z" transform="translate(53.221 53.362)" fill="#02293f"/>
        <path id="Path_28815" data-name="Path 28815" d="M113.955,115.493l-11.83-6.843v-.693l11.83,6.841Z" transform="translate(49.365 52.185)" fill="#02293f"/>
        <path id="Path_28816" data-name="Path 28816" d="M110.745,113.25v.694l-5.555,3.228v-.694Z" transform="translate(50.847 54.743)" fill="#02293f"/>
        <path id="Path_28817" data-name="Path 28817" d="M108.536,118.05l-10.269-5.923v-.694l10.269,5.923Z" transform="translate(47.5 53.865)" fill="#02293f"/>
        <path id="Path_28818" data-name="Path 28818" d="M105.834,116.093v.694l-5.555,3.228v-.694Z" transform="translate(48.473 56.117)" fill="#02293f"/>
        <path id="Path_28819" data-name="Path 28819" d="M103.062,120.568l-8.54-4.92.006-.7,8.534,4.926Z" transform="translate(45.691 55.564)" fill="#02293f"/>
        <path id="Path_28820" data-name="Path 28820" d="M106.553,105.226v.694L101,109.148v-.694Z" transform="translate(48.821 50.864)" fill="#02293f"/>
        <path id="Path_28821" data-name="Path 28821" d="M102.827,109.145l-5.613-3.22v-.693l5.613,3.219Z" transform="translate(46.991 50.867)" fill="#02293f"/>
        <path id="Path_28822" data-name="Path 28822" d="M101.789,102.478v.694L96.234,106.4v-.694Z" transform="translate(46.518 49.536)" fill="#02293f"/>
        <path id="Path_28823" data-name="Path 28823" d="M98.063,106.4l-5.613-3.22v-.693l5.613,3.219Z" transform="translate(44.689 49.539)" fill="#02293f"/>
        <path id="Path_28824" data-name="Path 28824" d="M97.025,99.73v.694l-5.555,3.228v-.694Z" transform="translate(44.215 48.208)" fill="#02293f"/>
        <path id="Path_28825" data-name="Path 28825" d="M93.3,103.649l-5.613-3.22v-.693l5.613,3.219Z" transform="translate(42.386 48.211)" fill="#02293f"/>
        <path id="Path_28826" data-name="Path 28826" d="M92.261,96.971v.694l-5.555,3.228V100.2Z" transform="translate(41.912 46.874)" fill="#02293f"/>
        <path id="Path_28827" data-name="Path 28827" d="M88.535,100.891l-5.613-3.22v-.693l5.613,3.219Z" transform="translate(40.083 46.877)" fill="#02293f"/>
        <path id="Path_28828" data-name="Path 28828" d="M87.5,94.218v.694L81.941,98.14v-.694Z" transform="translate(39.609 45.544)" fill="#02293f"/>
        <path id="Path_28829" data-name="Path 28829" d="M83.771,98.138l-5.613-3.219v-.694l5.613,3.219Z" transform="translate(37.78 45.547)" fill="#02293f"/>
        <path id="Path_28830" data-name="Path 28830" d="M82.733,91.465v.694l-5.555,3.228v-.694Z" transform="translate(37.306 44.213)" fill="#02293f"/>
        <path id="Path_28831" data-name="Path 28831" d="M79.006,95.385l-5.613-3.22v-.693l5.613,3.219Z" transform="translate(35.477 44.216)" fill="#02293f"/>
        <path id="Path_28832" data-name="Path 28832" d="M77.969,88.712v.694l-5.555,3.228V91.94Z" transform="translate(35.004 42.882)" fill="#02293f"/>
        <path id="Path_28833" data-name="Path 28833" d="M74.243,92.632l-5.613-3.22v-.693l5.613,3.219Z" transform="translate(33.174 42.885)" fill="#02293f"/>
        <path id="Path_28834" data-name="Path 28834" d="M73.152,85.953v.694L67.6,89.875v-.694Z" transform="translate(32.675 41.549)" fill="#02293f"/>
        <path id="Path_28835" data-name="Path 28835" d="M69.426,89.873l-5.613-3.219v-.694l5.613,3.219Z" transform="translate(30.846 41.551)" fill="#02293f"/>
        <path id="Path_28836" data-name="Path 28836" d="M68.441,83.243v.694l-5.555,3.228v-.694Z" transform="translate(30.398 40.239)" fill="#02293f"/>
        <path id="Path_28837" data-name="Path 28837" d="M64.715,87.162,59.1,83.944v-.694l5.613,3.219Z" transform="translate(28.569 40.241)" fill="#02293f"/>
        <path id="Path_28838" data-name="Path 28838" d="M63.622,80.4v.694l-5.555,3.228v-.694Z" transform="translate(28.068 38.862)" fill="#02293f"/>
        <path id="Path_28839" data-name="Path 28839" d="M59.9,84.315,54.282,81.1V80.4L59.9,83.621Z" transform="translate(26.239 38.865)" fill="#02293f"/>
        <path id="Path_28840" data-name="Path 28840" d="M58.913,77.7v.693l-5.555,3.229v-.694Z" transform="translate(25.792 37.559)" fill="#02293f"/>
        <path id="Path_28841" data-name="Path 28841" d="M55.187,81.62,49.573,78.4v-.693l5.613,3.219Z" transform="translate(23.963 37.562)" fill="#02293f"/>
        <path id="Path_28842" data-name="Path 28842" d="M102.773,108.66v.694l-5.555,3.228v-.694Z" transform="translate(46.993 52.524)" fill="#02293f"/>
        <path id="Path_28843" data-name="Path 28843" d="M99.047,112.579l-5.613-3.219v-.694l5.613,3.219Z" transform="translate(45.164 52.527)" fill="#02293f"/>
        <path id="Path_28844" data-name="Path 28844" d="M98.009,105.912v.694l-5.555,3.228v-.694Z" transform="translate(44.691 51.196)" fill="#02293f"/>
        <path id="Path_28845" data-name="Path 28845" d="M94.283,109.831l-5.613-3.219v-.694l5.613,3.219Z" transform="translate(42.861 51.199)" fill="#02293f"/>
        <path id="Path_28846" data-name="Path 28846" d="M93.245,103.164v.694l-5.555,3.228v-.694Z" transform="translate(42.388 49.868)" fill="#02293f"/>
        <path id="Path_28847" data-name="Path 28847" d="M89.519,107.083l-5.613-3.219v-.694l5.613,3.219Z" transform="translate(40.559 49.871)" fill="#02293f"/>
        <path id="Path_28848" data-name="Path 28848" d="M88.481,100.4v.694l-5.555,3.228v-.694Z" transform="translate(40.085 48.532)" fill="#02293f"/>
        <path id="Path_28849" data-name="Path 28849" d="M84.755,104.32l-5.613-3.22v-.693l5.613,3.219Z" transform="translate(38.256 48.535)" fill="#02293f"/>
        <path id="Path_28850" data-name="Path 28850" d="M83.717,97.668v.694l-5.555,3.228V100.9Z" transform="translate(37.782 47.211)" fill="#02293f"/>
        <path id="Path_28851" data-name="Path 28851" d="M79.991,101.588l-5.613-3.22v-.693l5.613,3.219Z" transform="translate(35.953 47.214)" fill="#02293f"/>
        <path id="Path_28852" data-name="Path 28852" d="M78.953,94.9v.694L73.4,98.821v-.694Z" transform="translate(35.479 45.873)" fill="#02293f"/>
        <path id="Path_28853" data-name="Path 28853" d="M75.226,98.819,69.613,95.6v-.694l5.613,3.219Z" transform="translate(33.65 45.876)" fill="#02293f"/>
        <path id="Path_28854" data-name="Path 28854" d="M74.189,92.146v.694l-5.555,3.228v-.694Z" transform="translate(33.176 44.542)" fill="#02293f"/>
        <path id="Path_28855" data-name="Path 28855" d="M70.463,96.066,64.85,92.847v-.694l5.613,3.219Z" transform="translate(31.347 44.545)" fill="#02293f"/>
        <path id="Path_28856" data-name="Path 28856" d="M69.372,89.393v.694l-5.555,3.228v-.694Z" transform="translate(30.848 43.211)" fill="#02293f"/>
        <path id="Path_28857" data-name="Path 28857" d="M65.646,93.313l-5.613-3.22V89.4l5.613,3.219Z" transform="translate(29.019 43.214)" fill="#02293f"/>
        <path id="Path_28858" data-name="Path 28858" d="M64.661,86.677v.694L59.105,90.6v-.694Z" transform="translate(28.571 41.898)" fill="#02293f"/>
        <path id="Path_28859" data-name="Path 28859" d="M60.935,90.6l-5.613-3.22v-.693L60.935,89.9Z" transform="translate(26.742 41.901)" fill="#02293f"/>
        <path id="Path_28860" data-name="Path 28860" d="M59.841,83.832v.693l-5.555,3.229V87.06Z" transform="translate(26.241 40.523)" fill="#02293f"/>
        <path id="Path_28861" data-name="Path 28861" d="M56.115,87.751,50.5,84.531v-.693l5.613,3.219Z" transform="translate(24.412 40.526)" fill="#02293f"/>
        <path id="Path_28862" data-name="Path 28862" d="M55.133,81.125v.694l-5.555,3.228v-.694Z" transform="translate(23.965 39.215)" fill="#02293f"/>
        <path id="Path_28863" data-name="Path 28863" d="M51.407,85.045l-5.613-3.219v-.694l5.613,3.219Z" transform="translate(22.136 39.218)" fill="#02293f"/>
        <path id="Path_28864" data-name="Path 28864" d="M99.005,112.078v.694L93.45,116v-.694Z" transform="translate(45.172 54.177)" fill="#02293f"/>
        <path id="Path_28865" data-name="Path 28865" d="M95.279,116l-5.613-3.219v-.694l5.613,3.219Z" transform="translate(43.343 54.18)" fill="#02293f"/>
        <path id="Path_28866" data-name="Path 28866" d="M94.241,109.33v.694l-5.555,3.228v-.694Z" transform="translate(42.869 52.849)" fill="#02293f"/>
        <path id="Path_28867" data-name="Path 28867" d="M90.515,113.25l-5.613-3.22v-.693l5.613,3.219Z" transform="translate(41.04 52.852)" fill="#02293f"/>
        <path id="Path_28868" data-name="Path 28868" d="M89.477,106.582v.694L83.922,110.5v-.694Z" transform="translate(40.566 51.52)" fill="#02293f"/>
        <path id="Path_28869" data-name="Path 28869" d="M85.751,110.5l-5.613-3.22v-.693l5.613,3.219Z" transform="translate(38.737 51.523)" fill="#02293f"/>
        <path id="Path_28870" data-name="Path 28870" d="M84.713,103.835v.694l-5.555,3.228v-.694Z" transform="translate(38.264 50.192)" fill="#02293f"/>
        <path id="Path_28871" data-name="Path 28871" d="M80.987,107.754l-5.613-3.219v-.694l5.613,3.219Z" transform="translate(36.434 50.195)" fill="#02293f"/>
        <path id="Path_28872" data-name="Path 28872" d="M79.952,101.064v.694L74.4,104.986v-.694Z" transform="translate(35.962 48.853)" fill="#02293f"/>
        <path id="Path_28873" data-name="Path 28873" d="M76.226,104.984l-5.613-3.219v-.694l5.613,3.219Z" transform="translate(34.133 48.856)" fill="#02293f"/>
        <path id="Path_28874" data-name="Path 28874" d="M75.188,98.311v.694l-5.555,3.228v-.694Z" transform="translate(33.659 47.522)" fill="#02293f"/>
        <path id="Path_28875" data-name="Path 28875" d="M71.462,102.231l-5.613-3.22v-.693l5.613,3.219Z" transform="translate(31.83 47.525)" fill="#02293f"/>
        <path id="Path_28876" data-name="Path 28876" d="M70.421,95.554v.694l-5.555,3.228v-.694Z" transform="translate(31.355 46.189)" fill="#02293f"/>
        <path id="Path_28877" data-name="Path 28877" d="M66.695,99.474l-5.613-3.22v-.694l5.613,3.22Z" transform="translate(29.526 46.192)" fill="#02293f"/>
        <path id="Path_28878" data-name="Path 28878" d="M65.608,92.805V93.5l-5.555,3.228v-.694Z" transform="translate(29.029 44.861)" fill="#02293f"/>
        <path id="Path_28879" data-name="Path 28879" d="M61.882,96.725l-5.613-3.219v-.694l5.613,3.219Z" transform="translate(27.2 44.864)" fill="#02293f"/>
        <path id="Path_28880" data-name="Path 28880" d="M60.893,90.1v.694l-5.555,3.228v-.694Z" transform="translate(26.749 43.551)" fill="#02293f"/>
        <path id="Path_28881" data-name="Path 28881" d="M57.167,94.015,51.554,90.8V90.1l5.613,3.219Z" transform="translate(24.92 43.554)" fill="#02293f"/>
        <path id="Path_28882" data-name="Path 28882" d="M56.077,87.249v.694l-5.555,3.228v-.694Z" transform="translate(24.421 42.175)" fill="#02293f"/>
        <path id="Path_28883" data-name="Path 28883" d="M52.351,91.168l-5.613-3.22v-.693l5.613,3.219Z" transform="translate(22.592 42.178)" fill="#02293f"/>
        <path id="Path_28884" data-name="Path 28884" d="M51.365,84.542v.694L45.81,88.464V87.77Z" transform="translate(22.144 40.866)" fill="#02293f"/>
        <path id="Path_28885" data-name="Path 28885" d="M47.639,88.461l-5.613-3.22v-.693l5.613,3.219Z" transform="translate(20.315 40.869)" fill="#02293f"/>
        <path id="Path_28886" data-name="Path 28886" d="M90.453,112.75v.694L84.9,116.672v-.694Z" transform="translate(41.038 54.501)" fill="#02293f"/>
        <path id="Path_28887" data-name="Path 28887" d="M86.727,116.669l-5.613-3.22v-.693l5.613,3.219Z" transform="translate(39.209 54.504)" fill="#02293f"/>
        <path id="Path_28888" data-name="Path 28888" d="M85.689,109.992v.694l-5.555,3.228v-.693Z" transform="translate(38.735 53.168)" fill="#02293f"/>
        <path id="Path_28889" data-name="Path 28889" d="M81.963,113.912l-5.613-3.22V110l5.613,3.219Z" transform="translate(36.906 53.172)" fill="#02293f"/>
        <path id="Path_28890" data-name="Path 28890" d="M80.925,107.237v.694l-5.555,3.228v-.694Z" transform="translate(36.433 51.837)" fill="#02293f"/>
        <path id="Path_28891" data-name="Path 28891" d="M77.2,111.157l-5.613-3.22v-.693l5.613,3.219Z" transform="translate(34.603 51.84)" fill="#02293f"/>
        <path id="Path_28892" data-name="Path 28892" d="M76.161,104.491v.694l-5.555,3.228v-.694Z" transform="translate(34.13 50.509)" fill="#02293f"/>
        <path id="Path_28893" data-name="Path 28893" d="M72.435,108.41l-5.613-3.22V104.5l5.613,3.219Z" transform="translate(32.301 50.512)" fill="#02293f"/>
        <path id="Path_28894" data-name="Path 28894" d="M71.4,101.738v.694l-5.555,3.228v-.694Z" transform="translate(31.827 49.179)" fill="#02293f"/>
        <path id="Path_28895" data-name="Path 28895" d="M67.671,105.657l-5.613-3.22v-.693l5.613,3.219Z" transform="translate(29.998 49.182)" fill="#02293f"/>
        <path id="Path_28896" data-name="Path 28896" d="M66.633,98.979v.694L61.078,102.9v-.694Z" transform="translate(29.524 47.845)" fill="#02293f"/>
        <path id="Path_28897" data-name="Path 28897" d="M62.907,102.9l-5.613-3.22v-.693l5.613,3.219Z" transform="translate(27.695 47.848)" fill="#02293f"/>
        <path id="Path_28898" data-name="Path 28898" d="M61.815,96.228v.694l-5.555,3.228v-.694Z" transform="translate(27.195 46.515)" fill="#02293f"/>
        <path id="Path_28899" data-name="Path 28899" d="M58.089,100.147l-5.613-3.22v-.693l5.613,3.219Z" transform="translate(25.366 46.518)" fill="#02293f"/>
        <path id="Path_28900" data-name="Path 28900" d="M57.1,93.519v.694l-5.555,3.228v-.693Z" transform="translate(24.918 45.206)" fill="#02293f"/>
        <path id="Path_28901" data-name="Path 28901" d="M53.379,97.439l-5.613-3.22v-.693l5.613,3.219Z" transform="translate(23.089 45.209)" fill="#02293f"/>
        <path id="Path_28902" data-name="Path 28902" d="M52.285,90.675v.694L46.73,94.6V93.9Z" transform="translate(22.589 43.831)" fill="#02293f"/>
        <path id="Path_28903" data-name="Path 28903" d="M48.559,94.595l-5.613-3.219v-.694L48.559,93.9Z" transform="translate(20.76 43.834)" fill="#02293f"/>
        <path id="Path_28904" data-name="Path 28904" d="M47.577,87.968v.694l-5.555,3.228V91.2Z" transform="translate(20.312 42.523)" fill="#02293f"/>
        <path id="Path_28905" data-name="Path 28905" d="M43.851,91.888l-5.613-3.219v-.694l5.613,3.219Z" transform="translate(18.483 42.526)" fill="#02293f"/>
        <path id="Path_28906" data-name="Path 28906" d="M42.715,85.2v.694L37.16,89.12v-.694Z" transform="translate(17.963 41.183)" fill="#02293f"/>
        <path id="Path_28907" data-name="Path 28907" d="M40.449,89.972,30.355,84.13v-.694l10.094,5.842Z" transform="translate(14.673 40.332)" fill="#02293f"/>
        <path id="Path_28908" data-name="Path 28908" d="M54.2,74.993v.694l-5.555,3.228v-.694Z" transform="translate(23.516 36.25)" fill="#02293f"/>
        <path id="Path_28909" data-name="Path 28909" d="M50.478,78.912l-5.613-3.219V75l5.613,3.219Z" transform="translate(21.687 36.253)" fill="#02293f"/>
        <path id="Path_28910" data-name="Path 28910" d="M115.7,116.093v.694l-5.555,3.228v-.694Z" transform="translate(53.243 56.117)" fill="#02293f"/>
        <path id="Path_28911" data-name="Path 28911" d="M111.975,120.012l-5.613-3.219V116.1l5.613,3.219Z" transform="translate(51.414 56.12)" fill="#02293f"/>
        <path id="Path_28912" data-name="Path 28912" d="M110.792,118.943v.694l-5.555,3.228v-.694Z" transform="translate(50.87 57.495)" fill="#02293f"/>
        <path id="Path_28913" data-name="Path 28913" d="M107.066,122.862l-5.613-3.219v-.694l5.613,3.219Z" transform="translate(49.041 57.498)" fill="#02293f"/>
        <path id="Path_28914" data-name="Path 28914" d="M105.994,121.735v.694l-5.555,3.228v-.694Z" transform="translate(48.551 58.845)" fill="#02293f"/>
        <path id="Path_28915" data-name="Path 28915" d="M102.268,125.655l-5.613-3.22v-.693l5.613,3.219Z" transform="translate(46.722 58.848)" fill="#02293f"/>
        <path id="Path_28916" data-name="Path 28916" d="M101.06,118.871v.694L95.5,122.793V122.1Z" transform="translate(46.165 57.46)" fill="#02293f"/>
        <path id="Path_28917" data-name="Path 28917" d="M97.334,122.79l-5.613-3.219v-.694l5.613,3.219Z" transform="translate(44.336 57.463)" fill="#02293f"/>
        <path id="Path_28918" data-name="Path 28918" d="M96.124,116.035v.694l-5.555,3.228v-.694Z" transform="translate(43.78 56.089)" fill="#02293f"/>
        <path id="Path_28919" data-name="Path 28919" d="M92.837,120.214l-6.96-4.016V115.5l6.96,4.016Z" transform="translate(41.512 55.833)" fill="#02293f"/>
        <path id="Path_28920" data-name="Path 28920" d="M101.235,124.5v.694l-5.555,3.228v-.693Z" transform="translate(46.25 60.182)" fill="#02293f"/>
        <path id="Path_28921" data-name="Path 28921" d="M97.507,128.425,91.9,125.195V124.5l5.613,3.219Z" transform="translate(44.424 60.182)" fill="#02293f"/>
        <path id="Path_28922" data-name="Path 28922" d="M96.286,121.653v.694l-5.555,3.228v-.708Z" transform="translate(43.858 58.805)" fill="#02293f"/>
        <path id="Path_28923" data-name="Path 28923" d="M92.556,125.579l-5.6-3.238v-.694l5.6,3.225Z" transform="translate(42.032 58.802)" fill="#02293f"/>
        <path id="Path_28924" data-name="Path 28924" d="M91.374,118.808v.694l-5.555,3.228v-.694Z" transform="translate(41.484 57.43)" fill="#02293f"/>
        <path id="Path_28925" data-name="Path 28925" d="M87.648,122.727l-5.613-3.22v-.693l5.613,3.219Z" transform="translate(39.655 57.433)" fill="#02293f"/>
        <path id="Path_28926" data-name="Path 28926" d="M86.44,115.947v.694l-5.555,3.228v-.694Z" transform="translate(39.098 56.047)" fill="#02293f"/>
        <path id="Path_28927" data-name="Path 28927" d="M82.713,119.866l-5.613-3.22v-.693l5.613,3.219Z" transform="translate(37.269 56.05)" fill="#02293f"/>
        <path id="Path_28928" data-name="Path 28928" d="M81.492,113.12v.694l-5.555,3.228v-.694Z" transform="translate(36.707 54.68)" fill="#02293f"/>
        <path id="Path_28929" data-name="Path 28929" d="M77.766,117.039l-5.613-3.22v-.693l5.613,3.219Z" transform="translate(34.878 54.683)" fill="#02293f"/>
        <path id="Path_28930" data-name="Path 28930" d="M76.463,110.219v.694l-5.555,3.228v-.694Z" transform="translate(34.276 53.278)" fill="#02293f"/>
        <path id="Path_28931" data-name="Path 28931" d="M83.743,120.485l-39.348-22.7V97.1l39.348,22.7Z" transform="translate(21.46 46.934)" fill="#02293f"/>
        <path id="Path_28932" data-name="Path 28932" d="M49.048,94.351v.694l-5.555,3.228v-.694Z" transform="translate(21.024 45.608)" fill="#02293f"/>
        <path id="Path_28933" data-name="Path 28933" d="M45.321,97.576l-5.613-3.219v.693l5.613,3.22Z" transform="translate(19.194 45.611)" fill="#02293f"/>
        <path id="Path_28934" data-name="Path 28934" d="M44.332,91.657v.694l-5.555,3.228v-.694Z" transform="translate(18.744 44.305)" fill="#02293f"/>
        <path id="Path_28935" data-name="Path 28935" d="M40.606,94.882l-5.613-3.22v.694l5.613,3.22Z" transform="translate(16.915 44.308)" fill="#02293f"/>
        <path id="Path_28936" data-name="Path 28936" d="M39.617,88.933v.694l-5.555,3.228v-.694Z" transform="translate(16.465 42.989)" fill="#02293f"/>
        <path id="Path_28937" data-name="Path 28937" d="M35.891,92.158l-5.613-3.219v.693l5.613,3.22Z" transform="translate(14.636 42.992)" fill="#02293f"/>
        <path id="Path_28938" data-name="Path 28938" d="M34.9,86.21V86.9l-5.555,3.228v-.694Z" transform="translate(14.184 41.672)" fill="#02293f"/>
        <path id="Path_28939" data-name="Path 28939" d="M31.172,89.435l-5.613-3.219v.693l5.613,3.22Z" transform="translate(12.355 41.675)" fill="#02293f"/>
        <path id="Path_28940" data-name="Path 28940" d="M46.5,81.775v.693l-5.546,3.225V85Z" transform="translate(19.798 39.529)" fill="#02293f"/>
        <path id="Path_28941" data-name="Path 28941" d="M43.743,85.556,35.2,80.621v.694l8.547,4.935Z" transform="translate(17.013 38.971)" fill="#02293f"/>
        <path id="Path_28942" data-name="Path 28942" d="M50.3,78.351v.694l-5.555,3.228v-.693Z" transform="translate(21.628 37.874)" fill="#02293f"/>
        <path id="Path_28943" data-name="Path 28943" d="M47.021,81.841l-6.988-4.03v.694l6.988,4.03Z" transform="translate(19.351 37.613)" fill="#02293f"/>
        <path id="Path_28944" data-name="Path 28944" d="M95.68,128.425l.866-.013,5.471-3.192-.774-.436,0-.282-5.558,3.217Z" transform="translate(46.25 60.182)" fill="#02293f"/>
        <path id="Path_28945" data-name="Path 28945" d="M100.449,125.65h.856l5.471-3.192L106,122.02l0-.28-5.558,3.217Z" transform="translate(48.551 58.847)" fill="#02293f"/>
        <path id="Path_28946" data-name="Path 28946" d="M105.236,122.861h.866l5.471-3.192-.774-.438-.006-.28-5.557,3.217Z" transform="translate(50.87 57.499)" fill="#02293f"/>
        <path id="Path_28947" data-name="Path 28947" d="M110.155,120h.856l5.471-3.192-.774-.438-.006-.28-5.557,3.217Z" transform="translate(53.242 56.116)" fill="#02293f"/>
        <path id="Path_28948" data-name="Path 28948" d="M90.725,125.585l.866-.013,5.471-3.192-.774-.436-.006-.282-5.557,3.217Z" transform="translate(43.855 58.809)" fill="#02293f"/>
        <path id="Path_28949" data-name="Path 28949" d="M85.818,122.734l.866-.013,5.471-3.192-.774-.436-.006-.282-5.557,3.217Z" transform="translate(41.483 57.431)" fill="#02293f"/>
        <path id="Path_28950" data-name="Path 28950" d="M80.885,119.871l.868-.013,5.469-3.192-.774-.436,0-.282-5.558,3.217Z" transform="translate(39.099 56.047)" fill="#02293f"/>
        <path id="Path_28951" data-name="Path 28951" d="M75.934,117.043l.868-.013,5.469-3.192L81.5,113.4l0-.282-5.558,3.217Z" transform="translate(36.705 54.68)" fill="#02293f"/>
        <path id="Path_28952" data-name="Path 28952" d="M70.9,114.142l.868-.013,5.469-3.192-.774-.436,0-.282L70.9,113.436Z" transform="translate(34.274 53.278)" fill="#02293f"/>
        <path id="Path_28953" data-name="Path 28953" d="M43.493,98.274l.868-.013,5.469-3.192-.774-.436,0-.282-5.558,3.217Z" transform="translate(21.024 45.608)" fill="#02293f"/>
        <path id="Path_28954" data-name="Path 28954" d="M38.769,95.58l.868-.013,5.469-3.192-.774-.436,0-.282-5.558,3.217Z" transform="translate(18.74 44.305)" fill="#02293f"/>
        <path id="Path_28955" data-name="Path 28955" d="M34.058,92.857l.868-.013L40.4,89.651l-.776-.436,0-.282-5.558,3.217Z" transform="translate(16.463 42.989)" fill="#02293f"/>
        <path id="Path_28956" data-name="Path 28956" d="M29.342,90.133l.866-.013,5.471-3.192-.774-.436L34.9,86.21l-5.557,3.217Z" transform="translate(14.183 41.672)" fill="#02293f"/>
        <path id="Path_28957" data-name="Path 28957" d="M95.494,122.809h.856l5.471-3.192-.774-.436-.006-.282-5.557,3.217Z" transform="translate(46.155 57.474)" fill="#02293f"/>
        <path id="Path_28958" data-name="Path 28958" d="M90.58,119.949h.856l5.471-3.192-.774-.436-.006-.282-5.557,3.217Z" transform="translate(43.78 56.091)" fill="#02293f"/>
        <path id="Path_28959" data-name="Path 28959" d="M93.46,115.992h.856l5.471-3.192-.774-.436-.006-.282L93.45,115.3Z" transform="translate(45.172 54.179)" fill="#02293f"/>
        <path id="Path_28960" data-name="Path 28960" d="M97.228,112.577h.857l5.469-3.192-.774-.436,0-.282-5.558,3.217Z" transform="translate(46.993 52.528)" fill="#02293f"/>
        <path id="Path_28961" data-name="Path 28961" d="M92.464,109.829h.857l5.469-3.192-.774-.436,0-.282-5.558,3.217Z" transform="translate(44.691 51.2)" fill="#02293f"/>
        <path id="Path_28962" data-name="Path 28962" d="M87.7,107.081h.857l5.469-3.192-.774-.436,0-.282-5.558,3.217Z" transform="translate(42.388 49.871)" fill="#02293f"/>
        <path id="Path_28963" data-name="Path 28963" d="M82.936,104.315h.857l5.469-3.192-.774-.436,0-.282-5.558,3.217Z" transform="translate(40.085 48.534)" fill="#02293f"/>
        <path id="Path_28964" data-name="Path 28964" d="M78.172,101.586h.856L84.5,98.394l-.774-.438,0-.28-5.558,3.217Z" transform="translate(37.782 47.215)" fill="#02293f"/>
        <path id="Path_28965" data-name="Path 28965" d="M73.407,98.814h.856l5.471-3.192-.774-.436,0-.282L73.4,98.121Z" transform="translate(35.479 45.875)" fill="#02293f"/>
        <path id="Path_28966" data-name="Path 28966" d="M68.643,96.061H69.5l5.471-3.192-.774-.438-.006-.28-5.557,3.217Z" transform="translate(33.176 44.544)" fill="#02293f"/>
        <path id="Path_28967" data-name="Path 28967" d="M63.831,93.308h.857l5.469-3.192-.774-.436,0-.282-5.558,3.217Z" transform="translate(30.85 43.213)" fill="#02293f"/>
        <path id="Path_28968" data-name="Path 28968" d="M59.115,90.595h.856L65.443,87.4l-.776-.436-.006-.282L59.1,89.9Z" transform="translate(28.57 41.902)" fill="#02293f"/>
        <path id="Path_28969" data-name="Path 28969" d="M54.295,87.746h.856l5.471-3.192-.774-.436,0-.282-5.558,3.217Z" transform="translate(26.24 40.525)" fill="#02293f"/>
        <path id="Path_28970" data-name="Path 28970" d="M49.587,85.04h.856l5.471-3.192-.774-.438-.006-.28-5.557,3.217Z" transform="translate(23.965 39.217)" fill="#02293f"/>
        <path id="Path_28971" data-name="Path 28971" d="M44.751,82.262h.856l5.471-3.192-.774-.436-.006-.282L44.74,81.569Z" transform="translate(21.627 37.874)" fill="#02293f"/>
        <path id="Path_28972" data-name="Path 28972" d="M88.7,113.248h.856l5.471-3.192-.774-.436-.006-.282-5.557,3.217Z" transform="translate(42.869 52.852)" fill="#02293f"/>
        <path id="Path_28973" data-name="Path 28973" d="M83.932,110.5h.856l5.471-3.192-.774-.436-.006-.282-5.557,3.217Z" transform="translate(40.566 51.525)" fill="#02293f"/>
        <path id="Path_28974" data-name="Path 28974" d="M79.168,107.745h.856l5.471-3.192-.774-.436-.006-.282-5.557,3.217Z" transform="translate(38.264 50.192)" fill="#02293f"/>
        <path id="Path_28975" data-name="Path 28975" d="M74.4,104.979h.857l5.471-3.192-.776-.436-.006-.282-5.557,3.217Z" transform="translate(35.961 48.855)" fill="#02293f"/>
        <path id="Path_28976" data-name="Path 28976" d="M69.64,102.226H70.5l5.471-3.192-.776-.436,0-.282-5.558,3.217Z" transform="translate(33.658 47.524)" fill="#02293f"/>
        <path id="Path_28977" data-name="Path 28977" d="M64.876,99.468h.856L71.2,96.276l-.774-.436-.006-.282-5.557,3.217Z" transform="translate(31.355 46.191)" fill="#02293f"/>
        <path id="Path_28978" data-name="Path 28978" d="M60.063,96.72h.856l5.471-3.192-.774-.436-.006-.282-5.557,3.217Z" transform="translate(29.029 44.863)" fill="#02293f"/>
        <path id="Path_28979" data-name="Path 28979" d="M55.347,94.01H56.2l5.471-3.192-.774-.436-.006-.282-5.557,3.217Z" transform="translate(26.749 43.553)" fill="#02293f"/>
        <path id="Path_28980" data-name="Path 28980" d="M50.53,91.164h.857l5.471-3.192-.776-.436-.006-.282-5.557,3.217Z" transform="translate(24.42 42.177)" fill="#02293f"/>
        <path id="Path_28981" data-name="Path 28981" d="M45.819,88.456h.856l5.471-3.192-.774-.436,0-.282-5.558,3.217Z" transform="translate(22.143 40.868)" fill="#02293f"/>
        <path id="Path_28982" data-name="Path 28982" d="M40.964,85.687h.857L47.291,82.5l-.774-.436,0-.282-5.558,3.217Z" transform="translate(19.796 39.53)" fill="#02293f"/>
        <path id="Path_28983" data-name="Path 28983" d="M84.908,116.667h.856l5.471-3.192-.774-.436-.006-.282L84.9,115.974Z" transform="translate(41.038 54.505)" fill="#02293f"/>
        <path id="Path_28984" data-name="Path 28984" d="M80.144,113.9H81l5.471-3.192-.774-.436-.006-.282-5.557,3.217Z" transform="translate(38.735 53.168)" fill="#02293f"/>
        <path id="Path_28985" data-name="Path 28985" d="M75.375,111.148h.857l5.469-3.192-.774-.436,0-.282-5.558,3.217Z" transform="translate(36.43 51.837)" fill="#02293f"/>
        <path id="Path_28986" data-name="Path 28986" d="M70.617,108.4h.856l5.471-3.192-.783-.442,0-.276-5.558,3.217Z" transform="translate(34.13 50.509)" fill="#02293f"/>
        <path id="Path_28987" data-name="Path 28987" d="M65.847,105.652H66.7l5.471-3.192-.774-.436,0-.282-5.558,3.217Z" transform="translate(31.825 49.181)" fill="#02293f"/>
        <path id="Path_28988" data-name="Path 28988" d="M61.082,102.893h.856L67.409,99.7l-.776-.436,0-.282L61.072,102.2Z" transform="translate(29.521 47.847)" fill="#02293f"/>
        <path id="Path_28989" data-name="Path 28989" d="M56.269,100.143h.857L62.6,96.95l-.774-.436,0-.282L56.259,99.45Z" transform="translate(27.195 46.517)" fill="#02293f"/>
        <path id="Path_28990" data-name="Path 28990" d="M51.558,97.433h.856l5.471-3.192-.774-.436,0-.282-5.558,3.217Z" transform="translate(24.917 45.208)" fill="#02293f"/>
        <path id="Path_28991" data-name="Path 28991" d="M46.739,94.582h.856l5.471-3.192-.774-.436,0-.282L46.728,93.89Z" transform="translate(22.588 43.83)" fill="#02293f"/>
        <path id="Path_28992" data-name="Path 28992" d="M42.033,91.883h.857l5.469-3.192-.774-.436-.006-.282L42.022,91.19Z" transform="translate(20.313 42.525)" fill="#02293f"/>
        <path id="Path_28993" data-name="Path 28993" d="M37.166,89.112h.857l5.469-3.192-.774-.436,0-.282-5.558,3.217Z" transform="translate(17.96 41.185)" fill="#02293f"/>
        <path id="Path_28994" data-name="Path 28994" d="M100.281,120.02h.868l5.469-3.192-.774-.436-.006-.282-5.557,3.217Z" transform="translate(48.474 56.126)" fill="#02293f"/>
        <path id="Path_28995" data-name="Path 28995" d="M105.2,117.16h.856l5.471-3.192-.774-.436-.006-.282-5.557,3.217Z" transform="translate(50.847 54.743)" fill="#02293f"/>
        <path id="Path_28996" data-name="Path 28996" d="M115.062,117.154h.857l5.469-3.192-.774-.436-.006-.282-5.557,3.217Z" transform="translate(55.614 54.74)" fill="#02293f"/>
        <path id="Path_28997" data-name="Path 28997" d="M110.11,114.307h.856l5.471-3.192-.774-.436-.006-.282-5.557,3.217Z" transform="translate(53.221 53.364)" fill="#02293f"/>
        <path id="Path_28998" data-name="Path 28998" d="M101,109.148l.865-.012,5.472-3.192-.776-.436-.006-.282-5.57,3.243Z" transform="translate(48.816 50.865)" fill="#02293f"/>
        <path id="Path_28999" data-name="Path 28999" d="M96.238,106.4l.865-.012,5.471-3.192-.774-.436-.006-.282-5.57,3.243Z" transform="translate(46.513 49.536)" fill="#02293f"/>
        <path id="Path_29000" data-name="Path 29000" d="M91.473,103.652l.866-.012,5.469-3.192-.774-.436-.006-.282-5.57,3.243Z" transform="translate(44.209 48.208)" fill="#02293f"/>
        <path id="Path_29001" data-name="Path 29001" d="M86.712,100.894l.865-.012,5.471-3.192-.774-.436-.006-.282-5.57,3.243Z" transform="translate(41.908 46.875)" fill="#02293f"/>
        <path id="Path_29002" data-name="Path 29002" d="M81.943,98.14l.866-.012,5.469-3.192L87.5,94.5l-.006-.282-5.57,3.243Z" transform="translate(39.603 45.544)" fill="#02293f"/>
        <path id="Path_29003" data-name="Path 29003" d="M77.179,95.387l.866-.012,5.471-3.192-.776-.436-.006-.282-5.57,3.243Z" transform="translate(37.3 44.213)" fill="#02293f"/>
        <path id="Path_29004" data-name="Path 29004" d="M72.414,92.635l.866-.012,5.469-3.192-.774-.436-.006-.282L72.4,91.955Z" transform="translate(34.997 42.882)" fill="#02293f"/>
        <path id="Path_29005" data-name="Path 29005" d="M67.6,89.875l.866-.012,5.469-3.192-.774-.436-.006-.282L67.586,89.2Z" transform="translate(32.67 41.549)" fill="#02293f"/>
        <path id="Path_29006" data-name="Path 29006" d="M62.885,87.164l.865-.012L69.22,83.96l-.774-.436-.006-.282-5.57,3.243Z" transform="translate(30.39 40.238)" fill="#02293f"/>
        <path id="Path_29007" data-name="Path 29007" d="M58.069,84.318l.866-.012L64.4,81.114l-.774-.436-.006-.282-5.57,3.243Z" transform="translate(28.062 38.862)" fill="#02293f"/>
        <path id="Path_29008" data-name="Path 29008" d="M53.363,81.624l.866-.012L59.7,78.42l-.774-.436-.006-.282-5.57,3.243Z" transform="translate(25.788 37.56)" fill="#02293f"/>
        <path id="Path_29009" data-name="Path 29009" d="M48.655,78.921l.866-.012,5.469-3.192-.776-.436,0-.282-5.57,3.243Z" transform="translate(23.512 36.253)" fill="#02293f"/>
        <path id="Path_29010" data-name="Path 29010" d="M119.66,113.941h.857l2.7-1.58-.774-.436-.006-.282-2.786,1.605Z" transform="translate(57.837 53.966)" fill="#02293f"/>
        <path id="Path_29011" data-name="Path 29011" d="M114.732,111.1h.856l2.7-1.58-.774-.436-.006-.282-2.786,1.605Z" transform="translate(55.454 52.591)" fill="#02293f"/>
        <path id="Path_29012" data-name="Path 29012" d="M110.468,108.658h.857l2.7-1.58-.8-.448,0-.274-2.765,1.609Z" transform="translate(53.394 51.411)" fill="#02293f"/>
        <path id="Path_29013" data-name="Path 29013" d="M105.7,105.9h.856l2.7-1.58-.8-.448V103.6l-2.768,1.608Z" transform="translate(51.091 50.081)" fill="#02293f"/>
        <path id="Path_29014" data-name="Path 29014" d="M100.94,103.151h.856l2.7-1.58-.8-.448v-.271l-2.771,1.607Z" transform="translate(48.788 48.75)" fill="#02293f"/>
        <path id="Path_29015" data-name="Path 29015" d="M96.176,100.4h.856l2.7-1.58-.8-.448,0-.27-2.774,1.605Z" transform="translate(46.485 47.42)" fill="#02293f"/>
        <path id="Path_29016" data-name="Path 29016" d="M91.413,97.647h.856l2.7-1.58-.8-.448,0-.274L91.4,96.954Z" transform="translate(44.182 46.088)" fill="#02293f"/>
        <path id="Path_29017" data-name="Path 29017" d="M86.649,94.888h.857l2.7-1.58-.8-.449V92.6L86.638,94.2Z" transform="translate(41.88 44.763)" fill="#02293f"/>
        <path id="Path_29018" data-name="Path 29018" d="M81.885,92.139h.857l2.7-1.58-.8-.448v-.27l-2.771,1.605Z" transform="translate(39.577 43.428)" fill="#02293f"/>
        <path id="Path_29019" data-name="Path 29019" d="M77.121,89.388h.857l2.7-1.58-.8-.449v-.271L77.11,88.695Z" transform="translate(37.274 42.096)" fill="#02293f"/>
        <path id="Path_29020" data-name="Path 29020" d="M72.357,86.635h.856l2.7-1.58-.8-.449v-.271l-2.767,1.608Z" transform="translate(34.971 40.766)" fill="#02293f"/>
        <path id="Path_29021" data-name="Path 29021" d="M67.593,83.88h.856l2.7-1.58-.8-.449v-.267l-2.767,1.6Z" transform="translate(32.668 39.436)" fill="#02293f"/>
        <path id="Path_29022" data-name="Path 29022" d="M62.829,81.129h.856l2.7-1.58-.8-.449,0-.273-2.765,1.609Z" transform="translate(30.366 38.104)" fill="#02293f"/>
        <path id="Path_29023" data-name="Path 29023" d="M58.065,78.375h.857l2.7-1.58-.776-.436,0-.282-2.787,1.605Z" transform="translate(28.063 36.775)" fill="#02293f"/>
        <path id="Path_29024" data-name="Path 29024" d="M53.345,75.656H54.2l2.7-1.58-.774-.436-.006-.282-2.765,1.6Z" transform="translate(25.786 35.46)" fill="#02293f"/>
        <path id="Path_29025" data-name="Path 29025" d="M86.954,121.779l5.6,3.2v-.093l.079-.046-5.6-3.223-.077.044Z" transform="translate(42.032 58.788)" fill="#d8d9da"/>
        <path id="Path_29026" data-name="Path 29026" d="M82.035,118.945l5.6,3.2v-.093l.08-.046-5.606-3.223-.077.044Z" transform="translate(39.654 57.418)" fill="#d8d9da"/>
        <path id="Path_29027" data-name="Path 29027" d="M77.1,116.085l5.6,3.2v-.095l.08-.046-5.606-3.222-.077.045Z" transform="translate(37.269 56.036)" fill="#d8d9da"/>
        <path id="Path_29028" data-name="Path 29028" d="M72.153,113.257l5.6,3.2v-.093l.08-.046L72.23,113.1l-.077.044Z" transform="translate(34.878 54.668)" fill="#d8d9da"/>
        <path id="Path_29029" data-name="Path 29029" d="M44.394,97.225,83.741,119.9v-.093l.08-.046-39.35-22.7-.077.045Z" transform="translate(21.459 46.919)" fill="#d8d9da"/>
        <path id="Path_29030" data-name="Path 29030" d="M91.9,124.63l5.6,3.2v-.093l.08-.046-5.606-3.223-.077.044Z" transform="translate(44.424 60.166)" fill="#d8d9da"/>
        <path id="Path_29031" data-name="Path 29031" d="M96.655,121.867l5.6,3.2v-.093l.08-.046-5.606-3.223-.077.045Z" transform="translate(46.721 58.831)" fill="#d8d9da"/>
        <path id="Path_29032" data-name="Path 29032" d="M101.455,119.08l5.6,3.2v-.093l.08-.046-5.606-3.223-.077.044Z" transform="translate(49.042 57.483)" fill="#d8d9da"/>
        <path id="Path_29033" data-name="Path 29033" d="M106.362,116.224l5.6,3.2v-.093l.08-.046-5.606-3.223-.077.045Z" transform="translate(51.413 56.103)" fill="#d8d9da"/>
        <path id="Path_29034" data-name="Path 29034" d="M111.269,113.376l5.6,3.2v-.093l.08-.046-5.606-3.223-.077.044Z" transform="translate(53.786 54.726)" fill="#d8d9da"/>
        <path id="Path_29035" data-name="Path 29035" d="M102.124,108.087l11.829,6.825v-.093l.08-.046L102.2,107.925l-.077.044Z" transform="translate(49.365 52.169)" fill="#d8d9da"/>
        <path id="Path_29036" data-name="Path 29036" d="M98.269,111.562l10.265,5.905v-.093l.08-.046L98.346,111.4l-.077.044Z" transform="translate(47.502 53.849)" fill="#d8d9da"/>
        <path id="Path_29037" data-name="Path 29037" d="M93.434,108.8l5.6,3.2v-.093l.08-.047-5.606-3.222-.077.045Z" transform="translate(45.164 52.513)" fill="#d8d9da"/>
        <path id="Path_29038" data-name="Path 29038" d="M88.669,106.051l5.6,3.2v-.095l.079-.044-5.6-3.223-.077.044Z" transform="translate(42.861 51.185)" fill="#d8d9da"/>
        <path id="Path_29039" data-name="Path 29039" d="M83.905,103.3l5.6,3.2v-.095l.08-.044-5.606-3.223-.077.044Z" transform="translate(40.559 49.856)" fill="#d8d9da"/>
        <path id="Path_29040" data-name="Path 29040" d="M79.158,100.53l5.6,3.2v-.093l.08-.046-5.606-3.223-.077.045Z" transform="translate(38.264 48.516)" fill="#d8d9da"/>
        <path id="Path_29041" data-name="Path 29041" d="M74.377,97.807l5.6,3.2v-.095l.08-.046-5.606-3.222-.077.044Z" transform="translate(35.953 47.2)" fill="#d8d9da"/>
        <path id="Path_29042" data-name="Path 29042" d="M69.614,95.044l5.6,3.2v-.093l.08-.046-5.606-3.223-.077.044Z" transform="translate(33.65 45.865)" fill="#d8d9da"/>
        <path id="Path_29043" data-name="Path 29043" d="M64.85,92.284l5.6,3.2v-.095l.08-.046-5.606-3.222-.077.045Z" transform="translate(31.347 44.531)" fill="#d8d9da"/>
        <path id="Path_29044" data-name="Path 29044" d="M60.035,89.533l5.6,3.2v-.093l.08-.046-5.606-3.223-.077.044Z" transform="translate(29.02 43.201)" fill="#d8d9da"/>
        <path id="Path_29045" data-name="Path 29045" d="M55.321,86.819l5.6,3.2v-.093L61,89.881l-5.6-3.223-.077.044Z" transform="translate(26.742 41.889)" fill="#d8d9da"/>
        <path id="Path_29046" data-name="Path 29046" d="M50.5,83.975l5.6,3.2v-.093l.08-.046L50.58,83.813l-.077.044Z" transform="translate(24.412 40.514)" fill="#d8d9da"/>
        <path id="Path_29047" data-name="Path 29047" d="M45.793,81.265l5.6,3.2v-.093l.08-.047L45.87,81.1l-.077.045Z" transform="translate(22.136 39.204)" fill="#d8d9da"/>
        <path id="Path_29048" data-name="Path 29048" d="M40.033,77.945l6.988,4V81.85L47.1,81.8l-6.99-4.02-.077.044Z" transform="translate(19.351 37.599)" fill="#d8d9da"/>
        <path id="Path_29049" data-name="Path 29049" d="M97.21,105.369l5.6,3.2v-.093l.08-.046-5.606-3.223-.077.044Z" transform="translate(46.99 50.856)" fill="#d8d9da"/>
        <path id="Path_29050" data-name="Path 29050" d="M92.446,102.622l5.6,3.2v-.093l.08-.047-5.606-3.222-.077.044Z" transform="translate(44.687 49.528)" fill="#d8d9da"/>
        <path id="Path_29051" data-name="Path 29051" d="M87.682,99.872l5.6,3.2v-.093l.079-.046-5.6-3.223-.077.044Z" transform="translate(42.384 48.199)" fill="#d8d9da"/>
        <path id="Path_29052" data-name="Path 29052" d="M82.921,97.11l5.6,3.2v-.093l.08-.046L83,96.948l-.077.045Z" transform="translate(40.083 46.863)" fill="#d8d9da"/>
        <path id="Path_29053" data-name="Path 29053" d="M78.159,94.355l5.6,3.2v-.095l.08-.044-5.606-3.223-.077.044Z" transform="translate(37.781 45.531)" fill="#d8d9da"/>
        <path id="Path_29054" data-name="Path 29054" d="M73.393,91.606l5.6,3.2v-.095l.08-.046L73.47,91.444l-.077.044Z" transform="translate(35.477 44.203)" fill="#d8d9da"/>
        <path id="Path_29055" data-name="Path 29055" d="M68.63,88.852l5.6,3.2v-.093l.08-.046L68.707,88.69l-.077.044Z" transform="translate(33.174 42.871)" fill="#d8d9da"/>
        <path id="Path_29056" data-name="Path 29056" d="M63.812,86.092l5.6,3.2V89.2l.08-.044-5.606-3.223-.077.044Z" transform="translate(30.846 41.538)" fill="#d8d9da"/>
        <path id="Path_29057" data-name="Path 29057" d="M59.1,83.382l5.6,3.2V86.49l.08-.046-5.606-3.223-.077.044Z" transform="translate(28.569 40.228)" fill="#d8d9da"/>
        <path id="Path_29058" data-name="Path 29058" d="M54.282,80.537l5.6,3.2v-.095l.08-.045-5.606-3.223-.077.045Z" transform="translate(26.239 38.852)" fill="#d8d9da"/>
        <path id="Path_29059" data-name="Path 29059" d="M49.575,77.839l5.6,3.2v-.093l.08-.046-5.606-3.223-.077.044Z" transform="translate(23.964 37.548)" fill="#d8d9da"/>
        <path id="Path_29060" data-name="Path 29060" d="M44.866,75.132l5.6,3.2v-.095l.08-.045L44.943,74.97l-.077.045Z" transform="translate(21.688 36.239)" fill="#d8d9da"/>
        <path id="Path_29061" data-name="Path 29061" d="M101.925,102.643l5.6,3.2v-.095l.08-.044L102,102.482l-.077.044Z" transform="translate(49.269 49.538)" fill="#d8d9da"/>
        <path id="Path_29062" data-name="Path 29062" d="M106.689,105.385l5.6,3.2v-.093l.08-.046-5.606-3.223-.077.044Z" transform="translate(51.572 50.863)" fill="#d8d9da"/>
        <path id="Path_29063" data-name="Path 29063" d="M111.567,108.174l4.692,2.7v-.093l.08-.046-4.695-2.725-.077.044Z" transform="translate(53.93 52.211)" fill="#d8d9da"/>
        <path id="Path_29064" data-name="Path 29064" d="M115.92,110.679l5.549,3.2v-.093l.08-.046L116,110.518l-.077.045Z" transform="translate(56.034 53.422)" fill="#d8d9da"/>
        <path id="Path_29065" data-name="Path 29065" d="M97.161,99.9l5.6,3.2V103l.08-.046-5.606-3.222-.077.044Z" transform="translate(46.966 48.21)" fill="#d8d9da"/>
        <path id="Path_29066" data-name="Path 29066" d="M92.4,97.146l5.6,3.2v-.093l.08-.046-5.606-3.223-.077.044Z" transform="translate(44.663 46.881)" fill="#d8d9da"/>
        <path id="Path_29067" data-name="Path 29067" d="M87.632,94.384l5.6,3.2V97.49l.08-.044L87.71,94.222l-.077.044Z" transform="translate(42.36 45.546)" fill="#d8d9da"/>
        <path id="Path_29068" data-name="Path 29068" d="M82.869,91.635l5.6,3.2v-.093l.08-.046-5.606-3.223-.077.044Z" transform="translate(40.058 44.217)" fill="#d8d9da"/>
        <path id="Path_29069" data-name="Path 29069" d="M78.1,88.881l5.6,3.2v-.093l.08-.046-5.606-3.223-.077.045Z" transform="translate(37.754 42.886)" fill="#d8d9da"/>
        <path id="Path_29070" data-name="Path 29070" d="M73.34,86.127l5.6,3.2v-.093l.08-.046-5.606-3.223-.077.044Z" transform="translate(35.452 41.554)" fill="#d8d9da"/>
        <path id="Path_29071" data-name="Path 29071" d="M68.577,83.373l5.6,3.2v-.095l.079-.046-5.6-3.222-.077.045Z" transform="translate(33.149 40.223)" fill="#d8d9da"/>
        <path id="Path_29072" data-name="Path 29072" d="M63.814,80.623l5.6,3.2V83.73l.08-.046-5.606-3.223-.077.045Z" transform="translate(30.846 38.894)" fill="#d8d9da"/>
        <path id="Path_29073" data-name="Path 29073" d="M59.048,77.869l5.6,3.2v-.093l.08-.046-5.606-3.223-.077.045Z" transform="translate(28.543 37.562)" fill="#d8d9da"/>
        <path id="Path_29074" data-name="Path 29074" d="M54.284,75.116l5.6,3.2v-.095l.08-.045-5.606-3.223L54.284,75Z" transform="translate(26.24 36.232)" fill="#d8d9da"/>
        <path id="Path_29075" data-name="Path 29075" d="M49.575,72.395l5.6,3.2V75.5l.08-.046-5.606-3.222-.077.045Z" transform="translate(23.964 34.916)" fill="#d8d9da"/>
        <path id="Path_29076" data-name="Path 29076" d="M94.526,115.078l8.529,4.907v-.095l.079-.046L94.6,114.916l-.077.045Z" transform="translate(45.692 55.549)" fill="#d8d9da"/>
        <path id="Path_29077" data-name="Path 29077" d="M91.723,119.032l5.6,3.2v-.095l.079-.046-5.6-3.222-.077.044Z" transform="translate(44.337 57.46)" fill="#d8d9da"/>
        <path id="Path_29078" data-name="Path 29078" d="M85.877,115.637l6.96,3.989v-.093l.079-.046-6.962-4.011-.077.045Z" transform="translate(41.512 55.819)" fill="#d8d9da"/>
        <path id="Path_29079" data-name="Path 29079" d="M81.115,112.888l5.6,3.2V116l.08-.046-5.606-3.223-.077.045Z" transform="translate(39.21 54.49)" fill="#d8d9da"/>
        <path id="Path_29080" data-name="Path 29080" d="M89.666,112.217l5.6,3.2v-.093l.08-.046-5.606-3.223-.077.045Z" transform="translate(43.343 54.166)" fill="#d8d9da"/>
        <path id="Path_29081" data-name="Path 29081" d="M84.9,109.467l5.6,3.2v-.095l.079-.044-5.6-3.223-.077.044Z" transform="translate(41.04 52.836)" fill="#d8d9da"/>
        <path id="Path_29082" data-name="Path 29082" d="M80.14,106.724l5.6,3.2v-.093l.08-.046-5.606-3.223-.077.044Z" transform="translate(38.738 51.511)" fill="#d8d9da"/>
        <path id="Path_29083" data-name="Path 29083" d="M75.376,103.976l5.6,3.2v-.093l.08-.046-5.606-3.223-.077.045Z" transform="translate(36.436 50.182)" fill="#d8d9da"/>
        <path id="Path_29084" data-name="Path 29084" d="M70.613,101.2l5.6,3.2v-.093l.08-.046-5.606-3.223-.077.045Z" transform="translate(34.133 48.841)" fill="#d8d9da"/>
        <path id="Path_29085" data-name="Path 29085" d="M65.849,98.45l5.6,3.2v-.093l.08-.046-5.606-3.223-.077.044Z" transform="translate(31.83 47.511)" fill="#d8d9da"/>
        <path id="Path_29086" data-name="Path 29086" d="M61.085,95.695l5.6,3.2V98.8l.08-.046-5.606-3.223-.077.045Z" transform="translate(29.528 46.179)" fill="#d8d9da"/>
        <path id="Path_29087" data-name="Path 29087" d="M56.269,92.943l5.6,3.2v-.093l.08-.047-5.606-3.222-.077.044Z" transform="translate(27.2 44.849)" fill="#d8d9da"/>
        <path id="Path_29088" data-name="Path 29088" d="M51.554,90.236l5.6,3.2v-.093l.08-.046-5.606-3.223-.077.044Z" transform="translate(24.92 43.54)" fill="#d8d9da"/>
        <path id="Path_29089" data-name="Path 29089" d="M46.738,87.389l5.6,3.2V90.5l.08-.047-5.606-3.222-.077.045Z" transform="translate(22.592 42.164)" fill="#d8d9da"/>
        <path id="Path_29090" data-name="Path 29090" d="M42.026,84.682l5.6,3.2V87.79l.08-.046L42.1,84.52l-.077.045Z" transform="translate(20.315 40.856)" fill="#d8d9da"/>
        <path id="Path_29091" data-name="Path 29091" d="M35.2,80.757l8.546,4.906v-.093l.08-.046-8.549-4.928-.077.044Z" transform="translate(17.013 38.958)" fill="#d8d9da"/>
        <path id="Path_29092" data-name="Path 29092" d="M76.351,110.132l5.6,3.2v-.093l.08-.046-5.606-3.223-.077.045Z" transform="translate(36.907 53.158)" fill="#d8d9da"/>
        <path id="Path_29093" data-name="Path 29093" d="M71.587,107.375l5.6,3.2v-.093l.08-.046-5.606-3.223-.077.044Z" transform="translate(34.604 51.825)" fill="#d8d9da"/>
        <path id="Path_29094" data-name="Path 29094" d="M66.822,104.633l5.6,3.2v-.095l.079-.046-5.6-3.222-.077.044Z" transform="translate(32.301 50.5)" fill="#d8d9da"/>
        <path id="Path_29095" data-name="Path 29095" d="M62.06,101.876l5.6,3.2v-.095l.08-.045-5.606-3.223-.077.045Z" transform="translate(29.999 49.167)" fill="#d8d9da"/>
        <path id="Path_29096" data-name="Path 29096" d="M57.3,99.115l5.6,3.2v-.093l.08-.046-5.606-3.223L57.3,99Z" transform="translate(27.696 47.833)" fill="#d8d9da"/>
        <path id="Path_29097" data-name="Path 29097" d="M52.475,96.369l5.6,3.2v-.095l.08-.046-5.606-3.222-.077.044Z" transform="translate(25.366 46.505)" fill="#d8d9da"/>
        <path id="Path_29098" data-name="Path 29098" d="M47.768,93.656l5.6,3.2v-.095l.08-.044-5.606-3.223-.077.044Z" transform="translate(23.09 45.194)" fill="#d8d9da"/>
        <path id="Path_29099" data-name="Path 29099" d="M42.951,90.815l5.6,3.2v-.095l.08-.046-5.606-3.222-.077.044Z" transform="translate(20.762 43.82)" fill="#d8d9da"/>
        <path id="Path_29100" data-name="Path 29100" d="M38.237,88.108l5.6,3.2v-.093l.08-.046-5.606-3.223-.077.044Z" transform="translate(18.483 42.512)" fill="#d8d9da"/>
        <path id="Path_29101" data-name="Path 29101" d="M30.355,83.57l10.094,5.816v-.095l.079-.046-10.1-5.837-.077.045Z" transform="translate(14.673 40.318)" fill="#d8d9da"/>
        <path id="Path_29102" data-name="Path 29102" d="M39.708,94.488l5.6,3.2v-.095l.079-.046-5.6-3.222-.077.045Z" transform="translate(19.194 45.596)" fill="#d8d9da"/>
        <path id="Path_29103" data-name="Path 29103" d="M35,91.788l5.6,3.2v-.095l.08-.044-5.606-3.223L35,91.671Z" transform="translate(16.919 44.291)" fill="#d8d9da"/>
        <path id="Path_29104" data-name="Path 29104" d="M30.286,89.067l5.6,3.2v-.095l.08-.046-5.606-3.222-.077.045Z" transform="translate(14.64 42.976)" fill="#d8d9da"/>
        <path id="Path_29105" data-name="Path 29105" d="M25.555,86.351l5.6,3.2v-.095l.08-.044-5.606-3.223-.077.045Z" transform="translate(12.353 41.663)" fill="#d8d9da"/>
        <path id="Path_29106" data-name="Path 29106" d="M161.669,159.782l14.226-90.62a7.24,7.24,0,0,0-3.078-6.956L66.433.787A3.562,3.562,0,0,0,65.292.373l94.916,161.974a3.663,3.663,0,0,0,1.461-2.565" transform="translate(31.561 0.18)" fill="#02293f"/>
        <path id="Path_29107" data-name="Path 29107" d="M67.64,3.343,53.415,93.962a7.233,7.233,0,0,0,3.081,6.945l106.382,61.421a2.83,2.83,0,0,0,3.106.034L71.068.39C69.405.076,67.977,1.2,67.64,3.343" transform="translate(25.785 0.163)" fill="#02293f"/>
        <path id="Path_29108" data-name="Path 29108" d="M70.776,8.929c.3-1.914,1.575-2.915,3.057-2.634a3.165,3.165,0,0,1,1.019.368l94.9,54.793A6.459,6.459,0,0,1,172.5,67.66L159.811,148.5a3.27,3.27,0,0,1-1.3,2.287,2.527,2.527,0,0,1-2.772-.031l-94.9-54.792a6.458,6.458,0,0,1-2.747-6.2Z" transform="translate(28.047 3.02)" fill="#5e55f2"/>
        <g id="Group_30573" data-name="Group 30573" transform="translate(92.191 29.057)" opacity="0.3">
          <g id="Group_30572" data-name="Group 30572">
            <g id="Group_30571" data-name="Group 30571" clip-path="url(#clip-path-6)">
              <path id="Path_29109" data-name="Path 29109" d="M151.885,62.851,76.2,19.945c-1.614-.914-3.194-.015-3.536,2L62.215,83.4a5.43,5.43,0,0,0,2.293,5.322l75.685,42.9c1.6.908,3.186-.006,3.529-2.022L154.17,68.151a5.4,5.4,0,0,0-2.284-5.3M149.5,64.294c-.082.476-.46.691-.838.478a1.273,1.273,0,0,1-.531-1.253c.079-.463.445-.684.823-.469a1.282,1.282,0,0,1,.546,1.245m2.148,1.218c-.082.476-.46.691-.826.484a1.29,1.29,0,0,1-.543-1.259c.079-.463.457-.678.835-.463a1.282,1.282,0,0,1,.534,1.239" transform="translate(-62.149 -19.588)" fill="#02293f"/>
            </g>
          </g>
        </g>
        <g id="Group_30576" data-name="Group 30576" transform="translate(72.156 24.504)" opacity="0.8">
          <g id="Group_30575" data-name="Group 30575">
            <g id="Group_30574" data-name="Group 30574" clip-path="url(#clip-path-7)">
              <path id="Path_29110" data-name="Path 29110" d="M138.379,59.782,62.692,16.876c-1.614-.914-3.194-.013-3.536,2L48.709,80.334A5.43,5.43,0,0,0,51,85.657l75.685,42.9c1.6.908,3.186-.006,3.529-2.022l10.447-61.457a5.4,5.4,0,0,0-2.284-5.3M136,61.225c-.082.476-.46.691-.838.478a1.273,1.273,0,0,1-.531-1.253c.079-.463.445-.684.825-.469A1.284,1.284,0,0,1,136,61.225m2.148,1.218c-.082.476-.46.691-.826.484a1.29,1.29,0,0,1-.543-1.259c.079-.463.457-.678.835-.463a1.282,1.282,0,0,1,.534,1.239" transform="translate(-48.643 -16.519)" fill="#fff"/>
            </g>
          </g>
        </g>
        <path id="Path_29111" data-name="Path 29111" d="M120.124,117.6l-.266-.159,0,1.121.271.159Z" transform="translate(57.936 56.77)" fill="#aa5129"/>
        <path id="Path_29112" data-name="Path 29112" d="M125.672,115.442l-.264-.159-5.549,3.2.264.159Z" transform="translate(57.938 55.726)" fill="#d8632e"/>
        <path id="Path_29113" data-name="Path 29113" d="M120.037,118.594l0,1.121,5.549-3.2,0-1.121Z" transform="translate(58.024 55.778)" fill="#5e55f2"/>
        <path id="Path_29114" data-name="Path 29114" d="M119.856,119.781l0,2.231,6.516-3.676v-3.409l-.967.528.266.159,0,1.12-5.549,3.2Z" transform="translate(57.937 55.554)" fill="#032433"/>
        <path id="Path_29115" data-name="Path 29115" d="M124.862,118.337l-1.876-.923,1.178-.679,0-1.12-.266-.159.967-.528Z" transform="translate(59.45 55.554)" fill="#021f2f"/>
        <path id="Path_29116" data-name="Path 29116" d="M113.1,121.456l-.266-.157,0,1.12.271.159Z" transform="translate(54.542 58.634)" fill="#aa5129"/>
        <path id="Path_29117" data-name="Path 29117" d="M118.651,119.3l-.264-.159-5.549,3.2.264.159Z" transform="translate(54.544 57.59)" fill="#d8632e"/>
        <path id="Path_29118" data-name="Path 29118" d="M113.015,122.449l0,1.121,5.549-3.2,0-1.121Z" transform="translate(54.63 57.641)" fill="#5e55f2"/>
        <path id="Path_29119" data-name="Path 29119" d="M112.835,123.636l0,2.231,6.517-3.674v-3.41l-.967.53.266.157,0,1.121-5.549,3.2Z" transform="translate(54.542 57.418)" fill="#032433"/>
        <path id="Path_29120" data-name="Path 29120" d="M117.84,122.192l-1.875-.923,1.176-.679,0-1.12-.266-.159.967-.528Z" transform="translate(56.056 57.418)" fill="#021f2f"/>
        <g id="Group_30579" data-name="Group 30579" transform="translate(73.184 31.222)" opacity="0.1">
          <g id="Group_30578" data-name="Group 30578">
            <g id="Group_30577" data-name="Group 30577" clip-path="url(#clip-path-8)">
              <path id="Path_29121" data-name="Path 29121" d="M97.4,46.805l.442-2.6c.088-.518.494-.748.906-.515l5.708,3.237a1.383,1.383,0,0,1,.587,1.36l-.444,2.6c-.088.518-.491.734-.9.5l-5.71-3.237a1.362,1.362,0,0,1-.587-1.347" transform="translate(-26.113 -10.149)" fill="#02293f"/>
              <path id="Path_29122" data-name="Path 29122" d="M88.608,41.824l.442-2.6c.089-.518.494-.749.906-.515l5.72,3.243a1.383,1.383,0,0,1,.576,1.354l-.442,2.6c-.089.518-.491.734-.892.507L89.2,43.171a1.365,1.365,0,0,1-.589-1.347" transform="translate(-30.361 -12.557)" fill="#02293f"/>
              <path id="Path_29123" data-name="Path 29123" d="M79.83,36.85l.442-2.6c.089-.518.484-.755.894-.521l5.721,3.243a1.369,1.369,0,0,1,.576,1.354l-.444,2.6c-.088.518-.479.74-.892.507l-5.721-3.243a1.352,1.352,0,0,1-.577-1.341" transform="translate(-34.604 -14.964)" fill="#02293f"/>
              <path id="Path_29124" data-name="Path 29124" d="M94.179,50.524l.064-.378c.089-.518.491-.734.9-.5l9.038,5.124a1.364,1.364,0,0,1,.587,1.347l-.064.378c-.088.518-.491.734-.9.5l-9.037-5.124a1.365,1.365,0,0,1-.589-1.347" transform="translate(-27.668 -7.27)" fill="#02293f"/>
              <path id="Path_29125" data-name="Path 29125" d="M86.9,46.4l.064-.378c.089-.518.491-.734.9-.5l7.4,4.2a1.349,1.349,0,0,1,.577,1.34l-.064.378c-.089.518-.481.742-.892.507l-7.4-4.2A1.365,1.365,0,0,1,86.9,46.4" transform="translate(-31.186 -9.264)" fill="#02293f"/>
              <path id="Path_29126" data-name="Path 29126" d="M76.675,40.6l.064-.378c.088-.518.49-.734.9-.5l11.977,6.789a1.359,1.359,0,0,1,.587,1.347l-.064.378c-.088.518-.491.734-.9.5L77.262,41.948a1.362,1.362,0,0,1-.587-1.347" transform="translate(-36.129 -12.067)" fill="#02293f"/>
              <path id="Path_29127" data-name="Path 29127" d="M71.511,37.675l.064-.378c.089-.518.491-.734.9-.5l4.33,2.454a1.352,1.352,0,0,1,.577,1.341l-.064.378c-.089.518-.481.742-.892.509L72.1,39.022a1.365,1.365,0,0,1-.589-1.347" transform="translate(-38.625 -13.481)" fill="#02293f"/>
              <path id="Path_29128" data-name="Path 29128" d="M84.056,83.452l4.98-29.292c.386-2.268,2.155-3.277,3.958-2.255l12.478,7.073a6.059,6.059,0,0,1,2.563,5.951l-4.98,29.294c-.383,2.253-2.152,3.262-3.956,2.24L86.622,89.39a6.053,6.053,0,0,1-2.566-5.938" transform="translate(-32.589 -6.325)" fill="#02293f"/>
              <path id="Path_29129" data-name="Path 29129" d="M66.491,73.5,71.471,44.2c.386-2.268,2.155-3.277,3.947-2.261l12.487,7.079a6.056,6.056,0,0,1,2.553,5.945L85.48,84.259c-.384,2.255-2.154,3.262-3.946,2.247l-12.489-7.08A6.048,6.048,0,0,1,66.491,73.5" transform="translate(-41.079 -11.139)" fill="#02293f"/>
              <path id="Path_29130" data-name="Path 29130" d="M55.384,31.747a2.543,2.543,0,0,1,2.234.24L70.094,39.06a6.056,6.056,0,0,1,2.565,5.951L67.68,74.3c-.383,2.255-2.152,3.262-3.956,2.24L51.247,69.471a3.579,3.579,0,0,1-1.911-2.1Z" transform="translate(-49.336 -15.953)" fill="#02293f"/>
              <path id="Path_29131" data-name="Path 29131" d="M59.036,34.626c2.838,1.609,5.635.016,6.242-3.554s-1.2-7.789-4.041-9.4-5.649-.009-6.255,3.562,1.216,7.78,4.054,9.39M56.4,26.037c.441-2.59,2.48-3.751,4.539-2.584a6.954,6.954,0,0,1,2.93,6.818c-.441,2.59-2.467,3.744-4.526,2.577a6.948,6.948,0,0,1-2.943-6.81" transform="translate(-46.663 -21.048)" fill="#02293f"/>
              <path id="Path_29132" data-name="Path 29132" d="M56.84,24.019c.086-.5.491-.734.9-.5l3.705,2.1a1.381,1.381,0,0,1,.589,1.347c-.088.519-.494.749-.9.516l-3.707-2.1a1.388,1.388,0,0,1-.586-1.36" transform="translate(-45.717 -19.898)" fill="#02293f"/>
              <path id="Path_29133" data-name="Path 29133" d="M56.5,26.049c.088-.518.491-.734.9-.5l3.705,2.1a1.367,1.367,0,0,1,.589,1.347c-.088.519-.492.749-.9.516l-3.707-2.1a1.391,1.391,0,0,1-.586-1.362" transform="translate(-45.884 -18.918)" fill="#02293f"/>
            </g>
          </g>
        </g>
        <g id="Group_30582" data-name="Group 30582" transform="translate(66.218 29.505)" opacity="0.8">
          <g id="Group_30581" data-name="Group 30581">
            <g id="Group_30580" data-name="Group 30580" clip-path="url(#clip-path-9)">
              <path id="Path_29134" data-name="Path 29134" d="M93.19,45.647l.444-2.6c.088-.518.492-.748.9-.515l5.71,3.237a1.382,1.382,0,0,1,.586,1.36l-.442,2.6c-.089.518-.491.734-.9.5l-5.71-3.237a1.365,1.365,0,0,1-.589-1.347" transform="translate(-21.179 -8.991)" fill="#fff"/>
              <path id="Path_29135" data-name="Path 29135" d="M84.4,40.666l.442-2.6c.089-.518.494-.749.906-.515l5.72,3.243a1.383,1.383,0,0,1,.576,1.354l-.442,2.6c-.089.518-.491.734-.892.507l-5.721-3.243a1.365,1.365,0,0,1-.589-1.347" transform="translate(-25.426 -11.399)" fill="#fff"/>
              <path id="Path_29136" data-name="Path 29136" d="M75.626,35.692l.442-2.6c.089-.518.484-.755.894-.521l5.721,3.243a1.369,1.369,0,0,1,.576,1.354l-.444,2.6c-.088.518-.479.74-.892.507L76.2,37.033a1.352,1.352,0,0,1-.577-1.341" transform="translate(-29.67 -13.806)" fill="#fff"/>
              <path id="Path_29137" data-name="Path 29137" d="M89.974,49.366l.064-.378c.089-.518.491-.734.9-.5L99.98,53.61a1.364,1.364,0,0,1,.587,1.347l-.064.378c-.088.518-.491.734-.9.5l-9.037-5.124a1.365,1.365,0,0,1-.589-1.347" transform="translate(-22.734 -6.112)" fill="#fff"/>
              <path id="Path_29138" data-name="Path 29138" d="M82.7,45.241l.064-.378c.089-.518.491-.734.9-.5l7.4,4.2a1.352,1.352,0,0,1,.577,1.341l-.064.378c-.089.518-.481.742-.892.507l-7.4-4.2a1.367,1.367,0,0,1-.589-1.347" transform="translate(-26.252 -8.106)" fill="#fff"/>
              <path id="Path_29139" data-name="Path 29139" d="M72.469,39.443l.064-.378c.089-.518.491-.734.9-.5l11.975,6.789A1.361,1.361,0,0,1,86,46.7l-.064.378c-.088.518-.491.734-.9.5L73.058,40.79a1.365,1.365,0,0,1-.589-1.347" transform="translate(-31.195 -10.909)" fill="#fff"/>
              <path id="Path_29140" data-name="Path 29140" d="M67.307,36.517l.064-.378c.089-.518.491-.734.9-.5l4.33,2.455a1.349,1.349,0,0,1,.577,1.339l-.064.378c-.089.518-.481.742-.892.509L67.9,37.864a1.365,1.365,0,0,1-.589-1.347" transform="translate(-33.691 -12.323)" fill="#fff"/>
              <path id="Path_29141" data-name="Path 29141" d="M79.852,82.294,84.832,53c.386-2.268,2.155-3.277,3.958-2.255l12.478,7.073a6.06,6.06,0,0,1,2.563,5.953l-4.98,29.292c-.383,2.253-2.152,3.262-3.956,2.24L82.418,88.232a6.053,6.053,0,0,1-2.566-5.938" transform="translate(-27.654 -5.167)" fill="#fff"/>
              <path id="Path_29142" data-name="Path 29142" d="M62.286,72.338l4.98-29.292c.386-2.268,2.155-3.277,3.947-2.261L83.7,47.864a6.058,6.058,0,0,1,2.551,5.945L81.275,83.1c-.384,2.255-2.154,3.262-3.946,2.247L64.84,78.269a6.048,6.048,0,0,1-2.554-5.931" transform="translate(-36.145 -9.981)" fill="#fff"/>
              <path id="Path_29143" data-name="Path 29143" d="M44.713,62.375l4.98-29.292c.386-2.268,2.155-3.277,3.958-2.255L66.129,37.9a6.059,6.059,0,0,1,2.563,5.951l-4.98,29.294c-.383,2.253-2.152,3.262-3.956,2.24L47.279,68.313a6.052,6.052,0,0,1-2.566-5.938" transform="translate(-44.64 -14.796)" fill="#fff"/>
              <path id="Path_29144" data-name="Path 29144" d="M54.832,33.467c2.838,1.609,5.635.016,6.242-3.554s-1.2-7.789-4.041-9.4-5.649-.01-6.255,3.562,1.216,7.78,4.054,9.388m-2.64-8.589c.441-2.59,2.48-3.751,4.539-2.586a6.959,6.959,0,0,1,2.93,6.819c-.441,2.591-2.467,3.746-4.526,2.577a6.948,6.948,0,0,1-2.943-6.81" transform="translate(-41.729 -19.89)" fill="#fff"/>
              <path id="Path_29145" data-name="Path 29145" d="M52.636,22.861c.086-.5.491-.734.9-.5l3.705,2.1a1.382,1.382,0,0,1,.589,1.347c-.088.519-.494.749-.9.516l-3.707-2.1a1.388,1.388,0,0,1-.586-1.36" transform="translate(-40.782 -18.74)" fill="#fff"/>
              <path id="Path_29146" data-name="Path 29146" d="M52.291,24.891c.088-.518.491-.734.9-.5l3.705,2.1a1.367,1.367,0,0,1,.589,1.347c-.088.519-.492.749-.9.516l-3.707-2.1a1.388,1.388,0,0,1-.586-1.36" transform="translate(-40.949 -17.76)" fill="#fff"/>
            </g>
          </g>
        </g>
      </g>
    </g>
  </g>
</svg>
