<svg id="panier-icone" xmlns="http://www.w3.org/2000/svg" width="19" height="19" viewBox="0 0 19 19">
  <path id="Stroke_1" data-name="Stroke 1" d="M.764-.75A1.515,1.515,0,1,1-.75.765,1.517,1.517,0,0,1,.764-.75Z" transform="translate(4.428 16.721)" fill="#fff"/>
  <path id="Stroke_3" data-name="Stroke 3" d="M.765-.75A1.515,1.515,0,1,1-.75.765,1.517,1.517,0,0,1,.765-.75Z" transform="translate(14.91 16.721)" fill="#fff"/>
  <path id="Stroke_5" data-name="Stroke 5" d="M14.927,13.637H4.56a2.406,2.406,0,0,1-1.642-.647,2.454,2.454,0,0,1-.775-1.6L1.275.93-.159.679A.719.719,0,0,1-.74-.153.713.713,0,0,1,.084-.739L2.06-.394a.717.717,0,0,1,.588.649l.223,2.69H16.264a1.976,1.976,0,0,1,1.5.693,2.021,2.021,0,0,1,.464,1.6l-.9,6.3A2.448,2.448,0,0,1,14.927,13.637ZM2.992,4.385l.572,6.884a1,1,0,0,0,1,.927H14.927a1.011,1.011,0,0,0,.991-.868l.9-6.3a.565.565,0,0,0-.131-.453.553.553,0,0,0-.424-.2Z" transform="translate(0.75 0.75)" fill="#fff"/>
  <path id="Stroke_7" data-name="Stroke 7" d="M2.773,1.25H0A.75.75,0,1,1,0-.25H2.773a.75.75,0,0,1,0,1.5Z" transform="translate(11.402 7.545)" fill="#fff"/>
</svg>
