<svg xmlns="http://www.w3.org/2000/svg" width="55.155" height="50.269" viewBox="0 0 55.155 50.269">
  <g id="panier-valider" transform="translate(-995.045 -195.563)">
    <g id="Group_29978" data-name="Group 29978" transform="translate(1017.6 195.563)">
      <circle id="Ellipse_651" data-name="Ellipse 651" cx="10.564" cy="10.564" r="10.564" transform="matrix(1, 0, 0, 1, 0, 0)" fill="#d9f777"/>
      <g id="Group_28119" data-name="Group 28119" transform="translate(5.724 5.286)">
        <g id="Group_28118" data-name="Group 28118">
          <path id="Path_27102" data-name="Path 27102" d="M328.076,374.334a1.076,1.076,0,0,1-.887-.468l-3.323-4.854a1.075,1.075,0,1,1,1.775-1.215l2.294,3.351,3.434-6.824a1.075,1.075,0,1,1,1.921.967l-4.252,8.452a1.075,1.075,0,0,1-.889.59Z" transform="translate(-323.677 -363.732)" fill="#020f11"/>
        </g>
      </g>
    </g>
    <g id="Group_29973" data-name="Group 29973" transform="matrix(0.966, -0.259, 0.259, 0.966, 1008.198, 213.321)">
      <g id="Buy" transform="translate(0 0)">
        <path id="Stroke_7" data-name="Stroke 7" d="M6.64,2.827H1.413A1.413,1.413,0,0,1,1.413,0H6.64a1.413,1.413,0,1,1,0,2.827Z" transform="translate(20.996 13.876)" fill="#fff"/>
        <g id="Buy-2" data-name="Buy" transform="translate(0 0)">
          <path id="Stroke_1" data-name="Stroke 1" d="M1.421,0A1.422,1.422,0,1,1,0,1.423,1.424,1.424,0,0,1,1.421,0Z" transform="translate(8.2 31.744)" fill="#fff" stroke="#fff" stroke-linecap="round" stroke-linejoin="round" stroke-width="2"/>
          <path id="Stroke_3" data-name="Stroke 3" d="M1.423,0A1.422,1.422,0,1,1,0,1.423,1.424,1.424,0,0,1,1.423,0Z" transform="translate(29.122 31.744)" fill="#fff" stroke="#fff" stroke-linecap="round" stroke-linejoin="round" stroke-width="2"/>
          <path id="Stroke_5" data-name="Stroke 5" d="M30.223,26.941H9.932a4.284,4.284,0,0,1-4.27-3.928L3.931,2.4.773,1.851A.932.932,0,0,1,1.091.014L4.959.683a.932.932,0,0,1,.77.84L6.2,7.157H32.839a3.425,3.425,0,0,1,3.39,3.916L34.465,23.268a4.287,4.287,0,0,1-4.242,3.673ZM6.358,9.022,7.519,22.858a2.406,2.406,0,0,0,2.413,2.22H30.223A2.436,2.436,0,0,0,32.62,23l1.765-12.194a1.561,1.561,0,0,0-1.545-1.785Z" transform="translate(0 0)" fill="#fff"/>
        </g>
      </g>
    </g>
    <path id="Path_27890" data-name="Path 27890" d="M9.521,1.865H.932A.932.932,0,1,1,.932,0H9.521a.932.932,0,1,1,0,1.863Z" transform="matrix(0.966, -0.259, 0.259, 0.966, 1007.513, 236.5)" fill="#fff"/>
    <path id="Path_27891" data-name="Path 27891" d="M14.549,1.865H.932A.932.932,0,1,1,.932,0H14.549a.932.932,0,1,1,0,1.863Z" transform="matrix(0.966, -0.259, 0.259, 0.966, 995.044, 234.276)" fill="#fff"/>
  </g>
</svg>
