<svg xmlns="http://www.w3.org/2000/svg" width="24" height="24" viewBox="0 0 24 24">
  <g id="Group_30912" data-name="Group 30912" transform="translate(-1215 -5091)">
    <path id="phone-call-thin" d="M51.018,29.377a.5.5,0,0,1,.608-.359,10.28,10.28,0,0,1,7.358,7.359.5.5,0,0,1-.358.608A.456.456,0,0,1,58.5,37a.5.5,0,0,1-.483-.375,9.294,9.294,0,0,0-6.643-6.643A.5.5,0,0,1,51.018,29.377Zm-.643,4.608a4.925,4.925,0,0,1,3.643,3.643A.5.5,0,0,0,54.5,38a.456.456,0,0,0,.125-.018.5.5,0,0,0,.354-.611,5.866,5.866,0,0,0-4.354-4.355.5.5,0,0,0-.25.966Zm9.618,12.34A6.531,6.531,0,0,1,53.5,52,17.519,17.519,0,0,1,36,34.5a6.531,6.531,0,0,1,5.678-6.489,1.5,1.5,0,0,1,1.56.9L45.875,34.8a1.5,1.5,0,0,1-.125,1.42c-.011.016-.023.033-.035.048l-2.65,3.151a.488.488,0,0,0-.022.461,12.047,12.047,0,0,0,5.111,5.071.491.491,0,0,0,.463-.026l3.109-2.64.048-.036a1.5,1.5,0,0,1,1.423-.125l5.9,2.645a1.5,1.5,0,0,1,.891,1.551Zm-1.294-.64-5.905-2.645a.491.491,0,0,0-.446.034l-3.1,2.64-.046.035a1.5,1.5,0,0,1-1.474.109,12.946,12.946,0,0,1-5.575-5.534,1.5,1.5,0,0,1,.1-1.469c.011-.017.024-.033.036-.049l2.649-3.15a.5.5,0,0,0,.029-.45l-2.643-5.893A.5.5,0,0,0,41.862,29a.483.483,0,0,0-.06,0A5.529,5.529,0,0,0,37,34.5,16.52,16.52,0,0,0,53.5,51,5.529,5.529,0,0,0,59,46.2a.5.5,0,0,0-.305-.515Z" transform="translate(1179 5062.998)" fill="#fff"/>
    <rect id="Rectangle_17138" data-name="Rectangle 17138" width="24" height="24" transform="translate(1215 5091)" fill="none" opacity="0.543"/>
  </g>
</svg>
