<svg xmlns="http://www.w3.org/2000/svg" width="18" height="18" viewBox="0 0 18 18">
  <path id="phone-call-fill" d="M49.133,36.1l-4.24-1.9-.012-.005a1.44,1.44,0,0,0-1.365.126.731.731,0,0,0-.067.05l-2.191,1.868a8.29,8.29,0,0,1-3.495-3.466l1.87-2.224c.018-.023.035-.045.051-.069a1.44,1.44,0,0,0,.119-1.355v-.011L37.9,24.869a1.44,1.44,0,0,0-1.5-.857A5.063,5.063,0,0,0,32,29.041,12.975,12.975,0,0,0,44.96,42a5.063,5.063,0,0,0,5.029-4.4A1.44,1.44,0,0,0,49.133,36.1Z" transform="translate(-32 -24.001)" fill="#fff"/>
</svg>
