<svg id="Fil_D_ariene_Création_cours" data-name="Fil D&apos;ariene Création cours" xmlns="http://www.w3.org/2000/svg" width="114" height="26" viewBox="0 0 114 26">
  <text id="Catégorie" transform="translate(33 20)" fill="#fff" font-size="20" font-family="Degular-Regular, Degular"><tspan x="0" y="0">Catégorie</tspan></text>
  <g id="check-cours" transform="translate(0 2)">
    <circle id="Ellipse_733" data-name="Ellipse 733" cx="11" cy="11" r="11" fill="#d9f777"/>
    <g id="Tick_Square" data-name="Tick Square" transform="translate(1.435 1.255)">
      <path id="Tick_Square-2" data-name="Tick Square" d="M7.77,1.381,3.486,5.769a.782.782,0,0,1-1.109,0L.23,3.58a.828.828,0,0,1,0-1.145.781.781,0,0,1,1.118,0L2.927,4.051,6.652.236a.781.781,0,0,1,1.118,0,.828.828,0,0,1,0,1.145" transform="translate(5.565 6.745)" fill="#020f11"/>
    </g>
  </g>
</svg>
