<svg xmlns="http://www.w3.org/2000/svg" width="775.001" height="1083" viewBox="0 0 775.001 1083">
  <g id="Group_30941" data-name="Group 30941" transform="translate(0.5 0.5)" opacity="0.4">
    <path id="happy-young-european-lady-suit-sit-table-with-laptop-calling-by-smartphone-office" d="M0,798.885V260.5a31.922,31.922,0,0,1,31.939-31.9H304.75a31.921,31.921,0,0,0,31.938-31.9h0a31.922,31.922,0,0,1,31.939-31.9H664.062A31.921,31.921,0,0,1,696,196.694V446.61a31.921,31.921,0,0,1-31.938,31.9H544.291a31.922,31.922,0,0,0-31.939,31.9V798.885a31.922,31.922,0,0,1-31.939,31.9H31.939A31.922,31.922,0,0,1,0,798.885" transform="translate(0 -164.79)" fill="none" stroke="#7971f5" stroke-width="1"/>
    <path id="happy-young-european-lady-suit-sit-table-with-laptop-calling-by-smartphone-office-2" data-name="happy-young-european-lady-suit-sit-table-with-laptop-calling-by-smartphone-office" d="M696,31.9V570.288a31.922,31.922,0,0,1-31.939,31.9H391.25a31.921,31.921,0,0,0-31.938,31.9h0A31.922,31.922,0,0,1,327.373,666H31.938A31.921,31.921,0,0,1,0,634.1V384.18a31.921,31.921,0,0,1,31.938-31.9h119.77a31.922,31.922,0,0,0,31.939-31.9V31.9A31.922,31.922,0,0,1,215.587,0H664.06A31.922,31.922,0,0,1,696,31.9" transform="translate(108.001 1082) rotate(-90)" fill="none" stroke="#7971f5" stroke-width="1"/>
  </g>
</svg>
