<svg xmlns="http://www.w3.org/2000/svg" width="375" height="374.999" viewBox="0 0 375 374.999">
  <path id="Subtraction_17" data-name="Subtraction 17" d="M11518-8772h-295a39.748,39.748,0,0,1-15.569-3.144,39.9,39.9,0,0,1-12.715-8.571,39.889,39.889,0,0,1-8.571-12.716A39.761,39.761,0,0,1,11183-8812v-295a39.761,39.761,0,0,1,3.143-15.569,39.889,39.889,0,0,1,8.571-12.716,39.885,39.885,0,0,1,12.715-8.571A39.748,39.748,0,0,1,11223-9147h295a39.748,39.748,0,0,1,15.569,3.144,39.884,39.884,0,0,1,12.715,8.571,39.865,39.865,0,0,1,8.572,12.716A39.741,39.741,0,0,1,11558-9107v295a39.741,39.741,0,0,1-3.144,15.569,39.865,39.865,0,0,1-8.572,12.716,39.884,39.884,0,0,1-12.715,8.571A39.748,39.748,0,0,1,11518-8772Zm-275-347a31.786,31.786,0,0,0-12.455,2.515,31.861,31.861,0,0,0-10.171,6.858,31.89,31.89,0,0,0-6.859,10.171A31.791,31.791,0,0,0,11211-9087v255a31.8,31.8,0,0,0,2.515,12.457,31.875,31.875,0,0,0,6.859,10.17,31.861,31.861,0,0,0,10.171,6.858A31.786,31.786,0,0,0,11243-8800h255a31.792,31.792,0,0,0,12.457-2.515,31.877,31.877,0,0,0,10.171-6.858,31.867,31.867,0,0,0,6.858-10.17A31.792,31.792,0,0,0,11530-8832v-255a31.784,31.784,0,0,0-2.515-12.456,31.871,31.871,0,0,0-6.858-10.171,31.877,31.877,0,0,0-10.171-6.858A31.8,31.8,0,0,0,11498-9119Z" transform="translate(-11183.001 9146.999)" fill="#020f11" opacity="0.56"/>
</svg>
