<svg id="supprimer-poubelle" xmlns="http://www.w3.org/2000/svg" width="38" height="38" viewBox="0 0 38 38">
  <g id="Rectangle_15169" data-name="Rectangle 15169" fill="none" stroke="rgba(255,255,255,0.3)" stroke-width="1">
    <rect width="38" height="38" rx="12" stroke="none"/>
    <rect x="0.5" y="0.5" width="37" height="37" rx="11.5" fill="none"/>
  </g>
  <g id="Delete" transform="translate(10.246 9.37)">
    <path id="Delete-2" data-name="Delete" d="M5.132,19.963A2.855,2.855,0,0,1,2.2,17.277c-.313-2.7-.836-10.1-.846-10.163a.707.707,0,0,1,.714-.752H15.939a.741.741,0,0,1,.523.222.685.685,0,0,1,.181.53c0,.065-.533,7.468-.837,10.163a2.858,2.858,0,0,1-3,2.686C11.515,19.991,10.249,20,9,20,7.681,20,6.387,19.991,5.132,19.963ZM.714,4.837A.712.712,0,0,1,0,4.139V3.778a.705.705,0,0,1,.714-.7H3.63a1.268,1.268,0,0,0,1.241-.964l.152-.648A1.969,1.969,0,0,1,6.935,0h4.129a1.97,1.97,0,0,1,1.9,1.422l.163.694a1.267,1.267,0,0,0,1.241.965h2.916a.7.7,0,0,1,.713.7v.361a.711.711,0,0,1-.713.7Z" transform="translate(-0.246 -0.37)" fill="#fff"/>
  </g>
</svg>
