<svg id="carre-poubelle-supprimer-icone" xmlns="http://www.w3.org/2000/svg" width="32" height="32" viewBox="0 0 32 32">
  <g id="Rectangle_12144" data-name="Rectangle 12144" fill="none" stroke="rgba(255,255,255,0.3)" stroke-width="1">
    <rect width="32" height="32" rx="10" stroke="none"/>
    <rect x="0.5" y="0.5" width="31" height="31" rx="9.5" fill="none"/>
  </g>
  <g id="Delete" transform="translate(10 9)">
    <path id="Delete-2" data-name="Delete" d="M3.421,13.973a1.989,1.989,0,0,1-1.954-1.979C1.258,10,.91,5.29.9,5.242a.572.572,0,0,1,.127-.391.462.462,0,0,1,.349-.164h9.247a.473.473,0,0,1,.349.164.538.538,0,0,1,.121.391c0,.048-.355,4.766-.558,6.752a1.988,1.988,0,0,1-2,1.979C7.676,13.993,6.833,14,6,14,5.121,14,4.258,13.993,3.421,13.973ZM.476,3.564A.5.5,0,0,1,0,3.05V2.784A.5.5,0,0,1,.476,2.27H2.42a.866.866,0,0,0,.827-.71l.1-.478A1.342,1.342,0,0,1,4.624,0H7.376A1.339,1.339,0,0,1,8.645,1.048l.109.511a.865.865,0,0,0,.827.711h1.944A.5.5,0,0,1,12,2.784V3.05a.5.5,0,0,1-.475.514Z" fill="#fff"/>
  </g>
</svg>
