<svg id="carre-vignette-icone" xmlns="http://www.w3.org/2000/svg" width="40" height="40" viewBox="0 0 40 40">
  <g id="Rectangle_17248" data-name="Rectangle 17248" fill="#fff" stroke="rgba(255,255,255,0.3)" stroke-width="1">
    <rect width="40" height="40" rx="12" stroke="none"/>
    <rect x="0.5" y="0.5" width="39" height="39" rx="11.5" fill="none"/>
  </g>
  <g id="Bookmark" transform="translate(12 10)">
    <path id="Path_33968" d="M14.065,19.5h-.008a1.517,1.517,0,0,1-.675-.172l-.011-.006L7.583,16.108a.236.236,0,0,0-.221,0l-5.75,3.212-.009.005a1.426,1.426,0,0,1-.665.166,1.442,1.442,0,0,1-1.26-.752l-.007-.012A1.558,1.558,0,0,1-.5,18.045s0-.005,0-.008V3.8C-.5,1.026,1.249-.5,4.424-.5h6.152A5.767,5.767,0,0,1,14.03.426a3.714,3.714,0,0,1,1.47,3.19V18.037a1.468,1.468,0,0,1-.42,1.035A1.412,1.412,0,0,1,14.065,19.5Zm-.236-1.05a.557.557,0,0,0,.24.061.457.457,0,0,0,.325-.139.476.476,0,0,0,.136-.335V3.616a2.738,2.738,0,0,0-1.065-2.386,4.858,4.858,0,0,0-2.889-.74H4.424a4.668,4.668,0,0,0-2.907.781A3.02,3.02,0,0,0,.47,3.8V18.032a.549.549,0,0,0,.057.231.473.473,0,0,0,.411.241.46.46,0,0,0,.214-.053L6.9,15.24a1.184,1.184,0,0,1,1.147,0Z" transform="translate(0.5 0.5)" fill="#020f11"/>
  </g>
</svg>
