<svg xmlns="http://www.w3.org/2000/svg" width="17" height="15" viewBox="0 0 17 15">
  <g id="carte-bancaire-icone" opacity="0.6">
    <path id="Union_148" data-name="Union 148" d="M12.355,15H4.623a4.48,4.48,0,0,1-3.36-1.453A5.047,5.047,0,0,1,0,10.13V4.87A5.046,5.046,0,0,1,1.263,1.453,4.477,4.477,0,0,1,4.623,0h7.738a4.738,4.738,0,0,1,3.38,1.475,4.616,4.616,0,0,1,1.251,3.412v5.226a4.618,4.618,0,0,1-1.251,3.413A4.741,4.741,0,0,1,12.362,15ZM1.23,10.13a3.856,3.856,0,0,0,.949,2.612,3.211,3.211,0,0,0,2.444,1.049h7.728A3.5,3.5,0,0,0,14.84,12.7a3.416,3.416,0,0,0,.924-2.538c0-.012,0-.024,0-.036v-3.1H1.23ZM15.77,4.61A3.42,3.42,0,0,0,14.84,2.3a3.493,3.493,0,0,0-2.489-1.088H4.623A3.211,3.211,0,0,0,2.179,2.258,3.8,3.8,0,0,0,1.238,4.61Z" fill="#fff"/>
  </g>
</svg>
