<svg xmlns="http://www.w3.org/2000/svg" width="80" height="80" viewBox="0 0 80 80">
  <g id="cercle-main" transform="translate(-247 -3568.106)">
    <g id="Ellipse_693" data-name="Ellipse 693" transform="translate(247 3568.106)" fill="#fff" stroke="#020f11" stroke-width="1" opacity="0.1">
      <circle cx="40" cy="40" r="40" stroke="none"/>
      <circle cx="40" cy="40" r="39.5" fill="none"/>
    </g>
    <path id="hand-pointing" d="M51.273,28.214a4.576,4.576,0,0,0-2.224.575,4.72,4.72,0,0,0-2.59-2.9,4.589,4.589,0,0,0-3.85.07V20.75a4.666,4.666,0,1,0-9.33,0V34.321l-.636-1.04a4.622,4.622,0,0,0-6.38-1.724,4.8,4.8,0,0,0-1.693,6.5l.778,1.4C31.081,49.74,33.454,54,41.276,54A14.814,14.814,0,0,0,55.938,39.071V32.964a4.708,4.708,0,0,0-4.665-4.75Zm2,10.857a12.12,12.12,0,0,1-12,12.214c-6.27,0-7.971-3.054-13.609-13.178l-.781-1.4V36.7a2.056,2.056,0,0,1,.728-2.78,1.952,1.952,0,0,1,1-.271,1.993,1.993,0,0,1,1.734,1.018.3.3,0,0,0,.023.039l3.111,5.089a1.322,1.322,0,0,0,1.5.584,1.354,1.354,0,0,0,.965-1.3V20.75a2,2,0,1,1,4,0V32.286a1.333,1.333,0,1,0,2.666,0V30.25a2,2,0,1,1,4,0v3.393a1.333,1.333,0,1,0,2.666,0v-.679a2,2,0,1,1,4,0Z" transform="translate(247.062 3573.106)" fill="#fff"/>
  </g>
</svg>
