<svg xmlns="http://www.w3.org/2000/svg" width="80" height="80" viewBox="0 0 80 80">
  <g id="cercle-cercles-plus" transform="translate(-247 -3760.106)">
    <g id="Ellipse_704" data-name="Ellipse 704" transform="translate(247 3760.106)" fill="#fff" stroke="#020f11" stroke-width="1" opacity="0.1">
      <circle cx="40" cy="40" r="40" stroke="none"/>
      <circle cx="40" cy="40" r="39.5" fill="none"/>
    </g>
    <path id="circles-three-plus" d="M47.273,40a7.273,7.273,0,1,0,7.273,7.273A7.273,7.273,0,0,0,47.273,40Zm0,11.636a4.364,4.364,0,1,1,4.364-4.364A4.364,4.364,0,0,1,47.273,51.636Zm17.455,2.909a7.273,7.273,0,1,0-7.273-7.273A7.273,7.273,0,0,0,64.727,54.545Zm0-11.636a4.364,4.364,0,1,1-4.364,4.364A4.364,4.364,0,0,1,64.727,42.909ZM47.273,57.455a7.273,7.273,0,1,0,7.273,7.273A7.273,7.273,0,0,0,47.273,57.455Zm0,11.636a4.364,4.364,0,1,1,4.364-4.364A4.364,4.364,0,0,1,47.273,69.091ZM72,64.727a1.455,1.455,0,0,1-1.455,1.455H66.182v4.364a1.455,1.455,0,0,1-2.909,0V66.182H58.909a1.455,1.455,0,1,1,0-2.909h4.364V58.909a1.455,1.455,0,1,1,2.909,0v4.364h4.364A1.455,1.455,0,0,1,72,64.727Z" transform="translate(231 3744.106)" fill="#fff"/>
  </g>
</svg>
