<svg xmlns="http://www.w3.org/2000/svg" width="80" height="80" viewBox="0 0 80 80">
  <g id="cercle-magnet" transform="translate(-247 -3767.106)">
    <g id="Ellipse_700" data-name="Ellipse 700" transform="translate(247 3767.106)" fill="#fff" stroke="#020f11" stroke-width="1" opacity="0.1">
      <circle cx="40" cy="40" r="40" stroke="none"/>
      <circle cx="40" cy="40" r="39.5" fill="none"/>
    </g>
    <path id="magnet" d="M44.284,27.888A12.956,12.956,0,0,0,35.04,24h-.049a12.959,12.959,0,0,0-9.225,3.824l-9.094,9.213a2.37,2.37,0,0,0,.009,3.342l4.246,4.246a2.358,2.358,0,0,0,1.677.695h.013A2.37,2.37,0,0,0,24.3,44.6l9.022-9.244a2.382,2.382,0,0,1,3.32-.031,2.311,2.311,0,0,1,.7,1.658,2.5,2.5,0,0,1-.718,1.778L27.4,47.684a2.37,2.37,0,0,0-.025,3.376l4.246,4.246a2.379,2.379,0,0,0,3.336.018l9.155-8.955A13.158,13.158,0,0,0,44.284,27.888ZM22.6,42.945,18.359,38.7l3.526-3.573,4.225,4.225ZM33.29,53.628l-4.249-4.244,3.612-3.492,4.223,4.228Zm9.149-8.954-3.868,3.784-4.213-4.21,3.917-3.788.015-.013a4.889,4.889,0,0,0,1.418-3.481,4.658,4.658,0,0,0-1.428-3.336,4.77,4.77,0,0,0-6.652.074l-3.864,3.952-4.221-4.213,3.9-3.948a10.594,10.594,0,0,1,7.543-3.124h.04a10.6,10.6,0,0,1,7.563,3.182,10.768,10.768,0,0,1-.154,15.125Z" transform="translate(318.987 3847.106) rotate(180)" fill="#fff"/>
  </g>
</svg>
