<svg xmlns="http://www.w3.org/2000/svg" width="80" height="80" viewBox="0 0 80 80">
  <g id="cercle-fusee" transform="translate(-247 -3965.106)">
    <g id="Ellipse_701" data-name="Ellipse 701" transform="translate(247 3965.106)" fill="#fff" stroke="#020f11" stroke-width="1" opacity="0.1">
      <circle cx="40" cy="40" r="40" stroke="none"/>
      <circle cx="40" cy="40" r="39.5" fill="none"/>
    </g>
    <path id="rocket-launch" d="M36.755,56.639c-.062.248-1.622,6.089-10.2,6.089a1.28,1.28,0,0,1-1.28-1.28c0-8.58,5.841-10.14,6.089-10.2a1.28,1.28,0,1,1,.621,2.485c-.144.04-3.587,1.046-4.089,6.377,5.331-.5,6.339-3.939,6.38-4.1a1.281,1.281,0,0,1,2.481.64ZM51.634,45.856l-.763.763v9.332a2.545,2.545,0,0,1-.749,1.817l-5.491,5.488a2.545,2.545,0,0,1-1.808.752,2.577,2.577,0,0,1-.816-.133,2.55,2.55,0,0,1-1.725-2.067l-.859-6.158-7.073-7.073L26.2,47.718a2.56,2.56,0,0,1-1.451-4.348l5.488-5.491a2.545,2.545,0,0,1,1.817-.749h9.332l.763-.763A14.988,14.988,0,0,1,53.57,32.036a2.56,2.56,0,0,1,2.4,2.4,15,15,0,0,1-4.334,11.42Zm-25.081-.672,5.943.829,6.326-6.323H32.05Zm8.21,2.185,5.868,5.868,9.191-9.191a12.233,12.233,0,0,0,3.587-9.465,12.263,12.263,0,0,0-9.457,3.595Zm13.548,1.809L41.987,55.5l.832,5.945,5.492-5.5Z" transform="translate(247.008 3957.096)" fill="#fff"/>
  </g>
</svg>
