<svg xmlns="http://www.w3.org/2000/svg" width="80" height="80" viewBox="0 0 80 80">
  <g id="cercle-cible" transform="translate(-247 -3959.106)">
    <g id="Ellipse_705" data-name="Ellipse 705" transform="translate(247 3959.106)" fill="#fff" stroke="#020f11" stroke-width="1" opacity="0.1">
      <circle cx="40" cy="40" r="40" stroke="none"/>
      <circle cx="40" cy="40" r="39.5" fill="none"/>
    </g>
    <path id="target" d="M54.284,33.062a16,16,0,1,1-4.027-5.25l3.484-3.486a1.23,1.23,0,1,1,1.74,1.74L40.728,40.82a1.23,1.23,0,0,1-1.74-1.74l4.26-4.26A6.147,6.147,0,1,0,45.995,39.6a1.231,1.231,0,1,1,2.459-.138,8.606,8.606,0,1,1-3.439-6.4l3.5-3.5a13.506,13.506,0,1,0,3.555,4.56,1.23,1.23,0,1,1,2.219-1.06Z" transform="translate(247.148 3959.142)" fill="#fff"/>
  </g>
</svg>
