<svg xmlns="http://www.w3.org/2000/svg" width="32.001" height="32" viewBox="0 0 32.001 32">
  <g id="chapeau-universite-icone" transform="translate(-982 -7256)">
    <path id="graduation-cap" d="M31.473,32.119l-15-8a1,1,0,0,0-.94,0l-15,8a1,1,0,0,0,0,1.765L4,35.735v6.053a1.989,1.989,0,0,0,.508,1.331A15.084,15.084,0,0,0,16,48a16.25,16.25,0,0,0,6-1.1V51a1,1,0,1,0,2,0V45.94A14.454,14.454,0,0,0,27.5,43.119,1.989,1.989,0,0,0,28,41.788V35.735l3.47-1.851a1,1,0,0,0,0-1.765ZM16,46A13.1,13.1,0,0,1,6,41.788V36.8l9.53,5.083a1,1,0,0,0,.94,0L22,38.935v5.793A14.027,14.027,0,0,1,16,46Zm10-4.219a12.229,12.229,0,0,1-2,1.781v-5.7L26,36.8Zm-2.5-5.914-.028-.016-7-3.734a1,1,0,1,0-.94,1.765L21.378,37,16,39.868,3.127,33,16,26.135,28.878,33Z" transform="translate(981.998 7233.998)" fill="#fff"/>
  </g>
</svg>
