<svg xmlns="http://www.w3.org/2000/svg" width="22" height="22" viewBox="0 0 22 22">
  <g id="Group_31979" data-name="Group 31979" transform="translate(-458 -617)">
    <rect id="Rectangle_17290" data-name="Rectangle 17290" width="22" height="22" rx="11" transform="translate(458 617)" fill="#fff" opacity="0.1"/>
    <g id="Chat" transform="translate(463 622)">
      <path id="Chat-2" data-name="Chat" d="M3.191,11.309l-.028-.01a.01.01,0,0,1-.006-.007l-.409-.232a.45.45,0,0,0-.165-.032.279.279,0,0,0-.067.007,10.608,10.608,0,0,1-1.3.376l-.081.01H1.107a.671.671,0,0,1-.53-.213A.825.825,0,0,1,.4,10.656l.012-.1A11.056,11.056,0,0,1,.819,9.236a.318.318,0,0,0-.026-.243l-.11-.215A6,6,0,0,1,6.011,0h.023A6,6,0,1,1,3.191,11.309Zm-.1-1.013c.055.026.125.064.222.118l.253.146h0l.172.087a5.178,5.178,0,0,0,5.535-.66l.132-.112A5.163,5.163,0,0,0,6.029.837l-.168,0A5.162,5.162,0,0,0,1.426,8.393l.109.212a1.166,1.166,0,0,1,.076.9,10.644,10.644,0,0,0-.384,1.248l.056-.221.237-.062c.171-.048.332-.1.492-.149l.251-.086a1.227,1.227,0,0,1,.325-.044A1.31,1.31,0,0,1,3.088,10.3ZM8.009,6a.685.685,0,1,1,.685.685A.684.684,0,0,1,8.009,6ZM5.347,6a.685.685,0,1,1,.685.685A.684.684,0,0,1,5.347,6ZM2.685,6a.685.685,0,1,1,.685.685A.684.684,0,0,1,2.685,6Z" transform="translate(0 0)" fill="#fff"/>
    </g>
  </g>
</svg>
