<svg id="cours-video" xmlns="http://www.w3.org/2000/svg" width="20" height="20" viewBox="0 0 20 20">
  <rect id="Rectangle_17308" data-name="Rectangle 17308" width="20" height="20" fill="#fff" opacity="0"/>
  <path id="Union_194" data-name="Union 194" d="M5.074,20A5.09,5.09,0,0,1,0,14.925V5.074A5.087,5.087,0,0,1,5.074,0h9.853A5.089,5.089,0,0,1,20,5.074v9.852A5.089,5.089,0,0,1,14.926,20ZM8.242,9.245a.746.746,0,0,0-.323.345,4.647,4.647,0,0,0-.119.472,10.586,10.586,0,0,0-.115,1.763,12.353,12.353,0,0,0,.1,1.705c.007.026.012.052.018.08a2.673,2.673,0,0,0,.139.508.732.732,0,0,0,.642.379H8.6a2.181,2.181,0,0,0,.6-.179,10.481,10.481,0,0,0,2.753-1.834l.039-.039a2.364,2.364,0,0,0,.185-.206.667.667,0,0,0,.135-.406.714.714,0,0,0-.144-.436l-.045-.047-.034-.036c-.043-.044-.094-.1-.144-.148A10.609,10.609,0,0,0,9.135,9.307,2.271,2.271,0,0,0,8.6,9.162.865.865,0,0,0,8.242,9.245ZM1.281,5.074v.345H18.72V5.074A3.8,3.8,0,0,0,14.926,1.28H5.074A3.8,3.8,0,0,0,1.281,5.074ZM8.507,4.63a.837.837,0,0,1-.12-1.663l.011,0,.107-.011h.01a.838.838,0,0,1,.113,1.663H8.619l-.1.011Zm-2.358,0a.837.837,0,0,1-.12-1.663l.011,0,.107-.011h.009a.838.838,0,0,1,.12,1.663h-.01l-.107.011Zm-2.359,0a.837.837,0,0,1-.12-1.663l.011,0,.107-.011H3.8a.837.837,0,0,1,.121,1.662l-.01,0L3.8,4.63Z" transform="translate(0 0)" fill="#d9f777"/>
</svg>
