<svg id="carre-crayon-modifier-icone" xmlns="http://www.w3.org/2000/svg" viewBox="10 8.99 13 14.01">
    <g id="Edit" transform="translate(9.508 9.102)">
        <path id="Edit-2" data-name="Edit"
              d="M12.548,4.434,5.277,13.327a1.778,1.778,0,0,1-1.352.639L1.026,14A.328.328,0,0,1,.7,13.756l-.659-2.7A1.6,1.6,0,0,1,.377,9.65L5.531,3.34A.269.269,0,0,1,5.883,3.3L8.052,4.93a.729.729,0,0,0,.536.143.749.749,0,0,0,.676-.816.808.808,0,0,0-.272-.5l-2.108-1.6a.285.285,0,0,1-.053-.411l.817-1a2.221,2.221,0,0,1,3.135-.2L12,1.464a2.392,2.392,0,0,1,.948,1.371,1.8,1.8,0,0,1-.4,1.6"
              transform="translate(0.492 -0.102)" fill="#fff"></path>
    </g>
</svg>