<svg id="CTA_Partage_ecran" data-name="CTA Partage ecran" xmlns="http://www.w3.org/2000/svg" width="48" height="48" viewBox="0 0 48 48">
  <rect id="Rectangle_15217" data-name="Rectangle 15217" width="48" height="48" rx="24" fill="rgba(255,255,255,0.1)"/>
  <g id="partage-ecran-icone" transform="translate(14 14)">
    <rect id="Rectangle_17080" data-name="Rectangle 17080" width="19.999" height="20" transform="translate(0.001)" fill="none"/>
    <path id="Subtraction_12" data-name="Subtraction 12" d="M13.191,16H6.812A3.933,3.933,0,0,1,4.1,15.116a3.165,3.165,0,0,1-1-2.021A4,4,0,0,1,0,9.2V4A4,4,0,0,1,4,0H16a4,4,0,0,1,4,4V9.2a4,4,0,0,1-3.109,3.9,3.17,3.17,0,0,1-1.008,2.021A3.915,3.915,0,0,1,13.191,16ZM4.647,13.2a1.514,1.514,0,0,0,.449.778,2.56,2.56,0,0,0,1.716.5h6.379c1.207,0,1.933-.431,2.156-1.282Zm4.73-8.935V8.489a.62.62,0,1,0,1.239,0V4.262l1.323,1.4a.6.6,0,0,0,.873,0,.667.667,0,0,0,.008-.919l-2.387-2.52a.656.656,0,0,0-.2-.14A.53.53,0,0,0,10,2.03a.576.576,0,0,0-.241.052.641.641,0,0,0-.2.14L7.182,4.743a.675.675,0,0,0,0,.919.6.6,0,0,0,.873,0l1.32-1.4Z" transform="translate(0 1.997)" fill="#fff"/>
  </g>
</svg>
