<svg id="CTA_Liste_participants" data-name="CTA Liste participants" xmlns="http://www.w3.org/2000/svg" width="48" height="48" viewBox="0 0 48 48">
  <rect id="Rectangle_15217" data-name="Rectangle 15217" width="48" height="48" rx="24" fill="rgba(255,255,255,0.1)"/>
  <g id="_2-utilisateurs" data-name="2-utilisateurs" transform="translate(14 13.999)">
    <path id="Stroke_1" data-name="Stroke 1" d="M.037,7.743a.787.787,0,1,1,0-1.574,2.673,2.673,0,0,0,0-5.345.787.787,0,1,1,0-1.574,4.247,4.247,0,0,1,0,8.493Z" transform="translate(13.688 1.872)" fill="#fff"/>
    <path id="Stroke_3" data-name="Stroke 3" d="M1.733,4.821a.787.787,0,0,1-.158-1.558c.8-.165,1.343-.434,1.489-.74a.854.854,0,0,0,0-.736c-.147-.308-.688-.575-1.484-.734l-.017,0A10.689,10.689,0,0,0-.016.822.787.787,0,1,1,.09-.748,12.268,12.268,0,0,1,1.9-.489a3.369,3.369,0,0,1,2.589,1.6,2.422,2.422,0,0,1,0,2.088A3.4,3.4,0,0,1,1.892,4.8.791.791,0,0,1,1.733,4.821Z" transform="translate(15.278 11.551)" fill="#fff"/>
    <path id="Stroke_5" data-name="Stroke 5" d="M7.215-.75a17.237,17.237,0,0,1,5.292.627c1.22.409,2.674,1.277,2.674,3.09,0,1-.462,2.351-2.664,3.1a17.043,17.043,0,0,1-5.3.638,17.239,17.239,0,0,1-5.291-.627C.7,5.669-.75,4.8-.75,2.988c0-1,.462-2.351,2.663-3.1A17.039,17.039,0,0,1,7.215-.75Zm0,5.88a15.84,15.84,0,0,0,4.8-.554c1.6-.542,1.6-1.318,1.6-1.609s0-1.061-1.6-1.6A15.808,15.808,0,0,0,7.215.824a15.836,15.836,0,0,0-4.8.554C.824,1.921.824,2.7.824,2.988.824,4.409,2.974,5.13,7.215,5.13Z" transform="translate(0.75 12.296)" fill="#fff"/>
    <path id="Stroke_7" data-name="Stroke 7" d="M4.637,10.025A5.371,5.371,0,0,1-.75,4.637,5.371,5.371,0,0,1,4.637-.75a5.372,5.372,0,0,1,5.388,5.387,5.372,5.372,0,0,1-5.388,5.388Zm0-9.2a3.8,3.8,0,1,0,2.7,1.112A3.792,3.792,0,0,0,4.637.824Z" transform="translate(3.328 0.75)" fill="#fff"/>
  </g>
</svg>
