<svg xmlns="http://www.w3.org/2000/svg" width="66.984" height="66.984" viewBox="0 0 66.984 66.984">
  <g id="e-mail_envoye-icone" data-name="e-mail envoye-icone" transform="translate(0.5 0.5)">
    <circle id="Ellipse_619" data-name="Ellipse 619" cx="32.978" cy="32.978" r="32.978" transform="matrix(1, 0, 0, 1, 0, 0)" fill="none" stroke="#fff" stroke-width="1"/>
    <g id="Message" transform="translate(19.733 21.733)">
      <path id="Path_445" d="M7.891,6.069a3.9,3.9,0,0,1-2.377-.807l-.005,0L-.462.586A.74.74,0,0,1-.583-.468.776.776,0,0,1,.492-.586L6.46,4.083a2.355,2.355,0,0,0,2.86,0L15.236-.584a.776.776,0,0,1,1.076.114A.74.74,0,0,1,16.2.584L10.276,5.256l-.008.006A3.9,3.9,0,0,1,7.891,6.069Z" transform="translate(5.379 7.656)" fill="#fff"/>
      <path id="Rectangle_511" d="M6.74-.75H19.731a7.611,7.611,0,0,1,7.507,8.043v8.914a7.611,7.611,0,0,1-7.507,8.043H6.74A7.2,7.2,0,0,1,1.3,21.867,8.392,8.392,0,0,1-.75,16.229V7.271A8.392,8.392,0,0,1,1.3,1.633,7.2,7.2,0,0,1,6.74-.75ZM19.719.763H6.74A5.623,5.623,0,0,0,2.433,2.641,6.887,6.887,0,0,0,.768,7.271v8.958a6.887,6.887,0,0,0,1.664,4.63A5.623,5.623,0,0,0,6.74,22.737H19.719a6.1,6.1,0,0,0,6-6.464q0-.022,0-.044V7.271q0-.022,0-.044a6.1,6.1,0,0,0-6-6.464Z" transform="translate(0 0)" fill="#fff"/>
    </g>
    <g id="Group_29310" data-name="Group 29310" transform="translate(-610.17 -230.481)">
      <circle id="Ellipse_651" data-name="Ellipse 651" cx="8.5" cy="8.5" r="8.5" transform="matrix(1, 0, 0, 1, 648.648, 266.962)" fill="#d9f777"/>
      <g id="Group_28119" data-name="Group 28119" transform="translate(653.254 271.216)">
        <g id="Group_28118" data-name="Group 28118">
          <path id="Path_27102" data-name="Path 27102" d="M327.217,372.263a.865.865,0,0,1-.714-.376l-2.674-3.906a.865.865,0,1,1,1.428-.978l1.846,2.7,2.763-5.491a.865.865,0,1,1,1.546.778l-3.422,6.8a.865.865,0,0,1-.715.474Z" transform="translate(-323.677 -363.732)" fill="#020f11"/>
        </g>
      </g>
    </g>
  </g>
</svg>
