<svg xmlns="http://www.w3.org/2000/svg" width="20" height="20" viewBox="0 0 20 20">
  <g id="Group_30366" data-name="Group 30366" transform="translate(-23 -975.362)" opacity="0.55">
    <path id="Path_28572" data-name="Path 28572" d="M33,975.362a10,10,0,1,0,10,10A10.011,10.011,0,0,0,33,975.362Zm0,1.482a8.519,8.519,0,1,1-8.519,8.519A8.507,8.507,0,0,1,33,976.844Zm.637,2.963a5.47,5.47,0,0,0-5.127,3.7H27.444a.741.741,0,0,0,0,1.482H28.2c-.009.125-.011.243-.011.37s0,.248.011.37h-.752a.741.741,0,1,0,0,1.481H28.5a5.466,5.466,0,0,0,5.139,3.7,5.256,5.256,0,0,0,3.958-1.713.741.741,0,1,0-1.053-1.03,3.5,3.5,0,0,1-2.905,1.262,3.951,3.951,0,0,1-3.542-2.222H33.37a.741.741,0,1,0,0-1.481H29.69c-.01-.12-.023-.248-.023-.37s.013-.247.023-.37H33.37a.741.741,0,0,0,0-1.482H30.095a3.966,3.966,0,0,1,3.542-2.222,3.492,3.492,0,0,1,2.905,1.25.741.741,0,1,0,1.053-1.03A5.247,5.247,0,0,0,33.637,979.807Z" fill="#fff"/>
  </g>
</svg>
