<svg id="facture-icone" xmlns="http://www.w3.org/2000/svg" width="20" height="20" viewBox="0 0 20 20">
  <rect id="Rectangle_14963" data-name="Rectangle 14963" width="20" height="20" fill="none" opacity="0.184"/>
  <path id="Union_155" data-name="Union 155" d="M24877.6-12460.919a1.671,1.671,0,0,0-1.285-.631,1.691,1.691,0,0,0-1.281.631,2.8,2.8,0,0,1-2.053.917,2.8,2.8,0,0,1-2.053-.917,1.666,1.666,0,0,0-1.275-.631,1.67,1.67,0,0,0-1.277.631,2.823,2.823,0,0,1-2.059.917,2.792,2.792,0,0,1-2.051-.917c-.062-.061-.127-.12-.189-.173a3.073,3.073,0,0,1-1.072-2.267c-.008-3.2-.008-9.487-.008-9.487,0-3.582,1.623-5.156,5.346-5.156h9.3c3.391,0,5.34,1.873,5.34,5.156l.006,9.454a3.054,3.054,0,0,1-1.094,2.3c-.064.053-.127.112-.189.173a2.8,2.8,0,0,1-2.053.917A2.822,2.822,0,0,1,24877.6-12460.919Zm1.148-1.157.01.008c.387.352.533.464.9.464s.508-.112.9-.464l.041-.039c.063-.055.117-.108.174-.161a1.522,1.522,0,0,0,.563-1.123l-.01-9.454c0-2.392-1.205-3.556-3.674-3.556h-9.3a4.145,4.145,0,0,0-2.883.764,3.838,3.838,0,0,0-.793,2.792v9.487a1.506,1.506,0,0,0,.549,1.1h.008a1.4,1.4,0,0,0,.109.1c.021.026.057.052.082.078l.01.008c.389.352.527.464.893.464s.514-.112.9-.464l.008-.008a3.3,3.3,0,0,1,2.426-1.07,3.3,3.3,0,0,1,2.42,1.063l.008.015c.395.352.533.464.9.464s.506-.112.9-.464a3.322,3.322,0,0,1,2.434-1.078A3.3,3.3,0,0,1,24878.748-12462.076Zm-10.156-4.956a.85.85,0,0,1-.867-.831.851.851,0,0,1,.867-.831h8.7a.849.849,0,0,1,.867.831.849.849,0,0,1-.867.831Zm8.7-4.852h-8.7a.862.862,0,0,1-.775-.743.852.852,0,0,1,.775-.93h8.7c.035,0,.07-.008.111-.008a.925.925,0,0,1,.451.133.811.811,0,0,1,.271,1.149.872.872,0,0,1-.742.4Z" transform="translate(-24862.992 12479.002)" fill="#fff"/>
</svg>
