<svg id="favoris-icone" xmlns="http://www.w3.org/2000/svg" width="13" height="17" viewBox="0 0 40 40">
  <g id="Bookmark" transform="translate(11 8)">
    <path id="Path_33968" d="M16.8,23.5h-.009a1.787,1.787,0,0,1-.8-.207l-.012-.007L9.1,19.43a.277.277,0,0,0-.263,0L2.008,23.286,2,23.292a1.679,1.679,0,0,1-.79.2,1.709,1.709,0,0,1-1.5-.9L-.3,22.574a1.886,1.886,0,0,1-.2-.82s0-.007,0-.01V4.656C-.5,1.331,1.577-.5,5.347-.5h7.306a6.8,6.8,0,0,1,4.1,1.111A4.475,4.475,0,0,1,18.5,4.439V21.744a1.772,1.772,0,0,1-.5,1.242A1.668,1.668,0,0,1,16.8,23.5Zm-.28-1.26a.656.656,0,0,0,.284.073.541.541,0,0,0,.386-.167.574.574,0,0,0,.162-.4V4.439a3.3,3.3,0,0,0-1.265-2.864A5.723,5.723,0,0,0,12.653.687H5.347A5.5,5.5,0,0,0,1.9,1.624,3.642,3.642,0,0,0,.652,4.656V21.738a.664.664,0,0,0,.068.277.561.561,0,0,0,.488.289.542.542,0,0,0,.254-.063l6.825-3.853a1.393,1.393,0,0,1,1.362,0Z" transform="translate(0.5 0.5)" fill="#FFFFFF"/>
  </g>
</svg>
