<svg id="favoris-icone" xmlns="http://www.w3.org/2000/svg" width="40" height="40" viewBox="0 0 40 40">
    <g id="Bookmark" transform="translate(12 13)">
        <path id="Path_33968" d="M14.065,19.5h-.008a1.517,1.517,0,0,1-.675-.172l-.011-.006L7.583,16.108a.236.236,0,0,0-.221,0l-5.75,3.212-.009.005a1.426,1.426,0,0,1-.665.166,1.442,1.442,0,0,1-1.26-.752l-.007-.012A1.558,1.558,0,0,1-.5,18.045s0-.005,0-.008V3.8C-.5,1.026,1.249-.5,4.424-.5h6.152A5.767,5.767,0,0,1,14.03.426a3.714,3.714,0,0,1,1.47,3.19V18.037a1.468,1.468,0,0,1-.42,1.035A1.412,1.412,0,0,1,14.065,19.5ZM.937,18.5Z" transform="translate(0.5 0.5)" fill="#fff"/>
    </g>
</svg>
