<svg xmlns="http://www.w3.org/2000/svg" width="20" height="19.428" viewBox="0 0 20 19.428">
  <path id="logo-github" d="M10.918,2.1A9.985,9.985,0,0,0,8.413,21.339a.46.46,0,0,0,.6-.5v-1.6a4.135,4.135,0,0,1-.9.1,2.162,2.162,0,0,1-2.1-1.9,2.079,2.079,0,0,0-.6-1c-.3-.1-.4-.1-.4-.2,0-.2.3-.2.4-.2.6,0,1.1.7,1.3,1a1.826,1.826,0,0,0,1.4,1,2,2,0,0,0,.9-.2,2.539,2.539,0,0,1,1-1.8c-2.3-.5-4.008-1.8-4.008-4.008a4.723,4.723,0,0,1,1.2-3.006,3.717,3.717,0,0,1-.2-1.4,3.434,3.434,0,0,1,.3-1.6,4.51,4.51,0,0,1,2.806,1.3,5.423,5.423,0,0,1,1.9-.3,6.461,6.461,0,0,1,2,.3,4.32,4.32,0,0,1,2.806-1.3,4.98,4.98,0,0,1,.2,1.6,3.332,3.332,0,0,1-.2,1.4,4.514,4.514,0,0,1,1.2,3.006c0,2.2-1.7,3.507-4.008,4.008a3.09,3.09,0,0,1,1,2.3v2.605a.546.546,0,0,0,.7.5A10.06,10.06,0,0,0,10.918,2.1Z" transform="translate(-2.041 -2.031)" fill="#6f47bf"/>
</svg>
