<svg xmlns="http://www.w3.org/2000/svg" width="16" height="16" viewBox="0 0 16 16">
  <g id="Group_31524" data-name="Group 31524" transform="translate(-959 -698)">
    <rect id="Rectangle_17347" data-name="Rectangle 17347" width="16" height="16" transform="translate(959 698)" fill="none" opacity="0.358"/>
    <path id="Union_196" data-name="Union 196" d="M14889.649-12877a4.677,4.677,0,0,1-4.648-4.692v-4.615a4.677,4.677,0,0,1,4.648-4.693h6.7a4.678,4.678,0,0,1,4.652,4.693v4.615a4.678,4.678,0,0,1-4.652,4.692Zm-3.485-9.308v4.615a3.505,3.505,0,0,0,3.485,3.519h6.7a3.507,3.507,0,0,0,3.489-3.519v-4.615a3.507,3.507,0,0,0-3.489-3.519h-6.7A3.505,3.505,0,0,0,14886.164-12886.307Zm8.571,4.356h-6a.589.589,0,0,1-.535-.575.589.589,0,0,1,.535-.576h6a.614.614,0,0,1,.572.27.571.571,0,0,1,0,.613.6.6,0,0,1-.51.271Zm2.457-3.16h-8.5a.564.564,0,0,1-.49-.571.563.563,0,0,1,.49-.576h8.5a.537.537,0,0,1,.523.266.607.607,0,0,1,0,.617.543.543,0,0,1-.461.27A.449.449,0,0,1,14897.192-12885.11Z" transform="translate(-13926 13590)" fill="#fff"/>
  </g>
</svg>
