<svg id="instagram-logo" xmlns="http://www.w3.org/2000/svg" width="20" height="20" viewBox="0 0 20 20">
  <path id="Intersection_1" data-name="Intersection 1" d="M3.781,13.6a2.2,2.2,0,0,1-2.2-2.2V3.8a2.2,2.2,0,0,1,2.2-2.2h7.6a2.2,2.2,0,0,1,2.2,2.2v7.6a2.2,2.2,0,0,1-2.2,2.2Zm-.151-6A3.951,3.951,0,1,0,7.581,3.645,3.957,3.957,0,0,0,3.63,7.6Zm7.094-4.069a.936.936,0,1,0,.936-.935A.936.936,0,0,0,10.724,3.528ZM5.3,7.6A2.282,2.282,0,1,1,7.581,9.879,2.282,2.282,0,0,1,5.3,7.6Z" transform="translate(2.418 2.402)" fill="#fff" stroke="rgba(0,0,0,0)" stroke-miterlimit="10" stroke-width="1"/>
</svg>
