<svg id="langues-icone" xmlns="http://www.w3.org/2000/svg" width="26" height="26" viewBox="0 0 26 26">
  <g id="Chat" transform="translate(0 4)">
    <path id="Chat-2" data-name="Chat" d="M5.318,18.848l-.046-.016a.017.017,0,0,1-.01-.012l-.682-.387a.75.75,0,0,0-.275-.054.465.465,0,0,0-.112.012,17.683,17.683,0,0,1-2.171.627l-.135.016H1.846a1.118,1.118,0,0,1-.883-.355,1.376,1.376,0,0,1-.3-.92l.02-.164a18.425,18.425,0,0,1,.677-2.2.529.529,0,0,0-.043-.4l-.184-.358A10.005,10.005,0,0,1,10.02,0h.039a10,10,0,1,1-4.74,18.848Zm-.171-1.688c.092.044.209.107.37.2l.422.243.006,0,.287.146a8.632,8.632,0,0,0,9.226-1.1l.22-.187a8.606,8.606,0,0,0-5.63-15.064l-.281,0A8.6,8.6,0,0,0,2.377,13.988l.181.353a1.944,1.944,0,0,1,.126,1.5,17.739,17.739,0,0,0-.64,2.08l.094-.368.4-.1c.285-.079.553-.16.82-.248l.418-.144a2.045,2.045,0,0,1,.541-.073A2.184,2.184,0,0,1,5.147,17.159Zm5.433-2.266a.432.432,0,0,1,.2-.764,6.511,6.511,0,0,0,1.812-.959A7.612,7.612,0,0,1,11.427,11.7a.433.433,0,1,1,.757-.419,6.39,6.39,0,0,0,1.068,1.339,5.844,5.844,0,0,0,1.434-2.408H10.913a.434.434,0,1,1-.081-.865h2.245V8.477a.432.432,0,0,1,.338-.432.316.316,0,0,1,.054-.014.432.432,0,0,1,.472.446v.866h2.164a.433.433,0,1,1,0,.865h-.527a6.929,6.929,0,0,1-1.7,2.962,8,8,0,0,0,1.555.973.436.436,0,0,1-.379.785,8.667,8.667,0,0,1-1.825-1.176,7.209,7.209,0,0,1-2.177,1.19.435.435,0,0,1-.2.048A.431.431,0,0,1,10.58,14.893ZM8.23,11.555a.432.432,0,0,1-.318-.347l-.5-1.433H5.329l-.5,1.433a.432.432,0,1,1-.811-.27l.554-1.6A.437.437,0,0,1,4.653,9.1L5.964,5.314a.423.423,0,0,1,.812,0l1.947,5.625a.432.432,0,0,1-.385.63A.438.438,0,0,1,8.23,11.555ZM5.627,8.91H7.114L6.37,6.76Z" transform="translate(0 0)" fill="#fff"/>
  </g>
</svg>
