<svg id="linkedin-logo" xmlns="http://www.w3.org/2000/svg" width="20" height="20" viewBox="0 0 20 20">
  <path id="Path_9" data-name="Path 9" d="M1710.815,1359.468v-.033c-.006.011-.016.022-.022.033Z" transform="translate(-1700.094 -1350.387)" fill="#fff"/>
  <path id="Path_10" data-name="Path 10" d="M1704.817,1365.184h-2.572v-8.1h2.572Zm-1.287-9.2h-.015a1.466,1.466,0,1,1,.015,0Zm10.562,9.2h-2.573v-4.332c0-1.088-.371-1.832-1.3-1.832a1.418,1.418,0,0,0-1.319.985,1.916,1.916,0,0,0-.085.656v4.522h-2.573s.035-7.338,0-8.1h2.573v1.148a2.54,2.54,0,0,1,2.318-1.338c1.693,0,2.962,1.158,2.962,3.644Z" transform="translate(-1698.094 -1349.184)" fill="#fff"/>
</svg>
