<svg id="lien-icone" xmlns="http://www.w3.org/2000/svg" width="20" height="20" viewBox="0 0 20 20">
  <path id="Path_27877" data-name="Path 27877" d="M17.668,64.823A10.014,10.014,0,0,0,8.4,71.076a1,1,0,0,0-.041.1,10,10,0,0,0,0,7.288,1,1,0,0,0,.041.1,10,10,0,0,0,18.535.01l.008-.02.018-.041.014-.035.01-.025a9.958,9.958,0,0,0,0-7.272l-.01-.025-.014-.035q-.012-.031-.025-.061a10.024,10.024,0,0,0-9.268-6.243Zm2.279,2.328a7.991,7.991,0,0,1,4.465,3.355H21.369A15.558,15.558,0,0,0,19.947,67.151Zm-4.6.012a15.653,15.653,0,0,0-1.389,3.343H10.923A8,8,0,0,1,15.351,67.162Zm2.3.08a13.593,13.593,0,0,1,1.621,3.263H16.054a13.723,13.723,0,0,1,1.6-3.263Zm-7.647,5.263h3.524a15.715,15.715,0,0,0,0,4.636H10.005a8.074,8.074,0,0,1,0-4.636Zm5.543,0h4.237a13.453,13.453,0,0,1,0,4.636H15.549a13.583,13.583,0,0,1,0-4.636Zm6.264,0h3.52a8.119,8.119,0,0,1,0,4.636h-3.52a15.542,15.542,0,0,0,0-4.636ZM10.923,79.14h3.039a15.652,15.652,0,0,0,1.389,3.343,8,8,0,0,1-4.428-3.343Zm5.131,0h3.219A13.6,13.6,0,0,1,17.65,82.4a13.725,13.725,0,0,1-1.6-3.263Zm5.315,0h3.043A7.99,7.99,0,0,1,19.947,82.5,15.565,15.565,0,0,0,21.369,79.14Z" transform="translate(-7.673 -64.823)" fill="#5e55f2"/>
</svg>
