<svg id="loupe-icone" xmlns="http://www.w3.org/2000/svg" xmlns:xlink="http://www.w3.org/1999/xlink" width="19" height="19" viewBox="0 0 19 19">
  <defs>
    <clipPath id="clip-path">
      <rect id="Rectangle_14920" data-name="Rectangle 14920" width="19" height="19" fill="#fff"/>
    </clipPath>
  </defs>
  <g id="Group_28384" data-name="Group 28384" clip-path="url(#clip-path)">
    <path id="Path_27190" data-name="Path 27190" d="M2.634,2.638a9.006,9.006,0,1,1,0,12.736,9.007,9.007,0,0,1,0-12.736M14.391,14.393a7.619,7.619,0,1,0-10.775,0,7.618,7.618,0,0,0,10.775,0" transform="translate(0 0)" fill="#fff"/>
    <path id="Path_27191" data-name="Path 27191" d="M19.921,20.6a.673.673,0,0,1-.477-.2L16.27,17.236a.676.676,0,0,1,.956-.956L20.4,19.445a.675.675,0,0,1-.477,1.154" transform="translate(-1.597 -1.599)" fill="#fff"/>
  </g>
</svg>
