<svg id="panier-vide" xmlns="http://www.w3.org/2000/svg" width="19" height="19" viewBox="0 0 19 19">
  <g id="Buy" transform="translate(1)">
    <path id="Buy-2" data-name="Buy" d="M14.391,17.536A1.438,1.438,0,1,1,15.835,19,1.458,1.458,0,0,1,14.391,17.536Zm-10.679,0A1.438,1.438,0,1,1,5.155,19,1.458,1.458,0,0,1,3.712,17.536ZM5.307,14.53a2.383,2.383,0,0,1-1.64-.654A2.485,2.485,0,0,1,2.9,12.263L2.023,1.695.589,1.442A.728.728,0,0,1,.727,0,.776.776,0,0,1,.836.009L3.1.357a.729.729,0,0,1,.588.659l.18,2.172a.586.586,0,0,0,.579.544h12.82a1.6,1.6,0,0,1,1.339.65,2.138,2.138,0,0,1,.361,1.666l-.9,6.36a2.453,2.453,0,0,1-2.4,2.123Zm5.5-6.485a.72.72,0,0,0,.712.727h2.629a.72.72,0,0,0,.712-.727.713.713,0,0,0-.712-.728H11.515A.713.713,0,0,0,10.8,8.045Z" transform="translate(-1)" fill="#fff"/>
  </g>
</svg>
