<svg xmlns="http://www.w3.org/2000/svg" width="40" height="40" viewBox="0 0 40 40">
  <path id="phone-call" d="M56.054,26.787a1.6,1.6,0,0,1,1.96-1.132A17.244,17.244,0,0,1,70.346,37.987a1.6,1.6,0,0,1-1.132,1.96A1.646,1.646,0,0,1,68.8,40a1.6,1.6,0,0,1-1.546-1.188A14.07,14.07,0,0,0,57.188,28.747a1.6,1.6,0,0,1-1.134-1.96Zm-.466,8.36a7,7,0,0,1,5.266,5.266A1.6,1.6,0,0,0,62.4,41.6a1.646,1.646,0,0,0,.414-.054,1.6,1.6,0,0,0,1.132-1.96,10.269,10.269,0,0,0-7.532-7.532,1.6,1.6,0,1,0-.826,3.092Zm16.388,19.07A11.252,11.252,0,0,1,60.8,64,28.834,28.834,0,0,1,32,35.2a11.252,11.252,0,0,1,9.784-11.176,3.2,3.2,0,0,1,3.324,1.9l4.224,9.43v.024a3.2,3.2,0,0,1-.254,3.018c-.036.054-.074.1-.114.154L44.8,43.491a18.445,18.445,0,0,0,7.766,7.7l4.868-4.142a1.624,1.624,0,0,1,.15-.112,3.2,3.2,0,0,1,3.034-.28l.026.012,9.422,4.222A3.2,3.2,0,0,1,71.976,54.218Zm-3.176-.4h-.022l-9.4-4.21-4.87,4.142a1.689,1.689,0,0,1-.148.112,3.2,3.2,0,0,1-3.15.228,21.6,21.6,0,0,1-9.292-9.222,3.2,3.2,0,0,1,.2-3.14,1.226,1.226,0,0,1,.114-.154L46.4,36.631l-4.2-9.4a.121.121,0,0,1,0-.024,8.04,8.04,0,0,0-7,7.994A25.628,25.628,0,0,0,60.8,60.8a8.042,8.042,0,0,0,8-6.986Z" transform="translate(-32 -24.001)" fill="#1a2628"/>
</svg>
