<svg xmlns="http://www.w3.org/2000/svg" width="19" height="19" viewBox="0 0 19 19">
  <g id="position-petit" opacity="0.6">
    <rect id="Rectangle_14819" data-name="Rectangle 14819" width="19" height="19" fill="#fff" opacity="0"/>
    <g id="Location" transform="translate(2 0)">
      <path id="Location-2" data-name="Location" d="M6.63,18.7l-.053-.046-.364-.264a18.937,18.937,0,0,1-4-4.044l-.279-.392A10.662,10.662,0,0,1,0,8.1l0-.27A8.367,8.367,0,0,1,2.281,2.282,7.185,7.185,0,0,1,7.5,0h.025l.226,0a7.222,7.222,0,0,1,5.143,2.468A8.408,8.408,0,0,1,15,8.125v.1a11.884,11.884,0,0,1-3.282,7.5,19.093,19.093,0,0,1-3.3,2.94L8.37,18.7a1.407,1.407,0,0,1-1.74,0ZM7.309,1.445A5.934,5.934,0,0,0,3.086,3.451,6.9,6.9,0,0,0,1.335,8.075l.017.34A9.136,9.136,0,0,0,3,13.083a17.513,17.513,0,0,0,4.326,4.374l.072.059a.152.152,0,0,0,.21,0l.075-.061a17.657,17.657,0,0,0,3.073-2.732,10.405,10.405,0,0,0,2.912-6.514l0-.316A6.875,6.875,0,0,0,11.8,3.333,5.9,5.9,0,0,0,7.521,1.441ZM4.642,8.216A2.982,2.982,0,0,1,7.5,5.131,2.982,2.982,0,0,1,10.36,8.216,2.982,2.982,0,0,1,7.5,11.3,2.982,2.982,0,0,1,4.642,8.216Zm1.335,0A1.589,1.589,0,0,0,7.5,9.861,1.589,1.589,0,0,0,9.022,8.216,1.589,1.589,0,0,0,7.5,6.572,1.589,1.589,0,0,0,5.977,8.216Z" transform="translate(0 0)" fill="#fff"/>
    </g>
  </g>
</svg>
