<svg id="securité-utilisateur-icone" xmlns="http://www.w3.org/2000/svg" width="19.998" height="19.998" viewBox="0 0 19.998 19.998">
  <path id="Union_165" data-name="Union 165" d="M23176.666-13012a5.507,5.507,0,0,1-4.145-1.682,6.066,6.066,0,0,1-1.52-4.231v-8.166a6.043,6.043,0,0,1,1.525-4.231,5.483,5.483,0,0,1,4.139-1.687h8.666a5.475,5.475,0,0,1,4.145,1.688,6.078,6.078,0,0,1,1.523,4.231v8.166a6.078,6.078,0,0,1-1.523,4.231,5.5,5.5,0,0,1-4.145,1.682Zm-4.168-14.079v8.166a4.6,4.6,0,0,0,1.123,3.207,4.022,4.022,0,0,0,3.045,1.21h8.666a4.039,4.039,0,0,0,3.049-1.21,4.59,4.59,0,0,0,1.117-3.207v-8.166a4.58,4.58,0,0,0-1.117-3.207,4.039,4.039,0,0,0-3.049-1.21h-8.666C23174.133-13030.5,23172.5-13028.765,23172.5-13026.082Zm12.449,10.081a1,1,0,0,1-1-1,1,1,0,0,1,1-1h1.5a1,1,0,0,1,1,1,1,1,0,0,1-1,1Zm-4.7,0a1,1,0,0,1-1-1,1,1,0,0,1,1-1h1.5a.992.992,0,0,1,1,1,1,1,0,0,1-1,1Zm-4.7,0a1,1,0,0,1-1-1,1,1,0,0,1,1-1h1.5a1,1,0,0,1,1,1,1,1,0,0,1-1,1Zm3.475-4.831a1.429,1.429,0,0,1-1.1-1.345,1.418,1.418,0,0,1,1.1-1.339,6.058,6.058,0,0,1,1.973-.25,6.146,6.146,0,0,1,1.979.25,1.429,1.429,0,0,1,1.088,1.345,1.417,1.417,0,0,1-1.094,1.345,6.271,6.271,0,0,1-1.973.244A6.1,6.1,0,0,1,23179.023-13020.832Zm.33-1.758c-.441.157-.441.332-.441.413s0,.262.441.419a5.285,5.285,0,0,0,1.648.192,5.28,5.28,0,0,0,1.646-.192c.438-.151.438-.325.438-.413s0-.262-.437-.413a5.3,5.3,0,0,0-1.646-.2A5.285,5.285,0,0,0,23179.354-13022.59Zm-.453-3.562a2.1,2.1,0,0,1,2.1-2.1,2.1,2.1,0,0,1,2.1,2.1,2.1,2.1,0,0,1-2.1,2.1A2.1,2.1,0,0,1,23178.9-13026.151Zm1,0a1.1,1.1,0,0,0,1.1,1.1,1.1,1.1,0,0,0,1.094-1.1,1.093,1.093,0,0,0-1.094-1.095A1.1,1.1,0,0,0,23179.9-13026.151Z" transform="translate(-23171.002 13032.001)" fill="#fff"/>
</svg>
