<svg id="etoile-icone" xmlns="http://www.w3.org/2000/svg" width="26" height="26" viewBox="0 0 26 26">
  <g id="Star" transform="translate(3 4)">
    <path id="Star-2" data-name="Star" d="M4.766,19H4.761a1.515,1.515,0,0,1-1.5-1.75l.891-4.991a.04.04,0,0,0-.011-.03L.44,8.671A1.469,1.469,0,0,1,0,7.627a1.547,1.547,0,0,1,.461-1.1,1.649,1.649,0,0,1,.83-.4L6.342,5.4c.02,0,.041-.009.041-.031L8.641.84a1.513,1.513,0,0,1,2.71,0l2.261,4.541c.009.009.02.02.03.02l5.062.73a1.526,1.526,0,0,1,1,.581,1.5,1.5,0,0,1-.16,1.969l-3.67,3.551a.026.026,0,0,0-.007.01l0,.006h0l0,0,.879,5.01a1.516,1.516,0,0,1-1.25,1.71,1.707,1.707,0,0,1-.237.018h-.005a1.494,1.494,0,0,1-.707-.178l-4.521-2.36a.076.076,0,0,0-.041.01L5.44,18.842A1.5,1.5,0,0,1,4.766,19ZM9.982,1.46h0l-.01.007a.051.051,0,0,0-.02.022L7.69,6.02a1.515,1.515,0,0,1-1.129.83l-5.031.721-.061.02a.066.066,0,0,0-.009.041l3.7,3.55a1.513,1.513,0,0,1,.43,1.33l-.88,4.98v.021a.046.046,0,0,0,.044.033h.016L9.3,15.172a1.536,1.536,0,0,1,.721-.182h.005a1.522,1.522,0,0,1,.695.171l4.5,2.351h.009a.084.084,0,0,0,.029.01h.033l.02-.019-.881-4.982a1.445,1.445,0,0,1,.431-1.339l3.671-3.559.01-.023-.01-.009H18.52a.065.065,0,0,0-.026-.005L13.431,6.85A1.509,1.509,0,0,1,12.3,6.02L10.042,1.5a.031.031,0,0,0-.008-.023.034.034,0,0,0-.024-.008L10,1.46Z" transform="translate(0 0)" fill="#fff"/>
  </g>
</svg>
