<svg id="twitter-logo" xmlns="http://www.w3.org/2000/svg" width="20" height="20" viewBox="0 0 20 20">
  <path id="Path_11" data-name="Path 11" d="M1752.159,1358.433c.005.12.008.239.008.359a7.977,7.977,0,0,1-8.173,7.9,8.335,8.335,0,0,1-4.4-1.247,6.034,6.034,0,0,0,.686.038,5.887,5.887,0,0,0,3.567-1.188,2.866,2.866,0,0,1-2.684-1.929,2.954,2.954,0,0,0,1.3-.048,2.8,2.8,0,0,1-2.3-2.722v-.036a2.938,2.938,0,0,0,1.3.349,2.755,2.755,0,0,1-1.277-2.312,2.685,2.685,0,0,1,.39-1.4,8.249,8.249,0,0,0,5.92,2.9,2.657,2.657,0,0,1-.075-.634,2.826,2.826,0,0,1,2.872-2.777,2.913,2.913,0,0,1,2.1.877,5.912,5.912,0,0,0,1.824-.674,2.817,2.817,0,0,1-1.264,1.536,5.883,5.883,0,0,0,1.649-.437A5.737,5.737,0,0,1,1752.159,1358.433Z" transform="translate(-1736.592 -1350.693)" fill="#fff"/>
</svg>
