<svg xmlns="http://www.w3.org/2000/svg" width="22" height="22" viewBox="0 0 22 22">
  <g id="Group_31980" data-name="Group 31980" transform="translate(-458 -617)">
    <rect id="Rectangle_17290" data-name="Rectangle 17290" width="22" height="22" rx="11" transform="translate(458 617)" fill="#fff" opacity="0.1"/>
    <g id="_3_User" data-name="3 User" transform="translate(462.063 622.063)">
      <path id="_3_User-2" data-name="3 User" d="M2.306,7.3a1.376,1.376,0,0,1,.966-1.331A7.249,7.249,0,0,1,6,5.585h.166a6.832,6.832,0,0,1,2.606.4,1.388,1.388,0,0,1,.042,2.6A6.318,6.318,0,0,1,6.325,9L6,9C3.445,9,2.306,8.475,2.306,7.3Zm.818,0c0,.75,1.563.907,2.873.907,1.88,0,2.873-.317,2.873-.916,0-.749-1.562-.906-2.873-.906C4.117,6.382,3.124,6.7,3.124,7.3Zm7.06.215a.4.4,0,0,1,.318-.47c.356-.071.589-.185.647-.3a.328.328,0,0,0,0-.287c-.058-.119-.293-.233-.655-.3a4.859,4.859,0,0,0-.714-.1.4.4,0,1,1,.056-.795,5.588,5.588,0,0,1,.826.116,1.57,1.57,0,0,1,1.225.739,1.1,1.1,0,0,1,0,.971,1.571,1.571,0,0,1-1.22.741.422.422,0,0,1-.083.008A.406.406,0,0,1,10.184,7.512Zm-8.851.31a1.572,1.572,0,0,1-1.22-.741,1.1,1.1,0,0,1,0-.971,1.479,1.479,0,0,1,1.1-.713l.112-.023a5.709,5.709,0,0,1,.837-.118.4.4,0,1,1,.056.795,4.865,4.865,0,0,0-.544.066l-.182.036c-.349.067-.584.181-.643.3a.324.324,0,0,0,0,.286c.057.118.29.232.646.3a.4.4,0,0,1,.318.47.406.406,0,0,1-.4.318A.422.422,0,0,1,1.333,7.821ZM4.219,4.178a2.411,2.411,0,0,1,0-3.464,2.572,2.572,0,0,1,3.557,0,2.412,2.412,0,0,1,0,3.464,2.571,2.571,0,0,1-3.557,0Zm.578-2.9a1.63,1.63,0,0,0,0,2.338,1.737,1.737,0,0,0,2.4,0,1.63,1.63,0,0,0,0-2.338,1.738,1.738,0,0,0-2.4,0Zm3.876,2.7a.4.4,0,0,1,.409-.4,1.158,1.158,0,0,0,1.173-1.142A1.158,1.158,0,0,0,9.082,1.3.4.4,0,0,1,8.673.9.4.4,0,0,1,9.082.5a1.965,1.965,0,0,1,1.991,1.938A1.965,1.965,0,0,1,9.082,4.376.4.4,0,0,1,8.673,3.978ZM.927,2.438A1.965,1.965,0,0,1,2.918.5a.4.4,0,0,1,.409.4.4.4,0,0,1-.409.4A1.158,1.158,0,0,0,1.745,2.438,1.158,1.158,0,0,0,2.918,3.58a.4.4,0,1,1,0,.8A1.965,1.965,0,0,1,.927,2.438Z" transform="translate(0.937 0.938)" fill="#fff"/>
    </g>
  </g>
</svg>
