<svg xmlns="http://www.w3.org/2000/svg" width="35" height="25" viewBox="0 0 35 25">
  <g id="Group_31352" data-name="Group 31352" transform="translate(-1617 -897)">
    <path id="_3_Friends" data-name="3 Friends" d="M7.3,20.75c0-3.4,4.63-4.282,10.12-4.282,5.458,0,10.119.849,10.119,4.251S22.908,25,17.419,25C11.96,25,7.3,24.149,7.3,20.75Zm23.065.63c.468-4.324-3.259-6.374-4.224-6.847a.07.07,0,0,1-.046-.073.06.06,0,0,1,.052-.041,25.077,25.077,0,0,1,5.16.444c1.755.339,2.911,1.031,3.391,2.036a2.963,2.963,0,0,1,0,2.61c-.733,1.56-3.093,2.062-4.011,2.191a.29.29,0,0,1-.043,0A.287.287,0,0,1,30.364,21.38ZM4.314,21.7C3.4,21.572,1.037,21.071.3,19.51A2.941,2.941,0,0,1,.3,16.9c.478-1.007,1.632-1.7,3.389-2.039a25.326,25.326,0,0,1,5.16-.442.058.058,0,0,1,.05.039.072.072,0,0,1-.044.075c-.966.471-4.693,2.521-4.225,6.844a.286.286,0,0,1-.279.325ZM10.723,6.614a6.7,6.7,0,1,1,6.7,6.615A6.631,6.631,0,0,1,10.723,6.614ZM26.35,12.253a5.5,5.5,0,0,1-.769-.073.247.247,0,0,1-.169-.382,8.992,8.992,0,0,0-.135-10.33.164.164,0,0,1-.026-.173.208.208,0,0,1,.132-.077A5.677,5.677,0,0,1,26.51,1.1,5.576,5.576,0,1,1,26.5,12.254ZM3.041,8.156A5.609,5.609,0,0,1,8.489,1.1a5.714,5.714,0,0,1,1.128.114.215.215,0,0,1,.13.077.161.161,0,0,1-.026.172A8.991,8.991,0,0,0,9.589,11.8a.248.248,0,0,1-.17.382,5.311,5.311,0,0,1-.769.073l-.153,0A5.571,5.571,0,0,1,3.041,8.156Z" transform="translate(1617 897)" fill="#d9f777"/>
  </g>
</svg>
